<?xml version="1.0" encoding="UTF-8"?>
<svg id="Layer_1" data-name="Layer 1" xmlns="http://www.w3.org/2000/svg" version="1.1" viewBox="0 0 64 64">
  <defs>
    <style>
      .cls-1 {
        fill: #60c;
      }

      .cls-1, .cls-2, .cls-3, .cls-4, .cls-5, .cls-6, .cls-7 {
        stroke-width: 0px;
      }

      .cls-2 {
        opacity: .3;
      }

      .cls-2, .cls-3 {
        isolation: isolate;
      }

      .cls-2, .cls-7 {
        fill: #fff;
      }

      .cls-3 {
        fill: #000;
        opacity: .2;
      }

      .cls-4 {
        fill: #9c34c2;
      }

      .cls-5 {
        fill: #37d0ee;
      }

      .cls-6 {
        fill: #ffa1ac;
      }
    </style>
  </defs>
  <path class="cls-5" d="M50,8H14c-3.9,0-7,3.1-7,7v30c0,3.9,3.1,7,7,7h36c3.9,0,7-3.1,7-7V15c0-3.9-3.1-7-7-7Z"/>
  <path class="cls-4" d="M50,8H14c-3.9,0-7,3.1-7,7v3h50v-3c0-3.9-3.1-7-7-7Z"/>
  <path class="cls-3" d="M57,45v-19h0c-2.8,0-5,2.2-5,5v14c0,1.1-.9,2-2,2h-13c-2.8,0-5,2.2-5,5h18c3.9,0,7-3.1,7-7Z"/>
  <circle class="cls-6" cx="47" cy="13" r="2"/>
  <circle class="cls-6" cx="40" cy="13" r="2"/>
  <path class="cls-6" d="M33,15h-10c-1.1,0-2-.9-2-2h0c0-1.1.9-2,2-2h10c1.1,0,2,.9,2,2h0c0,1.1-.9,2-2,2Z"/>
  <path class="cls-2" d="M27,13c2.8,0,5-2.2,5-5H14c-3.9,0-7,3.1-7,7v17c2.8,0,5-2.2,5-5v-12.6c0-.8.6-1.4,1.4-1.4h13.6Z"/>
  <path class="cls-7" d="M10.5,19.5c-.8,0-1.5-.7-1.5-1.5v-3.5c0-2.5,2-4.5,4.5-4.5h3.5c.8,0,1.5.7,1.5,1.5s-.7,1.5-1.5,1.5h-3.5c-.8,0-1.5.7-1.5,1.5v3.5c0,.8-.7,1.5-1.5,1.5Z"/>
  <circle class="cls-1" cx="16.5" cy="39.5" r="3.5"/>
  <circle class="cls-1" cx="26.5" cy="30.5" r="3.5"/>
  <circle class="cls-1" cx="47.5" cy="29.5" r="3.5"/>
  <circle class="cls-1" cx="36.5" cy="39.5" r="3.5"/>
  <path class="cls-1" d="M36.5,42h0c-.4,0-.8-.2-1.1-.5l-8.9-9.8-8.8,8.8c-.6.6-1.5.6-2.1,0s-.6-1.5,0-2.1l9.9-9.9c.3-.3.7-.4,1.1-.4s.8.2,1.1.5l8.9,9.8,9.9-9.9c.6-.6,1.5-.6,2.1,0s.6,1.5,0,2.1l-11,11c-.3.3-.7.4-1.1.4Z"/>
</svg>