<?xml version="1.0" encoding="UTF-8"?>
<svg id="Layer_1" data-name="Layer 1" xmlns="http://www.w3.org/2000/svg" version="1.1" viewBox="0 0 64 64">
  <defs>
    <style>
      .cls-1 {
        fill: #ffce29;
      }

      .cls-1, .cls-2, .cls-3, .cls-4, .cls-5 {
        stroke-width: 0px;
      }

      .cls-2, .cls-6 {
        fill: #63c;
      }

      .cls-6 {
        stroke-miterlimit: 10;
      }

      .cls-6, .cls-7 {
        stroke: #63c;
      }

      .cls-3 {
        fill: #fff;
        opacity: .3;
      }

      .cls-3, .cls-4 {
        isolation: isolate;
      }

      .cls-4 {
        fill: #000;
        opacity: .2;
      }

      .cls-7, .cls-8 {
        fill: none;
        stroke-linecap: round;
        stroke-linejoin: round;
        stroke-width: 3px;
      }

      .cls-5 {
        fill: #630;
      }

      .cls-8 {
        stroke: #fff;
      }
    </style>
  </defs>
  <path class="cls-5" d="M47.9,53h-31.8c-4.1,0-7.9-2.4-9.4-6.2-.9-2.3-1-4.8,0-7.3l5.8-17.8h39.1l5.9,17.8c.7,2.2.8,4.4,0,6.5-1.2,4.2-5.3,6.9-9.6,6.9h0Z"/>
  <circle class="cls-1" cx="14.5" cy="33.5" r="3.5"/>
  <circle class="cls-1" cx="49.5" cy="33.5" r="3.5"/>
  <ellipse class="cls-1" cx="32" cy="33.7" rx="18" ry="21.5"/>
  <path class="cls-5" d="M32,8c-11.4,0-20.7,9.3-20.7,20.7s0,.9,0,1.3h1.3c8,0,15.1-4,19.3-10.2,4.2,6.1,11.3,10.2,19.3,10.2s.9,0,1.3,0v-1.3c0-11.4-9.3-20.7-20.7-20.7h.2Z"/>
  <path class="cls-8" d="M18.4,18.2c1.2-1.6,2.8-3,4.5-4.1"/>
  <path class="cls-3" d="M11.5,25.4c.4.1.9.2,1.3.2,1.9,0,3.8-1.1,4.6-3.1,1.8-4.2,5.3-7.5,9.7-8.9,2.4-.8,3.8-3.2,3.4-5.7-9.7.6-17.6,7.9-19.1,17.4h.1Z"/>
  <path class="cls-4" d="M40.9,45.7c-2.4,2.9-5.6,4.5-8.9,4.5s-4.5,1.8-4.9,4.2c6.1,2.1,12.9.2,17.6-5.5,1.1-1.3,2-2.7,2.7-4.2-2.1-1.4-4.9-1-6.5,1Z"/>
  <path class="cls-7" d="M52.5,35.5v6c0,5-4,9-9,9h-11"/>
  <path class="cls-2" d="M53,38h-2c-1.1,0-2-.9-2-2v-10c0-1.1.9-2,2-2h2c1.7,0,3,1.3,3,3v8c0,1.7-1.3,3-3,3Z"/>
  <circle class="cls-6" cx="32" cy="50" r="4"/>
</svg>