<?xml version="1.0" encoding="iso-8859-1"?>
<!-- Generator: Adobe Illustrator 21.0.0, SVG Export Plug-In . SVG Version: 6.00 Build 0)  -->
<svg version="1.1" id="Layer_1" xmlns="http://www.w3.org/2000/svg" xmlns:xlink="http://www.w3.org/1999/xlink" x="0px" y="0px"
	 viewBox="0 0 324 368" style="enable-background:new 0 0 324 368;" xml:space="preserve">
<rect x="40" y="312" style="fill:#DAE0E7;" width="220" height="40"/>
<path style="fill:#0467B4;" d="M284.004,344v24h-118l-16-12l16-12H284.004z M284.004,344"/>
<path style="fill:#68A4D2;" d="M166.004,344v24h-118l-16-24H166.004z M166.004,344"/>
<path style="fill:#FFB739;" d="M276,98h28c11,0,20-10.801,20-24V50c0-13.199-9-24-20-24h-28V98z M276,98"/>
<path style="fill:#DAE0E7;" d="M276,196h28c11,0,20-10.801,20-24v-24c0-13.199-9-24-20-24h-28V196z M276,196"/>
<path style="fill:#FFB739;" d="M276,294h28c11,0,20-10.801,20-24v-24c0-13.199-9-24-20-24h-28V294z M276,294"/>
<path style="fill:#0467B4;" d="M284,0H166l-16,160l16,160h118V0z M284,0"/>
<path style="fill:#68A4D2;" d="M48,0L32,320h134V0H48z M48,0"/>
<path style="fill:#233145;" d="M48,368H0v-48l24-16l24,16V368z M48,368"/>
<rect style="fill:#466289;" width="48" height="320"/>
</svg>
