<svg id="Capa_1" data-name="Capa 1" xmlns="http://www.w3.org/2000/svg" viewBox="0 0 512 512"><defs><style>.cls-1{fill:#f2f2f2;}.cls-2{fill:#334a5e;}.cls-3{fill:#1f73b4;}.cls-4{fill:#68a4d2;}.cls-5{fill:#ff7058;}.cls-6{fill:#f1543f;}</style></defs><title>barcode-scanner</title><path class="cls-1" d="M469.33,0H42.67A42.67,42.67,0,0,0,0,42.67V272.46a42.67,42.67,0,0,0,42.67,42.67H469.33A42.67,42.67,0,0,0,512,272.46V42.67A42.67,42.67,0,0,0,469.33,0"/><rect class="cls-2" x="38.29" y="38.31" width="30.45" height="238.5"/><rect class="cls-2" x="87.58" y="38.31" width="5.62" height="238.5"/><rect class="cls-2" x="198.21" y="38.31" width="5.6" height="238.5"/><rect class="cls-2" x="117.55" y="38.31" width="19.37" height="238.5"/><rect class="cls-2" x="338.82" y="38.31" width="19.37" height="238.5"/><rect class="cls-2" x="302.79" y="38.31" width="17.67" height="238.5"/><rect class="cls-2" x="271.16" y="38.31" width="7.2" height="238.5"/><rect class="cls-2" x="226.68" y="38.29" width="22.41" height="238.52"/><rect class="cls-2" x="404.73" y="38.31" width="19.37" height="238.5"/><rect class="cls-2" x="444.55" y="38.31" width="29.15" height="238.5"/><rect class="cls-2" x="159.02" y="38.29" width="10.25" height="238.52"/><rect class="cls-2" x="373.14" y="38.29" width="7.39" height="238.52"/><rect class="cls-3" x="123.5" y="267.95" width="264.98" height="70.88"/><path class="cls-4" d="M388.48,338.82,353.88,423a233.91,233.91,0,0,0-17.57,89V512H175.78a234.24,234.24,0,0,0-17.62-89.09l-34.63-84.11h265Z"/><polygon class="cls-5" points="0.64 151.48 123.52 269.83 388.48 269.83 511.39 151.48 0.64 151.48"/><polygon class="cls-6" points="68.75 217.48 68.75 151.48 38.29 151.48 38.29 188.22 68.75 217.48"/><polygon class="cls-6" points="93.2 240.98 93.2 151.48 87.58 151.48 87.58 235.56 93.2 240.98"/><rect class="cls-6" x="198.21" y="151.48" width="5.6" height="118.65"/><polygon class="cls-6" points="123.55 270.12 136.96 270.12 136.96 151.48 117.58 151.48 117.58 264.37 123.55 270.12"/><rect class="cls-6" x="338.82" y="151.48" width="19.37" height="118.65"/><rect class="cls-6" x="302.79" y="151.48" width="17.67" height="118.65"/><rect class="cls-6" x="271.17" y="151.48" width="7.19" height="118.65"/><rect class="cls-6" x="226.68" y="151.48" width="22.41" height="118.65"/><polygon class="cls-6" points="424.11 235.89 424.11 151.48 404.73 151.48 404.73 254.52 424.11 235.89"/><polygon class="cls-6" points="473.7 188.25 473.7 151.46 444.54 151.46 444.54 216.27 473.7 188.25"/><rect class="cls-6" x="159.02" y="151.48" width="10.25" height="118.65"/><rect class="cls-6" x="373.14" y="149.33" width="7.39" height="118.65"/></svg>