<?xml version="1.0" encoding="iso-8859-1"?>
<!-- Generator: Adobe Illustrator 21.0.0, SVG Export Plug-In . SVG Version: 6.00 Build 0)  -->
<svg version="1.1" id="Capa_1" xmlns="http://www.w3.org/2000/svg" xmlns:xlink="http://www.w3.org/1999/xlink" x="0px" y="0px"
	 viewBox="-49 141 512 512" style="enable-background:new -49 141 512 512;" xml:space="preserve">
<path style="fill:#FFCE54;" d="M257.684,186.616H146.178c-6.092,0-11.82-2.372-16.128-6.68c-4.308-4.308-6.68-10.036-6.68-16.128
	s2.372-11.82,6.68-16.128c4.308-4.308,10.036-6.68,16.128-6.68h111.506l0,0l0,0c6.092,0,11.82,2.372,16.128,6.68
	c4.308,4.308,6.68,10.036,6.68,16.128s-2.372,11.82-6.68,16.128C269.504,184.244,263.776,186.616,257.684,186.616z"/>
<path style="fill:#F6BB42;" d="M273.812,147.68c-4.308-4.308-10.036-6.68-16.128-6.68H227.27c6.092,0,11.82,2.372,16.128,6.68
	c4.308,4.308,6.68,10.036,6.68,16.128s-2.372,11.82-6.68,16.128c-4.308,4.308-10.036,6.68-16.128,6.68h30.414
	c6.092,0,11.82-2.372,16.128-6.68c4.308-4.308,6.68-10.036,6.68-16.128S278.12,151.988,273.812,147.68z"/>
<path style="fill:#FFCE54;" d="M257.684,652.914H146.178c-6.092,0-11.82-2.372-16.128-6.68c-4.308-4.308-6.68-10.036-6.68-16.128
	s2.372-11.82,6.68-16.128c4.308-4.308,10.036-6.68,16.128-6.68h111.506l0,0l0,0c6.092,0,11.82,2.372,16.128,6.68
	c4.308,4.308,6.68,10.036,6.68,16.128s-2.372,11.82-6.68,16.128C269.504,650.542,263.776,652.914,257.684,652.914z"/>
<path style="fill:#A0CEEA;" d="M303.3,298.122H100.562c-2.007,0-3.964-0.811-5.373-2.23c-1.419-1.409-2.23-3.365-2.23-5.373v-60.821
	c0-1.997,0.811-3.964,2.23-5.373c1.409-1.419,3.376-2.23,5.373-2.23H303.3c2.007,0,3.964,0.811,5.373,2.23
	c1.419,1.409,2.23,3.376,2.23,5.373v60.821c0,1.997-0.811,3.964-2.23,5.373C307.264,297.311,305.297,298.122,303.3,298.122z"/>
<path style="fill:#1F73B4;" d="M308.673,224.325c-1.409-1.419-3.365-2.23-5.373-2.23h-30.414c2.007,0,3.964,0.811,5.373,2.23
	c1.419,1.409,2.23,3.376,2.23,5.373v60.821c0,1.997-0.811,3.964-2.23,5.373c-1.409,1.419-3.376,2.23-5.373,2.23H303.3
	c1.997,0,3.964-0.811,5.373-2.23c1.419-1.409,2.23-3.376,2.23-5.373v-60.821C310.903,227.701,310.092,225.734,308.673,224.325z"/>
<path style="fill:#48CFAD;" d="M201.931,429.902c-0.973,0-1.926-0.182-2.828-0.537L97.734,388.817
	c-2.859-1.145-4.774-3.984-4.774-7.065c0-3.072,1.916-5.91,4.774-7.055l101.369-40.548c1.794-0.72,3.852-0.72,5.656,0
	l101.369,40.548c2.858,1.145,4.774,3.984,4.774,7.055c0,3.082-1.917,5.92-4.774,7.065l-101.369,40.548
	C203.857,429.719,202.904,429.902,201.931,429.902z"/>
<path style="fill:#37BC9B;" d="M306.128,374.696l-101.369-40.548c-1.804-0.72-3.862-0.72-5.656,0l-17.448,6.979l83.921,33.568
	c2.858,1.145,4.774,3.984,4.774,7.055c0,3.082-1.917,5.92-4.774,7.065l-83.921,33.568l17.448,6.979
	c0.902,0.355,1.855,0.537,2.828,0.537c0.973,0,1.926-0.182,2.828-0.537l101.369-40.548c2.858-1.145,4.774-3.984,4.774-7.065
	C310.903,378.68,308.987,375.842,306.128,374.696z"/>
<path style="fill:#515760;" d="M232.342,267.711H171.52c-4.197,0-7.603-3.406-7.603-7.603c0-4.187,3.406-7.603,7.603-7.603h60.821
	c4.197,0,7.603,3.416,7.603,7.603C239.944,264.305,236.538,267.711,232.342,267.711z"/>
<path style="fill:#A0CEEA;" d="M303.3,531.271H100.562c-2.007,0-3.964-0.811-5.373-2.22c-1.419-1.419-2.23-3.376-2.23-5.383v-60.821
	c0-1.997,0.811-3.953,2.23-5.373c1.409-1.419,3.376-2.23,5.373-2.23H303.3c1.997,0,3.964,0.811,5.373,2.23
	c1.419,1.419,2.23,3.376,2.23,5.373v60.821c0,2.007-0.811,3.964-2.23,5.383C307.264,530.46,305.297,531.271,303.3,531.271z"/>
<g>
	<path style="fill:#515760;" d="M232.342,500.86H171.52c-4.197,0-7.603-3.406-7.603-7.603c0-4.187,3.406-7.603,7.603-7.603h60.821
		c4.197,0,7.603,3.416,7.603,7.603C239.944,497.454,236.538,500.86,232.342,500.86z"/>
	<path style="fill:#515760;" d="M232.342,389.354H171.52c-4.197,0-7.603-3.406-7.603-7.603c0-4.187,3.406-7.603,7.603-7.603h60.821
		c4.197,0,7.603,3.416,7.603,7.603C239.944,385.948,236.538,389.354,232.342,389.354z"/>
</g>
<g>
	<rect x="194.326" y="186.616" style="fill:#656D78;" width="15.205" height="35.479"/>
	<path style="fill:#656D78;" d="M194.328,546.476H57.48V328.533h136.848v7.526l4.774-1.91c1.794-0.72,3.852-0.72,5.656,0l4.774,1.91
		v-37.936h-15.205v15.205H49.877c-4.197,0-7.603,3.416-7.603,7.603v233.149c0,4.187,3.406,7.603,7.603,7.603h152.054
		c4.197,0,7.603-3.416,7.603-7.603v-22.808h-15.205L194.328,546.476L194.328,546.476z"/>
	<path style="fill:#656D78;" d="M204.759,429.365c-0.902,0.355-1.855,0.537-2.828,0.537c-0.973,0-1.926-0.182-2.828-0.537
		l-4.774-1.91v27.789h15.205v-27.789L204.759,429.365z"/>
	<path style="fill:#656D78;" d="M364.122,374.149H304.76l1.368,0.547c2.858,1.145,4.774,3.984,4.774,7.055
		c0,3.082-1.917,5.92-4.774,7.065l-1.343,0.537h51.734v187.533H201.931c-4.197,0-7.603,3.406-7.603,7.603v22.808h15.205v-15.205
		h154.588c4.197,0,7.603-3.416,7.603-7.603V381.752C371.724,377.565,368.318,374.149,364.122,374.149z"/>
</g>
<path style="fill:#1F73B4;" d="M308.673,457.473c-1.409-1.419-3.365-2.23-5.373-2.23h-30.414c2.007,0,3.964,0.811,5.373,2.23
	c1.419,1.409,2.23,3.376,2.23,5.373v60.821c0,1.997-0.811,3.964-2.23,5.372c-1.409,1.419-3.376,2.23-5.373,2.23H303.3
	c1.997,0,3.964-0.811,5.373-2.23c1.419-1.409,2.23-3.376,2.23-5.372v-60.821C310.903,460.849,310.092,458.882,308.673,457.473z"/>
<path style="fill:#F6BB42;" d="M273.812,614.063c-4.308-4.308-10.036-6.68-16.128-6.68H227.27c6.092,0,11.82,2.372,16.128,6.68
	c4.308,4.308,6.68,10.036,6.68,16.128s-2.372,11.82-6.68,16.128c-4.308,4.308-10.036,6.68-16.128,6.68h30.414
	c6.092,0,11.82-2.372,16.128-6.68c4.308-4.308,6.68-10.036,6.68-16.128S278.12,618.371,273.812,614.063z"/>
</svg>
