<?xml version="1.0" encoding="iso-8859-1"?>
<!-- Generator: Adobe Illustrator 21.0.0, SVG Export Plug-In . SVG Version: 6.00 Build 0)  -->
<svg version="1.1" id="Capa_1" xmlns="http://www.w3.org/2000/svg" xmlns:xlink="http://www.w3.org/1999/xlink" x="0px" y="0px"
	 viewBox="-49 141 512 512" style="enable-background:new -49 141 512 512;" xml:space="preserve">
<polygon style="fill:#3487BF;" points="106.47,509.886 89.699,577.116 198.069,577.116 181.298,509.886 "/>
<polygon style="fill:#0467B4;" points="181.298,509.886 157.253,509.886 174.025,577.116 198.069,577.116 "/>
<path style="fill:#1F73B4;" d="M229.678,584.616H58.091c-4.142,0-7.5-3.358-7.5-7.5c0-4.142,3.358-7.5,7.5-7.5h171.587
	c4.143,0,7.5,3.358,7.5,7.5C237.178,581.258,233.82,584.616,229.678,584.616z"/>
<path style="fill:#68A4D2;" d="M299.978,209.384H-12.21c-20.286,0-36.79,16.504-36.79,36.79v234.422
	c0,20.286,16.504,36.79,36.79,36.79h312.189c20.285,0,36.789-16.504,36.789-36.79V246.174
	C336.768,225.888,320.264,209.384,299.978,209.384z"/>
<path style="fill:#0467B4;" d="M299.978,209.384h-25.466c16.976,0,30.787,16.504,30.787,36.789v234.422
	c0,20.286-13.811,36.79-30.787,36.79h25.466c20.285,0,36.789-16.504,36.789-36.79V246.174
	C336.768,225.888,320.264,209.384,299.978,209.384z"/>
<rect x="-49" y="254.81" style="fill:#D0F0FE;" width="385.77" height="217.15"/>
<rect x="305.3" y="254.81" style="fill:#A6D3E8;" width="31.468" height="217.15"/>
<path style="fill:#E4EBF0;" d="M460.804,339.723l-47.11-47.111c-1.407-1.407-3.314-2.197-5.304-2.197H267.884
	c-4.143,0-7.5,3.358-7.5,7.5v265.75c0,4.142,3.357,7.5,7.5,7.5H455.5c4.143,0,7.5-3.358,7.5-7.5V345.026
	C463,343.037,462.21,341.129,460.804,339.723z"/>
<path style="fill:#C9D7E1;" d="M460.804,339.723l-47.11-47.111c-1.407-1.407-3.314-2.197-5.304-2.197h-8.886
	c1.611,0,3.155,0.79,4.294,2.197l38.146,47.111c1.139,1.406,1.778,3.314,1.778,5.303v218.639c0,4.142-2.719,7.5-6.073,7.5H455.5
	c4.143,0,7.5-3.358,7.5-7.5V345.026C463,343.037,462.21,341.129,460.804,339.723z"/>
<path style="fill:#A8B3BA;" d="M413.693,292.612c-1.407-1.407-3.314-2.197-5.304-2.197h-7.5v54.611c0,4.142,3.358,7.5,7.5,7.5H463
	v-7.5c0-1.989-0.79-3.897-2.196-5.303L413.693,292.612z"/>
<path style="fill:#0467B4;" d="M311.837,517.682c0-1.486,0.544-2.973,1.633-4.46c1.087-1.486,2.35-2.23,3.783-2.23
	c1.008,0,2.734,0.863,5.176,2.588c2.441,1.726,4.699,2.775,6.769,3.146v-12.902c-1.911-0.743-3.424-1.354-4.539-1.832
	s-2.496-1.207-4.141-2.191c-1.647-0.981-2.921-1.991-3.823-3.026c-0.903-1.035-1.7-2.362-2.39-3.982
	c-0.69-1.619-1.035-3.411-1.035-5.376c0-4.818,1.5-8.608,4.5-11.369c2.999-2.762,6.81-4.467,11.428-5.117v-2.069
	c0-0.54,0.292-1.008,0.877-1.402c0.583-0.393,1.301-0.591,2.15-0.591c0.743,0,1.434,0.209,2.071,0.625
	c0.637,0.417,0.956,0.87,0.956,1.36v1.838c1.485,0.055,2.946,0.192,4.381,0.411c1.434,0.219,2.946,0.573,4.539,1.066
	s2.88,1.231,3.862,2.215c0.982,0.985,1.474,2.134,1.474,3.447c0,1.404-0.438,2.862-1.314,4.373c-0.876,1.51-2.084,2.266-3.624,2.266
	c-0.745,0-2.005-0.451-3.783-1.354c-1.78-0.902-3.625-1.434-5.536-1.593v11.628c1.753,0.691,3.238,1.302,4.46,1.832
	c1.22,0.531,2.601,1.302,4.141,2.31c1.539,1.009,2.774,2.071,3.704,3.186c0.929,1.115,1.724,2.523,2.39,4.221
	c0.663,1.7,0.995,3.584,0.995,5.655c0,4.832-1.421,8.734-4.26,11.707c-2.842,2.974-6.651,4.858-11.429,5.655v2.31
	c0,0.53-0.319,1.022-0.956,1.473c-0.637,0.451-1.328,0.677-2.071,0.677c-0.849,0-1.567-0.213-2.15-0.637
	c-0.585-0.426-0.877-0.93-0.877-1.513v-1.991c-4.726-0.16-8.8-1.274-12.225-3.345C313.549,522.62,311.837,520.284,311.837,517.682z
	 M324.898,486.223c0,1.912,1.699,3.584,5.097,5.018v-9.478C326.597,482.453,324.898,483.94,324.898,486.223z M334.456,516.646
	c3.238-0.743,4.858-2.415,4.858-5.017c0-2.23-1.62-4.114-4.858-5.654V516.646z"/>
<g>
	<path style="fill:#0467B4;" d="M411.511,388.82h-99.637c-4.143,0-7.5-3.358-7.5-7.5s3.357-7.5,7.5-7.5h99.637
		c4.143,0,7.5,3.358,7.5,7.5S415.653,388.82,411.511,388.82z"/>
	<path style="fill:#0467B4;" d="M411.511,435.952h-99.637c-4.143,0-7.5-3.358-7.5-7.5s3.357-7.5,7.5-7.5h99.637
		c4.143,0,7.5,3.358,7.5,7.5S415.653,435.952,411.511,435.952z"/>
</g>
<g>
	<path style="fill:#0467B4;" d="M411.511,519.499h-32.469c-4.143,0-7.5-3.358-7.5-7.5s3.357-7.5,7.5-7.5h32.469
		c4.143,0,7.5,3.358,7.5,7.5S415.653,519.499,411.511,519.499z"/>
	<path style="fill:#0467B4;" d="M411.511,487.379h-32.469c-4.143,0-7.5-3.358-7.5-7.5s3.357-7.5,7.5-7.5h32.469
		c4.143,0,7.5,3.358,7.5,7.5S415.653,487.379,411.511,487.379z"/>
</g>
<path style="fill:#FFFFFF;" d="M57.501,303.139l17.81,17.81c8.417,8.417,8.417,22.07,0,30.488s-22.07,8.417-30.488,0l-17.81-17.81
	L57.501,303.139z"/>
<path style="fill:#1F73B4;" d="M236.515,393.596l-3.998-36.063c-0.002-0.018-0.004-0.036-0.006-0.054l-0.008-0.072
	c-0.002-0.016-0.007-0.03-0.009-0.046c-0.048-0.409-0.126-0.815-0.241-1.214c-0.001-0.005-0.002-0.01-0.004-0.014
	c-0.107-0.369-0.251-0.728-0.416-1.08c-0.025-0.054-0.048-0.108-0.075-0.161c-0.16-0.32-0.344-0.63-0.552-0.929
	c-0.046-0.066-0.095-0.13-0.143-0.194c-0.2-0.268-0.414-0.527-0.654-0.773c-0.042-0.043-0.084-0.084-0.126-0.126
	c-0.238-0.232-0.489-0.44-0.748-0.633c-0.079-0.059-0.156-0.118-0.237-0.174c-0.282-0.195-0.574-0.368-0.875-0.52
	c-0.083-0.042-0.169-0.079-0.254-0.117c-0.31-0.142-0.626-0.268-0.949-0.366c-0.071-0.021-0.143-0.037-0.215-0.056
	c-0.314-0.084-0.632-0.146-0.952-0.189c-0.06-0.008-0.117-0.029-0.178-0.035l-36.189-4.012c-4.116-0.461-7.825,2.511-8.28,6.628
	c-0.457,4.117,2.511,7.824,6.628,8.28l20.699,2.295l-49.734,49.822l-47.086-43.761c-2.58-2.398-6.48-2.678-9.376-0.672
	l-55.606,38.515c-3.405,2.358-4.254,7.031-1.895,10.436c2.358,3.405,7.03,4.252,10.436,1.895l50.647-35.081l47.969,44.582
	c1.442,1.34,3.274,2.006,5.105,2.006c1.925,0,3.847-0.737,5.309-2.201l54.815-54.912l2.289,20.649
	c0.425,3.837,3.673,6.675,7.445,6.674c0.275,0,0.555-0.015,0.835-0.046C234.004,401.42,236.972,397.712,236.515,393.596z"/>
</svg>
