<?xml version="1.0" encoding="iso-8859-1"?>
<!-- Generator: Adobe Illustrator 21.0.0, SVG Export Plug-In . SVG Version: 6.00 Build 0)  -->
<svg version="1.1" id="Capa_1" xmlns="http://www.w3.org/2000/svg" xmlns:xlink="http://www.w3.org/1999/xlink" x="0px" y="0px"
	 viewBox="-49 141 512 512" style="enable-background:new -49 141 512 512;" xml:space="preserve">
<path style="fill:#FFE17D;" d="M380.419,578.677H83.129c-4.561,0-8.258-3.697-8.258-8.258v-297.29c0-4.561,3.697-8.258,8.258-8.258
	h297.29c4.561,0,8.258,3.697,8.258,8.258v297.29C388.677,574.98,384.98,578.677,380.419,578.677z"/>
<path style="fill:#FFD164;" d="M281.323,553.903c-100.338,0-181.677-81.34-181.677-181.677V264.871H83.13
	c-4.561,0-8.258,3.697-8.258,8.258v297.29c0,4.561,3.697,8.258,8.258,8.258h297.29c4.561,0,8.258-3.697,8.258-8.258v-16.516H281.323
	z"/>
<path style="fill:#C0BCC1;" d="M433.387,608.29l-15.101-15.097c-9.359-9.363-21.802-14.516-35.032-14.516H91.387v33.032h291.866
	c4.343,0,8.601,1.766,11.677,4.839l15.101,15.097c3.226,3.226,7.452,4.839,11.677,4.839s8.456-1.613,11.681-4.839
	C439.838,625.194,439.838,614.734,433.387,608.29z"/>
<path style="fill:#AEA8AF;" d="M394.926,616.544l15.105,15.101c3.226,3.226,7.452,4.839,11.677,4.839s8.453-1.612,11.679-4.837
	L404.19,602.45c-4.646-4.646-10.947-7.256-17.518-7.256H91.387v16.516h291.866C387.632,611.71,391.83,613.449,394.926,616.544z"/>
<path style="fill:#C0BCC1;" d="M50.097,545.645H33.581V220.746c0-6.613-2.581-12.835-7.258-17.52L38,191.548
	c7.798,7.806,12.097,18.173,12.097,29.198V545.645z"/>
<circle style="fill:#6F6571;" cx="41.84" cy="595.19" r="57.806"/>
<path style="fill:none;stroke:#464646;stroke-width:16;stroke-linecap:round;stroke-linejoin:round;stroke-miterlimit:10;" d="
	M8.806,157.516"/>
<circle style="fill:#C9C6CA;" cx="41.84" cy="595.19" r="37.16"/>
<path style="fill:#A0CEEA;" d="M198.741,264.871v90.839c0,4.561,3.697,8.258,8.258,8.258h49.548c4.561,0,8.258-3.697,8.258-8.258
	v-90.839H198.741z"/>
<path style="fill:#FFF6D8;" d="M198.742,520.871h-66.065c-4.565,0-8.258-3.698-8.258-8.258c0-4.56,3.694-8.258,8.258-8.258h66.065
	c4.565,0,8.258,3.698,8.258,8.258C207,517.173,203.306,520.871,198.742,520.871z"/>
<path style="fill:#FFFFFF;" d="M231.774,487.839h-99.097c-4.565,0-8.258-3.698-8.258-8.258s3.694-8.258,8.258-8.258h99.097
	c4.565,0,8.258,3.698,8.258,8.258S236.339,487.839,231.774,487.839z"/>
<circle style="fill:#AEA8AF;" cx="41.84" cy="595.19" r="16.516"/>
<path style="fill:#867E88;" d="M17.065,205.648l-36.453-36.453c-6.45-6.45-6.45-16.907,0-23.357l0,0c6.45-6.45,16.907-6.45,23.357,0
	l36.453,36.452c6.45,6.45,6.45,16.907,0,23.357l0,0C33.972,212.098,23.515,212.098,17.065,205.648z"/>
<path style="fill:#9C969E;" d="M3.969,145.837c-0.422-0.422-0.902-0.741-1.356-1.108c-0.454,0.367-0.934,0.686-1.356,1.108H1.256
	c-6.45,6.45-6.45,16.908,0,23.357l36.454,36.454c0.422,0.422,0.902,0.741,1.356,1.108c0.454-0.367,0.934-0.686,1.356-1.108h0.001
	c6.45-6.45,6.45-16.907,0-23.357L3.969,145.837z"/>
</svg>
