<?xml version="1.0" encoding="UTF-8" standalone="no"?>
<!-- Created with Inkscape (http://www.inkscape.org/) -->

<svg
   xmlns:dc="http://purl.org/dc/elements/1.1/"
   xmlns:cc="http://creativecommons.org/ns#"
   xmlns:rdf="http://www.w3.org/1999/02/22-rdf-syntax-ns#"
   xmlns:svg="http://www.w3.org/2000/svg"
   xmlns="http://www.w3.org/2000/svg"
   xmlns:sodipodi="http://sodipodi.sourceforge.net/DTD/sodipodi-0.dtd"
   xmlns:inkscape="http://www.inkscape.org/namespaces/inkscape"
   version="1.1"
   width="1000"
   height="306.33701"
   id="svg3010">
  <path
     d="m 911.53755,295.60486 -40.97285,-45.95348 -40.59787,45.95348 h -85.40688 l 83.49709,-93.81532 -83.49709,-93.83337 h 88.09166 l 41.35892,45.57291 39.82287,-45.57291 h 85.02622 L 915.75844,201.40348 1000,295.60486 h -88.46245"
     id="path16"
     style="fill:#ff6600;fill-opacity:1;fill-rule:nonzero;stroke:none;stroke-width:3.11791921" />
  <path
     d="M 580.4783,295.60486 V 3.4343262e-4 H 744.55995 V 65.893073 h -94.58199 v 42.063097 h 94.58199 v 63.3954 h -94.58199 v 58.18842 h 94.58199 v 66.06487 H 580.4783"
     id="path18"
     style="fill:#ff6600;fill-opacity:1;fill-rule:nonzero;stroke:none;stroke-width:3.11791921" />
  <path
     d="M 511.2661,3.4343262e-4 V 120.97722 h -0.75965 c -15.3266,-17.61138 -34.47277,-23.736467 -56.68558,-23.736467 -45.5021,0 -79.78038,30.936587 -91.80834,71.833057 -13.72664,-45.05905 -49.11609,-72.673397 -101.5863,-72.673397 -42.61594,0 -76.25947,19.123977 -93.82642,50.293847 V 107.95617 H 78.517873 V 65.893073 H 174.64575 V 3.4343262e-4 H 0 V 295.60486 H 78.517873 V 171.35157 H 156.7788 c -2.33199,9.12653 -3.58062,18.9031 -3.58062,29.21712 0,61.65928 47.10908,104.92665 107.22805,104.92665 50.54936,0 83.87209,-23.73513 101.48908,-67.00384 h -67.28713 c -9.10298,13.00575 -16.00453,16.85719 -34.20201,16.85719 -21.09893,0 -39.29642,-18.40305 -39.29642,-40.22973 h 137.01456 c 5.94042,48.98129 44.09789,91.21803 96.45289,91.21803 22.58094,0 43.26737,-11.10572 55.90919,-29.86714 h 0.75968 v 19.13501 h 69.21216 V 3.4343262e-4 H 511.26607 Z M 223.31725,172.23079 c 4.36674,-18.77112 18.92811,-31.04356 37.10892,-31.04356 20.01417,0 33.83382,11.89184 37.46862,31.04356 1.53474,0 -74.57754,0 -74.57754,0 z m 245.93991,78.37062 c -25.51013,0 -41.36871,-23.77395 -41.36871,-48.59514 0,-26.53103 13.79602,-52.04668 41.36871,-52.04668 28.59765,0 39.98535,25.51565 39.98535,52.04668 0,25.15727 -12.07243,48.59514 -39.98535,48.59514"
     id="path20"
     style="fill:#4d148c;fill-opacity:1;fill-rule:nonzero;stroke:none;stroke-width:3.11791921" />
</svg>