<?xml version="1.0" encoding="iso-8859-1"?>
<!-- Generator: Adobe Illustrator 21.0.0, SVG Export Plug-In . SVG Version: 6.00 Build 0)  -->
<svg version="1.1" id="Layer_1" xmlns="http://www.w3.org/2000/svg" xmlns:xlink="http://www.w3.org/1999/xlink" x="0px" y="0px"
	 viewBox="-49 141 512 512" style="enable-background:new -49 141 512 512;" xml:space="preserve">
<g>
	<path style="fill:#C69666;" d="M304.103,326.379H145.207V176.31c0-4.873,3.955-8.828,8.828-8.828h141.241
		c4.873,0,8.828,3.955,8.828,8.828V326.379z"/>
	<path style="fill:#FBD077;" d="M-49,520.586v69.941c0,5.252,4.255,9.507,9.507,9.507h34.631c0-24.373,19.765-44.138,44.138-44.138
		s44.138,19.765,44.138,44.138h247.172c0-24.373,19.765-44.138,44.138-44.138c24.373,0,44.138,19.765,44.138,44.138h34.639
		c5.244,0,9.498-4.255,9.498-9.507v-69.941H-49z"/>
	<path style="fill:#E2B566;" d="M463,520.586H-49v-25.812c0-5.244,4.255-9.499,9.507-9.499h492.994c5.244,0,9.498,4.255,9.498,9.499
		V520.586z"/>
	<path style="fill:#FBD077;" d="M-35.954,161.369L-35.954,161.369c-7.265,4.846-9.366,14.592-4.74,21.998l24.223,38.744
		c7.583,12.138,11.608,26.165,11.608,40.483v222.685h35.31V254.985c0-15.078-4.467-29.82-12.826-42.372l-31.179-46.769
		C-18.51,158.429-28.53,156.425-35.954,161.369"/>
	<path style="fill:#896745;" d="M224.655,485.276H65.759V335.207c0-4.873,3.955-8.828,8.828-8.828h150.069V485.276z"/>
	<polygon style="fill:#E8D5B2;" points="118.724,379.345 171.69,379.345 171.69,326.379 118.724,326.379 	"/>
	<path style="fill:#A98258;" d="M383.552,485.276H224.655V326.379h150.069c4.873,0,8.828,3.955,8.828,8.828V485.276z"/>
	<g>
		<polygon style="fill:#E8D5B2;" points="277.621,379.345 330.586,379.345 330.586,326.379 277.621,326.379 		"/>
		<polygon style="fill:#E8D5B2;" points="198.172,220.448 251.138,220.448 251.138,167.483 198.172,167.483 		"/>
	</g>
	<g>
		<path style="fill:#605F5E;" d="M83.414,591.207c0-24.373-19.765-44.138-44.138-44.138s-44.138,19.765-44.138,44.138
			s19.765,44.138,44.138,44.138S83.414,615.58,83.414,591.207"/>
		<path style="fill:#605F5E;" d="M418.862,591.207c0-24.373-19.765-44.138-44.138-44.138c-24.373,0-44.138,19.765-44.138,44.138
			s19.765,44.138,44.138,44.138C399.097,635.345,418.862,615.58,418.862,591.207"/>
	</g>
</g>
</svg>
