<?xml version="1.0" encoding="UTF-8"?>
<svg id="Layer_1" data-name="Layer 1" xmlns="http://www.w3.org/2000/svg" version="1.1" viewBox="0 0 64 64">
  <defs>
    <style>
      .cls-1 {
        fill: #98c900;
      }

      .cls-1, .cls-2, .cls-3, .cls-4 {
        stroke-width: 0px;
      }

      .cls-2 {
        fill: #edff9c;
      }

      .cls-3 {
        fill: #fff;
        opacity: .3;
      }

      .cls-3, .cls-4 {
        isolation: isolate;
      }

      .cls-4 {
        fill: #000;
        opacity: .2;
      }

      .cls-5 {
        fill: none;
        stroke: #fff;
        stroke-linecap: round;
        stroke-linejoin: round;
        stroke-width: 3px;
      }
    </style>
  </defs>
  <path class="cls-1" d="M20,10v28h24V10c0-1.7-1.3-3-3-3h-18c-1.7,0-3,1.3-3,3Z"/>
  <path class="cls-1" d="M30.4,54.3l-18.7-19.5c-1.4-1.4-.4-3.8,1.6-3.8h37.4c2,0,3,2.4,1.6,3.8l-18.7,19.5c-.9.9-2.4.9-3.3,0Z"/>
  <path class="cls-3" d="M19.7,36h.3c2.8,0,5-2.2,5-5V14c0-2.7-2.1-4.9-4.8-5-.1.3-.2.6-.2,1v21h-6.7c-2,0-3,2.4-1.6,3.8l13.3,13.9c2-1.9,2.1-5.1.1-7.1l-5.4-5.6Z"/>
  <path class="cls-4" d="M33.6,54.3l18.7-19.5c.5-.5.7-1.1.6-1.7-2-1.4-4.7-1.2-6.5.6l-13.2,13.8c-1.9,2-1.8,5.1.1,7,0,0,.2-.1.3-.2Z"/>
  <path class="cls-2" d="M32.1,37.2c-.4,0-.7-.1-1-.4-.3-.3-.4-.6-.4-.9v-1.3c-.9,0-1.6-.2-2.3-.4-.7-.2-1.2-.4-1.7-.7-.4-.2-.7-.5-.8-.9-.1-.4,0-.7,0-1.1.1-.4.4-.6.7-.8.3-.2.7-.1,1.2.1.4.2.9.4,1.5.6.6.2,1.4.3,2.3.3s1.8-.2,2.2-.5c.4-.3.6-.7.6-1.2s-.1-.7-.4-1c-.3-.3-.8-.5-1.6-.6l-2.5-.5c-2.7-.6-4.1-2-4.1-4.3s.4-2.3,1.3-3.2c.8-.9,2-1.4,3.4-1.6v-1.4c0-.4.1-.7.4-.9.3-.3.6-.4,1-.4s.7.1.9.4c.3.3.4.6.4.9v1.3c.5,0,1.1.2,1.7.4.6.2,1.1.4,1.5.8.4.2.6.5.7.9,0,.3,0,.7,0,1-.1.3-.4.5-.7.7-.3.1-.7,0-1.2-.2-.4-.2-.8-.4-1.3-.5-.5-.1-1.1-.2-1.8-.2s-1.5.2-2,.5c-.5.4-.7.8-.7,1.4s.1.7.4,1c.3.3.8.5,1.5.6l2.5.5c1.4.3,2.5.8,3.1,1.5.7.7,1,1.6,1,2.7s-.4,2.3-1.3,3.1c-.9.8-2,1.3-3.3,1.6v1.4c0,.4-.1.7-.4.9-.2.3-.6.4-.9.4Z"/>
  <line class="cls-5" x1="23.5" y1="13.5" x2="23.5" y2="18.5"/>
</svg>