<?xml version="1.0" encoding="UTF-8"?>
<svg id="Layer_1" data-name="Layer 1" xmlns="http://www.w3.org/2000/svg" version="1.1" viewBox="0 0 64 64">
  <defs>
    <style>
      .cls-1 {
        fill: #3cc;
      }

      .cls-1, .cls-2, .cls-3, .cls-4, .cls-5, .cls-6 {
        stroke-width: 0px;
      }

      .cls-2 {
        fill: #008aa9;
      }

      .cls-3 {
        fill: #fff;
        opacity: .3;
      }

      .cls-3, .cls-5 {
        isolation: isolate;
      }

      .cls-4 {
        fill: #cff;
      }

      .cls-5 {
        fill: #000;
        opacity: .2;
      }

      .cls-6 {
        fill: #37d0ee;
      }

      .cls-7 {
        fill: none;
        stroke: #fff;
        stroke-linecap: round;
        stroke-linejoin: round;
        stroke-width: 3px;
      }
    </style>
  </defs>
  <path class="cls-4" d="M45.5,54h-29.5V12c0-2.2,1.8-4,4-4h28c2.2,0,4,1.8,4,4v35.5c0,3.6-2.9,6.5-6.5,6.5Z"/>
  <path class="cls-1" d="M41,48.6v-3.6c0-1.7-1.3-3-3-3H13c-1.7,0-3,1.3-3,3v3.5c0,3,2.5,5.5,5.5,5.5h31.1v-6.5l-5.6,1Z"/>
  <circle class="cls-6" cx="46.5" cy="48.5" r="5.5"/>
  <path class="cls-5" d="M47,27v17c0,2.8,2.2,5,5,5,0-.2,0-.3,0-.5s0-.3,0-.5c0-.2,0-.3,0-.5v-25.5c-2.8,0-5,2.2-5,5Z"/>
  <path class="cls-3" d="M16,12v20c2.8,0,5-2.2,5-5v-14h5c2.8,0,5-2.2,5-5h-11c-2.2,0-4,1.8-4,4Z"/>
  <path class="cls-2" d="M45,18h-14c-1.1,0-2-.9-2-2h0c0-1.1.9-2,2-2h14c1.1,0,2,.9,2,2h0c0,1.1-.9,2-2,2Z"/>
  <path class="cls-2" d="M45,27h-14c-1.1,0-2-.9-2-2h0c0-1.1.9-2,2-2h14c1.1,0,2,.9,2,2h0c0,1.1-.9,2-2,2Z"/>
  <path class="cls-2" d="M45,36h-14c-1.1,0-2-.9-2-2h0c0-1.1.9-2,2-2h14c1.1,0,2,.9,2,2h0c0,1.1-.9,2-2,2Z"/>
  <circle class="cls-2" cx="23" cy="16" r="2"/>
  <circle class="cls-2" cx="23" cy="25" r="2"/>
  <circle class="cls-2" cx="23" cy="34" r="2"/>
  <path class="cls-7" d="M19.5,15.5v-2c0-1.1.9-2,2-2h1"/>
</svg>