<?xml version="1.0" encoding="utf-8"?>
<!-- Generator: Adobe Illustrator 24.2.0, SVG Export Plug-In . SVG Version: 6.00 Build 0)  -->
<svg version="1.1" id="startrack-logo" xmlns="http://www.w3.org/2000/svg" xmlns:xlink="http://www.w3.org/1999/xlink" x="0px"
	 y="0px" width="634.4px" height="139.2px" viewBox="0 0 634.4 139.2" style="enable-background:new 0 0 634.4 139.2;"
	 xml:space="preserve">
<style type="text/css">
	.st0{fill:#DA1E2F;}
	.st1{fill:#00ADF1;}
	.st2{fill:#003769;}
</style>
<path class="st0" d="M0,69.4c0,29.7,18.7,55.1,44.7,65.1V4.3C18.7,14.4,0,39.7,0,69.4 M69.4,0c-2,0-3.7,0-5.7,0.3v5h0.3
	c26.4,0.3,47.7,20.4,47.7,45.1c-0.3,24.7-21.7,44.4-48.1,44.4v44.1c2,0,3.7,0.3,5.7,0.3c38.4,0,69.4-31,69.4-69.4
	C138.9,31,107.8,0,69.4,0"/>
<g>
	<g>
		<path class="st1" d="M512,41.6h-15l-15.2,22c4.6,1,9.2,2.2,13.4,3.2l4.8-7.2l2,17.2c-46.9-13-83.6-13.4-83.6-13.4l-9.2,34h15.4
			l6-21.8c1.6,0.2,3.4,0.4,5,0.4l8.8,21.4h31L488,79.6c5.8,2.6,11,5.4,15.6,8.4l1.2,9.4H521L512,41.6z M459.4,95.8L459.4,95.8
			l-8-17.2c5.8-1.6,10-4.2,12.6-7.6c3.6,1,7,2,10.2,3.2L459.4,95.8z"/>
		<polygon class="st1" points="382,62.4 372.6,97.2 388,97.2 397.4,62.4 		"/>
		<path class="st1" d="M416,55l3.4-13H371l-3.6,13c7.6-0.4,15.4-0.6,23.4-0.6C399.4,54.4,407.8,54.6,416,55z"/>
		<path class="st1" d="M468.2,59c0-4.4-1.4-8.4-4.2-11.4c-3.8-3.8-9.8-5.8-19-5.8h-20.8l-3.6,13.4c16.8,1,33,3,47.8,5.6
			C468.2,60.2,468.2,59.6,468.2,59L468.2,59z M559.2,78.8c-3.6,3.6-7,5.6-11.8,5.6c-6.4,0-11-4.4-11-11.4c0-9.6,7.4-18.2,16.6-18.2
			c5.4,0,9,2.6,11.2,7.2l13.2-7.2c-3.4-8.6-11.2-14-22.4-14c-21.2,0-34.6,17-34.6,33.4V75c0,3.2,0.6,6.2,1.8,8.8
			c3.6,9.2,12.8,14.6,24.4,14.6h1.8c2.6-0.2,5.2-0.6,7.4-1.2c5.8-1.6,10.4-5,14-9.2L559.2,78.8z M634.4,41.8h-17.8l-24.2,27l7.2-27
			h-15.4l-14.8,55.6h15.4l7.6-28.6l14,28.6H623l-14-28.6C609,68.8,634.4,41.8,634.4,41.8z"/>
	</g>
	<g>
		<path class="st2" d="M361.2,47.8c-3.8-3.8-9.8-5.8-19-5.8h-20.8l-5,18.4c15.2-2.6,31.6-4.4,48.8-5.2
			C364.4,52.2,363.2,49.8,361.2,47.8z"/>
		<path class="st2" d="M263.4,55.4l3.4-13.4h-48.4l-3.6,13.4h16.6l-11.4,42h15.4l11.2-42C246.6,55.4,263.4,55.4,263.4,55.4z
			 M194.4,53.8c6.2-0.8,12.4,0.6,15.8,1.6l3.4-12.4c-2.8-1-8.4-2.2-16.6-2c-13.6,0.2-23.6,7.8-23.6,18.8c0,8.2,5.6,12,14.4,15.2
			c7.8,3,9.2,4.2,9.2,6.2c0,2.6-2.6,4.2-6.2,4.2c-1,0-2,0-3-0.2h-0.2c-0.6,0-1.2-0.2-1.8-0.4c-5.2-1-10-3.2-14-6l-3.6,13
			c5.6,4.2,13,6.4,21.6,6.4c13.8,0,23.6-7.8,23.6-19.2c0-8.4-5.8-12.2-14.4-15.4c-7.6-3-9.2-3.8-9.2-6
			C189.6,55.8,191.4,54.2,194.4,53.8z"/>
		<path class="st2" d="M270.6,79.8c0,0,32.1-13.3,94.4-16.6l0,0c-1.4,7.2-6.6,12.8-16.2,15.6l8.6,18.6h-16.2L333,77.6
			c-2,0.2-4.2,0.4-6.2,0.8l-5.2,19h-15.4L313,72c-4.2,1.2-8.2,2.4-12.2,3.6l3.4,21.8H288l-2-16.2c-11,4.6-20.4,10.2-27.4,16.2H242
			l38.6-55.8h15l3.8,22.2c-5,1-10,2.4-14.6,3.6l-1-7.8L270.6,79.8z"/>
	</g>
</g>
</svg>
