<?xml version="1.0" encoding="UTF-8"?>
<svg id="Layer_2" data-name="Layer 2" xmlns="http://www.w3.org/2000/svg" version="1.1" viewBox="0 0 1366 768">
  <defs>
    <style>
      .cls-1 {
        fill: #98c900;
      }

      .cls-1, .cls-2, .cls-3, .cls-4, .cls-5, .cls-6, .cls-7, .cls-8, .cls-9, .cls-10, .cls-11, .cls-12, .cls-13, .cls-14, .cls-15, .cls-16, .cls-17, .cls-18, .cls-19, .cls-20, .cls-21, .cls-22, .cls-23, .cls-24, .cls-25, .cls-26, .cls-27, .cls-28, .cls-29, .cls-30 {
        stroke-width: 0px;
      }

      .cls-2 {
        fill: #ffce29;
      }

      .cls-3, .cls-31 {
        fill: #63c;
      }

      .cls-4 {
        fill: #3cc;
      }

      .cls-31 {
        stroke-miterlimit: 10;
      }

      .cls-31, .cls-32 {
        stroke: #63c;
      }

      .cls-5 {
        fill: #f95f71;
      }

      .cls-6, .cls-22 {
        fill: #000;
      }

      .cls-7 {
        fill: #05bbfd;
      }

      .cls-8 {
        fill: #008aa9;
      }

      .cls-9 {
        fill: #60c;
      }

      .cls-33 {
        opacity: 1;
      }

      .cls-10 {
        fill: #f7f7f7;
      }

      .cls-11, .cls-32, .cls-34 {
        fill: none;
      }

      .cls-12 {
        fill: #edff9c;
      }

      .cls-13 {
        fill: #f78696;
      }

      .cls-14 {
        fill: #080808;
      }

      .cls-15 {
        fill: #f93e4c;
      }

      .cls-16 {
        fill: #fa141d;
      }

      .cls-17 {
        fill: #f4909f;
      }

      .cls-18 {
        opacity: .3;
      }

      .cls-18, .cls-22 {
        isolation: isolate;
      }

      .cls-18, .cls-28 {
        fill: #fff;
      }

      .cls-19 {
        fill: #e4615b;
      }

      .cls-20 {
        fill: #cc1b39;
      }

      .cls-32, .cls-34 {
        stroke-linecap: round;
        stroke-linejoin: round;
        stroke-width: 3px;
      }

      .cls-21 {
        fill: #cff;
      }

      .cls-22 {
        opacity: .2;
      }

      .cls-23 {
        fill: #630;
      }

      .cls-24 {
        fill: #9c34c2;
      }

      .cls-25 {
        fill: #f9c7c7;
      }

      .cls-26 {
        fill: #37d0ee;
      }

      .cls-27 {
        fill: #ffa1ac;
      }

      .cls-34 {
        stroke: #fff;
      }

      .cls-29 {
        fill: #f76b7f;
      }

      .cls-30 {
        fill: #fb141d;
      }
    </style>
  </defs>
  <polygon class="cls-6" points="196 193.5 176.2 193.5 126.5 88.5 196 193.5"/>
  <path class="cls-30" d="M126.5,88.5H52.7c-10.7,0-19.4,8.7-19.4,19.4v67.2c0,10.2,8.3,18.5,18.5,18.5h124.4l-49.7-105Z"/>
  <polygon class="cls-10" points="463.5 345.5 391.5 450.5 363.6 345.5 463.5 345.5"/>
  <polygon class="cls-10" points="363.6 345.5 196.2 345.5 126.4 450.5 391.5 450.5 363.6 345.5"/>
  <polygon class="cls-6" points="196.2 345.5 175.8 345.5 126.4 450.5 196.2 345.5"/>
  <path class="cls-30" d="M175.8,345.5H53c-10.1,0-18.4,8.2-18.5,18.3l-.9,67.3c-.1,10.7,8.5,19.4,19.2,19.4h73.7l49.3-105Z"/>
  <polygon class="cls-10" points="499.5 539.5 363.5 566.5 391.5 671.5 499.5 539.5"/>
  <polygon class="cls-10" points="363.5 566.5 196.2 566.5 126.4 671.5 391.5 671.5 363.5 566.5"/>
  <polygon class="cls-6" points="196.2 566.5 175.8 566.5 126.4 671.5 196.2 566.5"/>
  <path class="cls-30" d="M175.8,566.5H53.2c-10.8,0-19.6,8.8-19.6,19.6v65.7c0,10.8,8.8,19.6,19.6,19.6h73.2l49.3-105Z"/>
  <polygon class="cls-10" points="849.5 540.5 985.5 567.5 957.5 670.5 849.5 540.5"/>
  <polygon class="cls-10" points="985.5 567.5 1153.3 567.5 1221.3 670.5 957.5 670.5 985.5 567.5"/>
  <polygon class="cls-6" points="1153.3 567.5 1173 567.5 1221.3 670.5 1153.3 567.5"/>
  <path class="cls-30" d="M1173,567.5h125.6c8.7,0,15.8,7.1,16.9,15.8v71.5c-1.2,8.7-8.2,15.8-16.9,15.8h-77.2l-48.3-103Z"/>
  <polygon class="cls-10" points="885.5 345.5 985.5 345.5 957.5 450.7 885.5 345.5"/>
  <polygon class="cls-10" points="957.5 450.7 1221.3 450.7 1153.3 345.5 985.5 345.5 957.5 450.7"/>
  <polygon class="cls-6" points="1153.3 345.5 1173 345.5 1221.3 450.7 1153.3 345.5"/>
  <path class="cls-30" d="M1221.3,450.7h75.1c10.5,0,19.1-8.5,19.1-19.1v-67.6c0-10.2-8.3-18.5-18.5-18.5h-124l48.3,105.2Z"/>
  <polygon class="cls-10" points="957.5 89.3 857.5 269.5 863.5 277.5 985.5 193.7 957.5 89.3"/>
  <polygon class="cls-10" points="957.5 89.3 1221.3 88.3 1153.3 194 985.5 193.7 957.5 89.3"/>
  <polygon class="cls-6" points="1153.3 194 1173 194 1221.3 88.3 1153.3 194"/>
  <path class="cls-30" d="M1173,194l123.3-1.2c10.6,0,19.2-8.7,19.2-19.4v-66.4c0-10.4-8.4-18.8-18.8-18.8h-75.4l-48.3,105.7Z"/>
  <g>
    <path class="cls-14" d="M754.4,557.6c2.8-.2,4.9.4,4.7,3.7-.1,3.5-2.7,3.3-5.1,3.3-2.5,0-4.4-.5-4.4-3.6,0-3.4,2.3-3.7,4.8-3.5h0Z"/>
    <path class="cls-6" d="M786.1,574.9c-4.3-2.1-9.2-2.3-14-2-1.1,0-2.2.3-3.3.5-7.8,1.7-11.7,7.3-10.8,15.9.7,7.5,5.7,11.9,13.4,11.9,1.7,0,3.6,0,5.2-.4,3.4-.9,3.1.9,2.5,3-.6,1.9-1.9,2.9-3.9,3-2.9.3-5.5,0-8.1-2-2.3-1.8-5.8-2.2-7.7,0-1.6,1.8.2,4.2,2.1,5.6,4.8,3.7,19,3.3,23.6-.6,2.6-2.2,3.6-5.2,3.6-8.5,0-3.7,0-7.3,0-10.9s.2-2,0-2.8c-1.3-4.2,3.2-9.9-2.6-12.8h0ZM779.4,586.7v2.8c0,2.5.7,5.2-3.4,5.3-3.7.1-7.3.3-8.2-4.3-.7-3.7-1.2-7.8,2.7-10.3,2.4-1.5,5.6-1.5,7.8-.1,2.4,1.5.4,4.7,1.1,6.7h0Z"/>
    <path class="cls-6" d="M824.3,583.9c-.4-7.2-5.1-11.2-12.2-11-3.1,0-5.8,1.4-9,3.6,0-3.2-.2-5.6,0-7.9.5-4.1-2-4.1-5-4.2-3.1,0-4.5.6-4.5,4.2.2,10.3.2,20.6,0,30.9,0,3.6,1.4,4.2,4.5,4.1,3,0,5.3,0,5-4.2-.3-4.6-.2-9.2,0-13.8.1-4.4,3.3-5.9,7-6.2,3.7-.3,4.9,2.5,5,5.6.2,5.1.3,10.1.2,15.2-.1,3.4,1.9,3.5,4.3,3.3,2.2-.2,5.1,1,5-3.1-.2-5.5,0-11.1-.2-16.6h0Z"/>
    <path class="cls-6" d="M734.9,575c-6-3.1-12.3-3.1-18.3.1-5.5,3-6.3,8.4-6.3,14,0,6,1.8,11.2,7.8,13.5,6.8,2.5,13.7,2.5,20.2-1.4.6-.4,1.2-1.1,1.5-1.8,1.2-2.7,1.1-4.6-2.7-4.6-2.1,0-3.9.4-5.8,1.7-3.8,2.7-8.8,2-10.6-1.1-1-1.9-1.6-3.7,1.8-3.6,2.5,0,5.1,0,7.6,0,2.9,0,5.7,0,8.6,0,1.4,0,2.4-.3,2.8-1.9,1.2-5.1-1.8-12.4-6.5-14.8h0ZM728.4,586.2c-1.1,0-2.3.2-3.3,0-1.8-.5-4.9,1.8-5.1-1.8-.2-3.6,2.3-5.2,5.8-5.4,2.2,0,4.1.6,5.2,2.6,1.8,3,.9,4.5-2.6,4.6Z"/>
    <path class="cls-6" d="M625.9,586c-.3-11.5-8.6-16.3-18.9-11.1-.9.5-1.5,1.8-2.8-.1-1.8-2.7-5-1.4-7.5-1-2.6.4-1.4,3.1-1.5,4.8-.2,3.3,0,6.6,0,10s.2,7.3,0,10.9c-.3,3.5,1.3,4.3,4.4,4.2,3,0,5.3,0,5-4.2-.3-4.7-.3-9.5,0-14.2.2-4.1,3.4-5.5,6.9-5.8,3.7-.3,4.9,2.3,5,5.5.1,5.1.3,10.1.1,15.2-.1,3.8,2.3,3.5,4.7,3.4,2.4,0,4.9.5,4.7-3.4-.2-4.7,0-9.5-.1-14.2h0Z"/>
    <path class="cls-6" d="M650.7,587.1c-2.7-.8-5.5-1.4-8.3-2.1-2-.5-3.8-1.4-3.4-3.7.4-2.2,2.5-2.1,4.2-2.2,2.7-.2,4.8.9,7,2.3s5.9,2.1,7.3-.3c1.7-2.9-1-5.2-3.7-6.6-.8-.4-1.8-.7-2.7-.9-4.2-.8-8.5-1.1-12.8-.3-5.7,1.1-8.5,3.5-8.8,7.8-.4,4.9,1.7,7.6,7.4,9.5,3.2,1,6.4,1.7,9.6,2.6,1.4.4,3.1.8,2.9,2.6-.2,1.6-2,1.8-3.4,2.1-2.9.5-5.7.3-8.1-1.8-2.2-1.9-4.8-1.4-7.3-1-1.4.2-1.3,1.6-1.1,2.7.5,2.8,2.6,4.3,5.1,5.1,2.9,1,5.9,1.2,8.9,1.2,3.8,0,7.7-.1,11.1-2,4.4-2.4,5.5-7.6,2.4-11.3-1.7-2-4.1-3-6.5-3.7h0Z"/>
    <path class="cls-6" d="M538,564.9c-11.5,0-23-.2-34.6-.3-1.7,0-3.1.4-3.7,2.3-.4,4.3,1.9,5.6,5.8,5.2,1.3-.1,2.6.1,3.8,0,3.8-.6,5.3.6,5.1,4.8-.4,7.4,0,14.9-.2,22.3-.1,3.7,1.5,4.6,4.9,4.6,3.2,0,5.6-.2,5.4-4.5-.2-6.2,0-12.4,0-18.5s2.9-8.6,8.6-8.7c5.9,0,6.8-1.2,4.9-7.2h0Z"/>
    <path class="cls-6" d="M683.4,564.1c-4-.3-7.9-.6-11.9.3-5.8,1.3-8.3,3.8-8.8,9.6-.4,4.6,0,9.2,0,13.8h-.2v6.2c0,2.1,0,4.1,0,6.2,0,1.4,0,2.8,1.8,3.3,5.3,1.5,7.7-.4,7.4-6.2,0-.8,0-1.6,0-2.5.2-3-1.2-6.5.6-8.7,1.5-1.9,5.1-.4,7.7-.7.2,0,.3,0,.5,0,3,0,2.5-2.2,2.6-4,0-2-.2-3.5-2.8-3.3-1.4,0-2.9.2-4.3,0-1.5-.2-3.9,1.2-4.2-1.5-.3-2.7.7-5.1,3.7-5.8,2.3-.5,4.7-.4,7.1-.1,1.7.2,3.6.6,3.9-2.1.2-2.4-.3-4.1-3.1-4.3h0Z"/>
    <path class="cls-6" d="M845.4,597.6c-4.6.3-6.4-1.3-6.6-5.8,0-1.9.2-3.8,0-5.7-.4-3.6.5-5.4,4.6-4.8,1.9.2,4.6,1.1,4.7-2.7.1-3.8-2.3-3.7-4.7-3.4-4,.5-5.1-1.2-4.6-4.8.1-.9,0-1.9,0-2.8.2-3.8-2.5-2.9-4.6-2.9-2.1,0-4.7-.7-4.5,3,.2,4.4,0,8.9,0,13.3h.1c0,4.6-.2,9.2,0,13.8.4,5.8,3.8,9,9.4,9.4,2.2.2,4.4,0,6.7,0,2.4,0,3.8-.9,3.7-3.7,0-3.4-2.2-2.8-4.3-2.6h0Z"/>
    <path class="cls-6" d="M705.1,573.1c-2.2.3-4.3.9-6.3,2.1-1.1.7-1.6,1.3-2.7-.5-1.7-2.6-5-1.3-7.5-.9-2.3.3-1.4,2.8-1.5,4.4,0,3.3,0,6.7,0,10s.3,7.3,0,10.9c-.4,4.2,1.7,4.6,5.1,4.6,3.7.1,4.7-1.3,4.4-4.7-.3-3.1,0-6.3,0-9.5,0-7.2,2.1-9.5,9.2-9.2,3.3.1,4.6-.8,4.4-4.2-.2-3.9-2.6-3.3-5-3h0Z"/>
    <path class="cls-6" d="M555,573.1c-2,.4-4,1.1-5.9,1.8-1.3.5-2.1,1.8-3.6-.5-1.4-2.2-4.7-1.1-7.1-.7-2.4.4-1.5,2.8-1.5,4.4-.1,3.5,0,7,0,10.4s.2,6.7,0,10c-.3,3.7.6,5.3,4.8,5.3,4.2,0,4.7-1.8,4.5-5.2-.2-3,0-6,0-9,0-7.4,1.9-9.5,9.5-9.3,3.2,0,4.1-.9,4.1-4,0-3.8-2.3-3.7-4.8-3.1h0Z"/>
    <path class="cls-6" d="M754.4,589c0-3.5-.2-7,0-10.4.3-3.7-1.2-4.6-4.6-4.5-3.2,0-5,.3-4.8,4.3.3,7.1.3,14.2,0,21.3-.2,3.8,1.7,4,4.6,4,3.1,0,5.2-.3,4.9-4.3-.3-3.4,0-6.9,0-10.4h0Z"/>
    <path class="cls-6" d="M590,582.9c-.1-2.8-1.3-5.2-3.4-7.1-4.5-4-17.8-4.3-22.6-.6-1.8,1.4-2.9,3.2-2.3,5.3.7,2.3,2.9,1.2,4.5,1.4,1.7.2,3-.5,4.3-1.6,2.3-1.9,5-2,7.6-1.1,2.1.7,2.7,2.7,2.5,4.6-.2,2.2-2.2,1.3-3.4,1.4-4.1.2-8.3-.5-12.2,1.2-3.5,1.5-5.7,4-5.7,7.9,0,3.9,2,6.6,5.5,8.1,4.1,1.7,8.3,1.9,12.6.5,2-.6,3.4-1.3,5.9,0,4.5,2.2,7,.1,7-4.9v-6.2h-.2c0-3,0-6,0-9h0ZM579,596.6c-1.8.6-3.6,1.1-4.9,1.6-2.9-.2-5.3-.5-5.4-3.4,0-2.5,2-3.3,4.3-3.3s3.2,0,4.7,0c1.1,0,2.7-.7,3,1.2.3,1.6.2,3.2-1.8,3.8h0Z"/>
    <path class="cls-6" d="M652.3,613.9c-2.4,0-2.2,1.8-2.2,3.3v9c-2.8-4.3-4.8-7.3-6.6-10.4-1.3-2.3-3.4-2.2-5.4-1.8-2.3.4-1.5,2.4-1.6,3.9,0,3.8,0,7.6,0,11.4,0,1.6-.2,3.3,2.2,3.4,2.3,0,2.5-1.4,2.4-3.2,0-2.5,0-5,0-7.6.3-.1.6-.3.9-.4,1.7,2.8,3.7,5.4,4.9,8.4,1.2,3.1,3.5,2.9,5.8,2.7,2.7-.2,1.9-2.5,1.9-4.1,0-3.8,0-7.6,0-11.4,0-1.6.2-3.3-2.3-3.2h0Z"/>
    <path class="cls-16" d="M798.6,625.1c.1-8.5-1.2-10.8-6.7-11.2-8.1-.7-10.6,1.6-10.7,9.7,0,2.1,0,4.1,0,6.2,0,1.7.4,2.8,2.3,2.8s2.5-.7,2.3-2.3c-.4-3.1,1.5-3.2,3.8-3.1,2.1.1,4.7-.8,4.4,3-.2,1.9.9,2.5,2.7,2.4,1.7-.2,1.9-1.3,1.9-2.7,0-1.6,0-3.2,0-4.7h0ZM789.8,623.6c-2,0-4.1.5-3.9-2.6.2-2.9,1.6-3.7,4.2-3.7,2.8,0,4,1.3,3.9,4,0,3.6-2.8,1.9-4.3,2.3h0Z"/>
    <path class="cls-16" d="M777,623.5c2.7-2,3.5-4.2,2-6.9s-4.3-2.8-7.1-2.8c-9.5,0-9.5-.1-9.6,9.5v4.8c0,.5,0,1,0,1.4,0,1.5,0,2.9,2.1,3,2.2.1,2.5-1.1,2.7-3,.1-1.5-1.2-3.8,1.4-4.3,2.6-.6,4.1,1.2,5.2,3.2.2.3.4.5.5.8.5,2.8,2.8,4.1,4.8,2.9,2.4-1.5-.4-3.4-.8-5.1-.3-1.2-3-2.1-1.1-3.4h0ZM770.7,621.6c-1.5-.3-3.7.7-3.7-2.2,0-2.5,1.8-2.1,3.3-2.1,1.8,0,4.4-.5,4.7,1.9.2,2.6-2.4,2.2-4.3,2.4Z"/>
    <path class="cls-6" d="M520.8,621.1c-1.7-.4-4,0-4.9-2.2,0-.2.4-.9.7-1,2-.5,4.1-.6,6.1,0,.7.2,1.1,1.1,1.8,1.5,1.2.8,2.6.8,3.4-.3.7-1,0-2.2-.8-3-1.9-2-4.4-2.3-7.1-2.2-3.6.4-8.4-.7-8.9,4.7-.5,5,4.2,5,7.6,6.1,1.7.6,5.1,0,4.6,2.6-.4,2-3.6.7-5.6.9-.7,0-1.7-.3-2.2-.8-1.4-1.4-3.3-2.6-4.3-.7-1.1,2,.2,4.3,2.5,5.2,3.5,1.5,7.2,1,10.8.4,2.4-.4,3.4-2.1,3.9-4.2.8-3.8-1.1-5.5-7.5-7.1h0Z"/>
    <path class="cls-16" d="M734.8,620.9c-.2,0-.3,0-.5-.1-1.5-.5-4.4-.2-4.1-2.1.3-2.3,3.1-1,4.9-1.2,1.2-.2,2.1.5,2.9,1.3,1.2,1.2,2.8,1.6,3.7.2,1.2-1.6-.3-3-1.6-3.9-3.2-2.1-6.7-1.4-10.2-1.1-2.5.2-4.6,1.4-4.9,4.3-.3,2.9,1.6,4.4,4,5.2,2.3.7,4.6,1.2,6.9,1.8.9.2,2,.6,1.7,1.8-.2.9-1.1,1.1-1.9,1-2.3-.2-4.8.8-6.7-1.4-.9-1.1-2.2-1.5-3.4-.6-1.7,1.3-.3,2.6.3,3.7,1.6,3.2,4.7,2.7,7.2,2.8,4.2-.1,8.7.3,9.3-5.2.6-5.5-4.1-5.5-7.6-6.6h0Z"/>
    <path class="cls-6" d="M667,620.9c-1.7-.4-4,0-4.9-2.2,0-.2.4-1,.7-1,2-.5,4.1-.6,6.1,0,.6.2.9.8,1.4,1.2,1.3,1,2.9,1.3,3.8,0,.9-1.4-.2-2.8-1.5-3.6-3.6-2.4-7.6-1.7-11.5-1.1-2.2.4-3.7,1.7-3.9,4.1-.2,2.4,1.1,3.9,3.2,4.8,1.3.6,2.7.8,4.1,1.3,1.9.7,4.3,0,5.4,2.3,0,.2-.4,1-.7,1-2.3.5-4.7.8-6.9-.2-.5-.2-.9-.9-1.4-1.3-1-.6-2.1-.9-3.1-.1-1.2.9-.4,1.9,0,3,1.4,3.9,4.8,3.4,8.1,3.6,2.8-.5,6.3.7,8.2-3,2.3-4.7.5-7.1-6.8-8.9h0Z"/>
    <path class="cls-6" d="M540.2,613.7c-6.8-.1-10.2,2.8-10.2,9,0,6.9,3,10.2,9.4,10.3,5.6.4,9.5-1.8,10-9.8.4-6.3-2.8-9.3-9.1-9.5h0ZM539.5,628.7c-3.6,0-5-2.2-5-5.5,0-3.4,1.1-6,5-6.1,3.9-.1,5.2,2.3,5.2,6,0,3.2-1.3,5.6-5.2,5.6h0Z"/>
    <path class="cls-16" d="M702.9,625.1c0-8.5-1.3-10.7-6.8-11.2-7.9-.8-10.6,1.7-10.7,9.8,0,2.1,0,4.1,0,6.2,0,1.3,0,2.6,1.8,2.8,1.7.1,2.9-.4,2.7-2.3-.3-3.7,2.4-2.8,4.5-2.9,2.2-.1,4.2-.2,3.8,3-.2,1.6.8,2.2,2.3,2.2,1.5,0,2.4-.7,2.3-2.3,0-1.7,0-3.5,0-5.2h0ZM694,623.8c-1.8-.2-4.1.7-4-2.5.1-2.7,1.4-3.9,4.2-3.9,2.8,0,4,1.2,4.1,3.9,0,3.6-2.7,2-4.3,2.5h0Z"/>
    <path class="cls-6" d="M624.2,613.7c-6.4,0-9.6,3.1-9.6,9.1,0,6.6,3.3,10.1,9.7,10.1,6.6,0,10-3.6,9.8-10.5-.1-6-3.3-8.8-9.9-8.8h0ZM624.5,628.6c-3.9.1-5.3-2.2-5.3-5.7,0-3.5,1.4-5.8,5.3-5.9,3.8.2,5,2.6,5,6,0,3.3-1.3,5.5-5,5.6h0Z"/>
    <path class="cls-16" d="M844.6,625c0-1.3,0-2.5,0-3.8-.2-5.4-2.3-7.4-8.2-7.4-6.3,0-8.9,1.9-9.2,7.1-.2,3,0,6-.1,9,0,1.5.4,2.5,2,2.6,1.4,0,2.8-.3,2.6-2-.4-3.4,1.6-3.4,4.1-3.4,2.3,0,4.6-.2,4.2,3.3-.2,1.6,1.1,2.1,2.5,2,1.7-.1,2-1.3,2-2.7,0-1.6,0-3.2,0-4.8h0,0ZM835.8,623.6c-1.9-.1-4.1.6-4-2.6.2-2.9,1.6-3.7,4.3-3.8,2.8,0,4,1.4,4,4s-2.9,1.8-4.3,2.3h0Z"/>
    <path class="cls-16" d="M722.8,617.1c0-1.6,0-3.3-2.3-3.3-2.4,0-2.4,1.5-2.4,3.2,0,2.4,0,4.7,0,7.1,0,2.8-1.4,4-4.1,3.9-2.8,0-4.1-1.2-4.1-4,0-2.4,0-4.7,0-7.1,0-1.7,0-3.2-2.4-3.2-2,0-2.3,1.3-2.3,2.8,0,2.8-.2,5.7,0,8.5.4,5.2,2.7,7.2,8,7.4,6.2.2,8.6-1.5,9.4-6.9.2-1.5,0-3.2,0-4.7h.2v-3.8h0Z"/>
    <path class="cls-6" d="M586.5,617.5c0-1.7.3-3.7-2.5-3.6-2.4,0-2.2,1.8-2.2,3.4,0,2.2-.1,4.4,0,6.7.1,3-1.3,4.3-4.3,4.2-2.9,0-4-1.5-3.9-4.1,0-2.5,0-5.1,0-7.6,0-1.4-.4-2.5-2.1-2.5-1.9,0-2.6.9-2.5,2.6,0,2.5,0,5.1,0,7.6.2,6.3,2.3,8.5,8.2,8.6,6.6.1,8.9-2,9.3-8.6,0-1.1,0-2.2,0-3.3v-3.3h0Z"/>
    <path class="cls-6" d="M565,628.1c-8.7-.5-8.7-.6-8.6-9.2,0-.8,0-1.6,0-2.4,0-1.4-.3-2.5-2-2.6-1.7,0-2.7.6-2.7,2.4v7.1c0,6.2,3,9.2,9.1,9.2s2.8,0,4.3,0c1.5,0,2.9-.1,3-2.1,0-2.3-1.3-2.4-3.1-2.5h0Z"/>
    <path class="cls-6" d="M603.2,614.3c-3.8,0-7.6,0-11.4,0-1.5,0-3.6-.6-3.5,1.9,0,2.1,1.9,1.8,3.3,1.7,2.7-.3,3.3,1,3.1,3.3-.1,1.3,0,2.5,0,3.8h0c0,1.7,0,3.5,0,5.2,0,1.7.4,2.7,2.4,2.7s2.4-1.1,2.3-2.8c0-2.5.1-5.1,0-7.6-.2-3,0-5.5,4.1-4.8,1.3.2,2.7-.2,2.5-2-.1-1.5-1.4-1.5-2.5-1.5h0Z"/>
    <path class="cls-16" d="M814.9,627.8c-1.9,0-3.8-.1-5.7,0-2.8.2-3.5-1-3.1-4,.3-2,.2-4.1,0-6.2-.1-1.6.8-4-2.1-4-3.1,0-2.4,2.3-2.5,4,0,1.7,0,3.5,0,5.2h0c0,2.2,0,4.4,0,6.6,0,1.7.6,2.7,2.4,2.7,3.8,0,7.6,0,11.4,0,1.4,0,2.4-.4,2.5-2.1,0-2-1.2-2.3-2.8-2.3h0Z"/>
    <path class="cls-16" d="M758,613.8c-2.1,0-4.1,0-6.2,0-1.9,0-3.8,0-5.7,0-1.4,0-3.2-.3-3.1,1.9,0,1.8,1.6,1.8,2.8,1.7,3.2-.4,3.7,1.3,3.5,3.9-.2,2.7-.1,5.4-.2,8.1,0,1.7.2,3.2,2.5,3.1,2,0,2.2-1.4,2.2-2.9,0-2.4.1-4.8,0-7.1-.2-3.2,0-5.8,4.3-5.1,1.1.2,2.3-.3,2.2-1.8,0-1.5-1.2-1.7-2.4-1.7h0Z"/>
    <path class="cls-6" d="M610.1,614c-2.3,0-3,1.1-2.4,4.1.6,3.4.6,6.8,0,10.2-.5,2.7-.3,4.4,1.9,4.4,1.8,0,2.6-.7,2.6-2.5,0-2.2,0-4.4,0-6.7h0c0-2.4,0-4.8,0-7.1,0-1.5-.5-2.4-2.2-2.5h0Z"/>
    <path class="cls-16" d="M822,613.5c-1.9,0-2.4,1.2-2.4,2.8,0,2.2,0,4.4,0,6.6h0c0,2.2,0,4.4,0,6.6,0,1.5.5,2.4,2.1,2.5,1.8,0,2.6-.8,2.6-2.6,0-4.4,0-8.9,0-13.3,0-1.7-.4-2.8-2.4-2.7h0Z"/>
  </g>
  <path class="cls-16" d="M515.2,518.4c-.9.4-.9-.3-1.2-.9-3.1-6.9-2.9-14.2-2.8-21.5-1.4-.8-2.7-1.5-3.9-2.8-9.8-10.5-20.3-20.2-33-27.3-3.2-1.8-4.9-1-5,2.8.3.7.5,1.5,1,2.2,13.5,19.6,28.1,38.4,46,54.3.4.3.9,1.1,1.7,0-.9-2.2-1.9-4.5-2.8-6.9h0Z"/>
  <path class="cls-11" d="M541.3,438.7s0,0,0,0c0,0,0,0,0,0h0s0,0,0,0h0Z"/>
  <path class="cls-30" d="M829.9,376.8c-1.3-2.9-3.6-5.4-3.3-8.9-.6-.4-1.6-.7-1.9-1.3-7.9-14.2-15.7-28.4-23.5-42.6h0c-3.9-2.8-4.9-7.9-8.6-10.9q-2.5-2,0,0c-.9-3.9-4.3-6.1-6.1-9.4h0c-1.3-3.9-5.1-6-6.9-9.7-4.4-5.2-7-11.7-12.4-16.1h0c1.8,6.6-3.2,12.8-10.1,14.3-7,1.5-13.2-.8-18.3-4-10.9-6.9-21-4.9-31.5.1-1.7.8-3.3,2.3-5.3.8h0c-2.1,4.5-7.1,4.6-10.7,6.5-13.9,7.6-28.4,14.2-41.9,22.6-6.2,2.7-11.7,6.7-17.5,10.2-4.8,2.9-9.7,5.9-14.5,8.7-1.6.9-3.5,1.1-5-.2-1.5-1.2-.4-2.6-.2-4,.7-4.1,2.8-7.6,4.9-11,10.1-16,25.3-27.6,37.5-41.7,9-10.3,19.6-19.6,30.4-28.4,11.5-9.3,24.3-15,39.1-16.2.8,1.2,2.6,1.3,3,2.9h0c.9.4,1.7.9,1.8,2h0c1.7,1.6,3.5,3.1,5.2,4.6h0c4.7,4,9.6,7.9,13.4,12.8,1.3-.5,1.7,2.3,3.2.8h0c-10.1-10.2-20-20.6-30.5-30.5-9.2-8.7-19.4-16.2-29.7-23.5-19.3-13.7-40.4-23.7-63.1-30.2-14.3-4.1-29-1.8-43.5,0-1.4,1.4-3.6.4-5.1,1.7-12.1,2.3-24.4,4-35.1,10.7h0c-4.6,2.1-9.6,3.5-12.8,7.9h0c12.2-4.1,22.7,0,32.6,6.9,16.9,10.5,32.5,22.5,44.4,38.7,1,1.3,2,2.7.3,4.2-1.5.7-3,1.3-4.4,2-23.1,12.8-45.3,26.9-65.4,44.1-19.2,16.5-38,33.1-53,53.7-12.3,16.8-23.9,33.8-29.8,54-2.9,10.2-4.9,20.4-3.8,31.1,1.6,14.8,9.6,26.9,17,39.2,1.9-2.3,3.9-2,6.3-.6,11.5,6.5,20.7,15.8,30.1,24.9,1.6,1.5,2.7,4,5.4,2.9h0c-3.1,7.8-1.2,15.2,2.1,22.4.3.6,1.2,1.9,1.9.1-.9-7.3-.5-14.5,1.6-21.6,5.6-19,17.4-34.6,29-50,15.8-21,35.3-38.6,54.7-56.2,23.7-21.5,50.6-39.1,76.2-58.2h0c3.2-1.9,6.5-3.7,9.4-5.9,3.1-2.4,5.1-2.4,7.8,1,12.7,15.7,25.7,31,38.4,46.6,3.5,4.2,7.3,8.1,9.9,13,4.8,4.8,8.4,10.4,11.5,16.3h0c1.5.2,2.1,1.4,2.9,2.4,13.6,18,26.2,36.5,34.5,57.7,7.6,19.3,15.8,38.3,16.8,59.4-.8,1.3-1.1,2.6-.6,4.3,9.1-4.8,16-11.7,20.5-20.7,6-12,10.5-24.6,13.3-37.8h0c2.3-6.3,3.2-12.8,3.6-19.4,1.7-25.6-4.1-49.6-15-72.6h0Z"/>
  <path class="cls-20" d="M531.2,194.8h0c-8.3,8.6-10.6,18.9-8.8,30.4,2.3,14.7,9.9,26.9,18.9,38.3.7.9,1,2.5,2.9,2.2-1.2-11.9-.8-23.7,1.4-35.3,2.2-11.9,5.9-23,18.1-28.7-9.9-6.9-20.4-11-32.6-6.9h0Z"/>
  <path class="cls-13" d="M747.7,258c-2.4,4.2-5.8,6.5-10.5,8.4-12.8,5.4-25.8,10.5-38,17.1-15.9,8.6-32.8,15-48.9,23-1.6.8-3.4,1.6-4.9,0-1.7-1.7-.3-3.4.6-4.8,1.3-2.2,2.6-4.6,4.4-6.3,9.9-9.4,18.8-19.8,30.1-27.6,7.5-5.2,14.4-11.3,22.9-15.2,7.8-3.6,15.7-6,24.4-5.9,2.2,0,4.5-.5,6.5-1.7h0c-1.7-1.6-3.5-3.1-5.2-4.6-3.7,2.9-8.4,1.7-12.6,2.9-12.1,3.3-22.6,9.2-32.1,17.2-8.6,7.2-17.9,13.9-25.6,22-7.6,8.1-16.2,15.4-22.8,24.3-.8,1-1.5,2.1-2,3.3-1,2.4-3.8,5.3-1.1,7.3,2.4,1.7,5.8.8,8.7-.9,4.7-2.8,9.2-5.9,14.7-7.2h0c11-5.4,21.9-11,32.9-16.2,2.5-1.2,4.7-3.6,8-3.2,6.5-4.6,13.5-7.6,21.1-10.1,8.6-2.9,16.7-3.4,25.5-1.6,5.8,1.2,10.7-.5,14-6.1,1.1-1.8.7-3.3.8-4.9h0c-2.5-2.8-5.1-5.6-7.6-8.3h0c-1.5,1.4-1.9-1.4-3.2-.8h0Z"/>
  <path class="cls-16" d="M826.5,268.2c8-.6,15.8.4,23.6,2,4.2.5,7.4,2.7,10.4,5.4h0c-1.6-2.3-3.1-4.6-4.7-6.9-.7-.6-1.7-1.1-2.2-1.8-7-10.2-17.6-17-26.1-25.7-4.3-4.4-9-8.6-13.6-12.6-17.1-14.9-37-23.8-60.2-24.2-6.3,0-12.6,0-18.9,0h0c-5.8.5-11.6.8-17.3,2.2-1.6-.3-3.1-.5-4.6.2-.2.9.4,1.2.9,1.7,9.3,8,18.5,16,27.4,24.5,14.4,13.8,28.4,27.9,40.7,43.7,1.7,2.2,3.3,2.4,5.7,1.6,8.8-2.9,17.7-5.2,26.8-7,1.7-.3,3.4-1.3,5.1.2h0c1.3-3.3,4.3-3,6.9-3.2h0ZM812.3,257.3c-1.5.5-3,1.2-4.6,1.4-1.7.2-3.6,0-5.2,0-6.4.9-10.8-2.4-15.5-5.7-5.9-4.2-11.6-8.6-16.6-13.9-3-3.2-5.6-6.6-5.5-11.4.1-3.5,1.3-6,5.4-5.9,10.1.2,19.2,3.3,27.3,9.4,5.2,3.8,10.4,7.6,15.2,11.9.6.5,1.3.9,1.9,1.4,6.1,5.6,5.2,9.9-2.6,12.6h0Z"/>
  <path class="cls-5" d="M757.7,272.1c-3.3,5.7-8.2,7.3-14,6.1-8.7-1.8-16.8-1.2-25.5,1.6-7.6,2.5-14.6,5.6-21.1,10.1h0c1.7.1,3.4,0,4.9-.9h0c2,1.5,3.6,0,5.3-.8,10.5-5.1,20.6-7,31.5-.1,5.1,3.2,11.3,5.5,18.3,4,6.9-1.4,11.9-7.6,10.1-14.3h0c-3.1-3.4-5-7.8-8.7-10.7h0c0,1.7.2,3.1-.8,4.9h0Z"/>
  <path class="cls-20" d="M698.7,419c10.7-2.3,21.2-4.8,31.6-7.9,7.9-2.3,15.7-5.1,23.5-7.7h0c-3.1-6-6.7-11.5-11.5-16.3-13.6,11.9-28.3,22.2-43.7,31.8Z"/>
  <path class="cls-19" d="M753.8,204.4c-6.3-1.1-12.6-1-18.9,0h0c6.3,0,12.6,0,18.9,0Z"/>
  <path class="cls-17" d="M727.8,246.8c-8.7-.1-16.6,2.3-24.4,5.9-8.5,3.9-15.3,9.9-22.9,15.2-11.4,7.9-20.3,18.2-30.1,27.6-1.8,1.7-3.1,4.1-4.4,6.3-.8,1.4-2.3,3.1-.6,4.8,1.6,1.6,3.3.7,4.9,0,16.2-8,33-14.4,48.9-23,12.1-6.5,25.2-11.6,38-17.1,4.6-2,8.1-4.2,10.5-8.4-3.9-4.9-8.7-8.8-13.4-12.8h0c-2,1.2-4.3,1.7-6.5,1.7h0ZM726.4,261.6c-1.6,3.2-4.7,5.1-7.5,6.7-15,8.5-30.8,15.7-47,21.8-1.8.7-3.8,1.8-5.3-.2-1.4-1.8.2-3.4.9-4.9,1.9-3.7,4.9-6.7,8.2-8.8,9.8-6.3,18.6-14.4,30-18.4,4.5-1.6,9.2-1.6,12.6-2.7,2.7-.1,4.2.2,5.8.6,3.6,1,3.7,3.1,2.3,5.9h0Z"/>
  <path class="cls-15" d="M697.1,290c-.4.5-.7,1.2-1.2,1.5-12.6,6.4-25.3,12.7-37.9,19.1-.8.4-1.8.6-2.8.8-8.2,4.6-16.3,9.1-24.5,13.6-2,1.1-4.4,1.8-6.3,0-2.2-2-.6-4.4.4-6.2,4.1-7.1,9-13.5,15.1-19.2,9.1-8.4,16.9-18.2,26.1-26.5,12.3-11,24.5-22.4,39.9-29.3,4.1-1.8,8.4-3.4,12.9-3.3,3.1,0,5.4-2.3,8.4-2-.4-1.6-2.2-1.7-3-2.9-14.8,1.2-27.6,6.8-39.1,16.2-10.8,8.8-21.4,18-30.4,28.4-12.3,14.1-27.5,25.6-37.5,41.7-2.1,3.4-4.3,6.9-4.9,11-.2,1.4-1.3,2.8.2,4,1.6,1.3,3.4,1.1,5,.2,4.9-2.8,9.7-5.8,14.5-8.7,5.8-3.5,11.2-7.5,17.5-10.2,13.5-8.4,27.9-15,41.9-22.6,3.6-2,8.6-2,10.7-6.5h0c-1.5.9-3.2,1.1-4.9.9h0Z"/>
  <path class="cls-5" d="M718.9,240.5c-4.5,0-8.9,1.5-12.9,3.3-15.4,6.9-27.6,18.3-39.9,29.3-9.2,8.2-17,18-26.1,26.5-6.1,5.7-11.1,12.1-15.1,19.2-1,1.8-2.6,4.2-.4,6.2,1.9,1.7,4.3,1,6.3,0,8.2-4.5,16.3-9.1,24.5-13.6.3-.6.7-1.3,1-1.9-5.4,1.3-10,4.5-14.7,7.2-2.9,1.7-6.3,2.6-8.7.9-2.8-2.1,0-4.9,1.1-7.3.5-1.2,1.2-2.3,2-3.3,6.7-9,15.2-16.3,22.8-24.3,7.7-8.1,17-14.8,25.6-22,9.5-8,20.1-13.8,32.1-17.2,4.2-1.2,8.9,0,12.6-2.9h0c-.1-1.1-1-1.6-1.8-2h0c-3-.3-5.3,2.1-8.4,2h0Z"/>
  <path class="cls-16" d="M639.7,331.8c1.6-1.3,3.8-1.9,4.9-3.9-.6-.3-1.3-.6-1.9-1-.7,1.8-3,2.6-2.9,4.8h0Z"/>
  <path class="cls-29" d="M658,310.5c12.7-6.3,25.3-12.7,37.9-19.1.5-.3.8-1,1.2-1.5h0c-3.2-.4-5.4,2-8,3.2-11.1,5.2-22,10.8-32.9,16.2h0c-.3.6-.7,1.3-1,1.9.9-.3,1.9-.4,2.8-.8h0Z"/>
  <path class="cls-25" d="M724.1,255.7c-1.6-.4-3.1-.8-5.8-.6-3.4,1.1-8,1.1-12.6,2.7-11.4,4-20.1,12.1-30,18.4-3.3,2.1-6.3,5.1-8.2,8.8-.8,1.5-2.4,3.1-.9,4.9,1.6,2,3.5.9,5.3.2,16.2-6.1,31.9-13.3,47-21.8,2.8-1.6,5.9-3.4,7.5-6.7,1.4-2.8,1.3-4.9-2.3-5.9h0Z"/>
  <path class="cls-5" d="M814.8,244.7c-.6-.5-1.3-.9-1.9-1.4-4.8-4.4-10-8.1-15.2-11.9-8.2-6-17.2-9.2-27.3-9.4-4.1,0-5.3,2.4-5.4,5.9-.2,4.7,2.4,8.2,5.5,11.4,5,5.2,10.7,9.6,16.6,13.9,4.7,3.4,9.1,6.6,15.5,5.7,1.6,0,3.4.2,5.2,0,1.6-.2,3.1-.9,4.6-1.4,7.7-2.7,8.6-7,2.6-12.6h0ZM808.2,251.4c-4.8,2.6-9.8,4.2-15.1,1-5.8-3.6-11.4-7.3-16-12.4-1-1.1-1.8-2.3-2.5-3.5-3.3-6.2-1.9-8.7,8.1-8.6,9.6,1.6,19.1,8.3,26.6,18.2,1.6,2.1,1.1,4.2-1.1,5.4h0Z"/>
  <path class="cls-17" d="M782.6,227.8c-9.9,0-11.4,2.4-8.1,8.6.7,1.3,1.5,2.5,2.5,3.5,4.6,5.1,10.3,8.8,16,12.4,5.3,3.3,10.3,1.6,15.1-1,2.1-1.1,2.7-3.3,1.1-5.4-7.5-9.9-17.1-16.6-26.6-18.2h0ZM798.5,248.2c-5.2.9-15.8-5.7-17.1-10.6-.6-2.2,1.2-4,4.1-3.9,6.2,1,11.7,3.4,15.4,8.7,2,3,1,5.2-2.4,5.8h0Z"/>
  <path class="cls-25" d="M785.5,233.6c-2.9,0-4.7,1.7-4.1,3.9,1.3,4.9,11.9,11.5,17.1,10.6,3.4-.6,4.4-2.9,2.4-5.8-3.7-5.4-9.2-7.7-15.4-8.7h0Z"/>
  <path class="cls-20" d="M862.5,276.6c-.6-.3-1.3-.7-1.9-1h0c-3-2.6-6.3-4.9-10.4-5.4-7.8-1.6-15.6-2.6-23.6-2-2.6.2-5.7,0-6.9,3.2h0c-.1,7.1-.4,14.2-2.6,21.1-3.6,11.3-9.3,21.6-15.8,31.5h0c7.8,14.2,15.6,28.4,23.5,42.6.3.6,1.2.9,1.9,1.3,14.9-9.8,27.9-21.4,36.7-37.2,10.2-18.3,13.1-36.3-.8-54.2h0Z"/>
  <polygon class="cls-10" points="499.8 286.7 363.3 193.1 391.7 88.5 499.8 286.7"/>
  <polygon class="cls-10" points="363.3 193.1 196 193.5 126.5 88.5 391.7 88.5 363.3 193.1"/>
  <g>
    <g class="cls-33">
      <path class="cls-6" d="M200.8,128.8c0,.9-.2,1.7-.7,2.5-.5.7-1.2,1.3-2.1,1.7s-2,.6-3.2.6-2.7-.3-3.7-.8c-.7-.4-1.2-.9-1.7-1.6-.4-.7-.6-1.3-.6-2s.1-.7.4-.9c.3-.3.6-.4,1-.4s.6.1.8.3c.2.2.4.5.6.9.2.5.4.9.6,1.2.2.3.5.6.9.8.4.2.9.3,1.6.3s1.6-.2,2.2-.6c.6-.4.8-.9.8-1.6s-.2-.9-.5-1.2-.7-.5-1.2-.7c-.5-.2-1.1-.3-1.9-.5-1.1-.3-2-.5-2.7-.9-.7-.3-1.3-.8-1.7-1.4-.4-.6-.6-1.3-.6-2.2s.2-1.6.7-2.2,1.1-1.1,2-1.5,1.9-.5,3-.5,1.7.1,2.4.3c.7.2,1.2.5,1.7.9.4.4.8.8,1,1.2s.3.8.3,1.2-.1.7-.4,1c-.3.3-.6.4-1,.4s-.6,0-.8-.3c-.2-.2-.4-.5-.6-.9-.3-.6-.6-1-1-1.3-.4-.3-1-.5-1.8-.5s-1.4.2-1.9.5c-.5.3-.7.8-.7,1.2s0,.6.2.8.4.4.7.6.6.3.9.4.8.2,1.5.4c.8.2,1.6.4,2.3.7.7.2,1.3.5,1.8.9.5.3.9.8,1.1,1.3.3.5.4,1.2.4,1.9Z"/>
      <path class="cls-6" d="M203.5,131.7v-11.8c0-.6.1-1.1.4-1.4s.6-.5,1.1-.5.8.2,1.1.5c.3.3.4.8.4,1.4v11.8c0,.6-.1,1.1-.4,1.4-.3.3-.7.5-1.1.5s-.8-.2-1.1-.5c-.3-.3-.4-.8-.4-1.4Z"/>
      <path class="cls-6" d="M213.9,119.8l5.9,8.9v-8.9c0-.6.1-1,.4-1.3s.6-.4,1-.4.8.1,1,.4.4.7.4,1.3v11.8c0,1.3-.5,2-1.6,2s-.5,0-.7-.1c-.2,0-.4-.2-.6-.4s-.4-.4-.5-.6c-.2-.2-.3-.5-.5-.7l-5.7-8.8v8.8c0,.6-.1,1-.4,1.3s-.6.4-1,.4-.8-.1-1-.4c-.3-.3-.4-.7-.4-1.3v-11.6c0-.5,0-.9.2-1.2.1-.3.3-.6.6-.8.3-.2.6-.3,1-.3s.5,0,.7.1c.2,0,.4.2.5.4s.3.3.5.6c.2.2.3.5.5.7Z"/>
      <path class="cls-6" d="M239.6,127.2v2.9c0,.4,0,.7-.1.9,0,.2-.2.4-.4.6-.2.2-.5.4-.8.5-.9.5-1.8.9-2.6,1.1s-1.8.3-2.7.3-2.2-.2-3.2-.5-1.8-.9-2.4-1.5-1.2-1.5-1.5-2.5c-.4-1-.5-2-.5-3.2s.2-2.2.5-3.2.9-1.8,1.5-2.5,1.5-1.2,2.5-1.6c1-.4,2.1-.5,3.3-.5s1.9.1,2.7.4c.8.3,1.4.6,1.9,1s.9.8,1.1,1.3.4.9.4,1.2-.1.7-.4,1-.6.4-1,.4-.4,0-.6-.2c-.2-.1-.4-.2-.5-.4-.4-.6-.7-1-1-1.3s-.6-.6-1.1-.8c-.4-.2-1-.3-1.7-.3s-1.3.1-1.9.4-1,.6-1.4,1.1c-.4.5-.7,1-.9,1.7-.2.7-.3,1.4-.3,2.2,0,1.8.4,3.1,1.2,4.1.8,1,1.9,1.4,3.4,1.4s1.4,0,2-.3c.6-.2,1.2-.4,1.9-.8v-2.4h-2.4c-.6,0-1,0-1.3-.3-.3-.2-.4-.5-.4-.9s.1-.6.4-.8.6-.3,1-.3h3.5c.4,0,.8,0,1.1.1s.5.2.7.5.3.6.3,1.2Z"/>
      <path class="cls-6" d="M245.5,119.8v10.9h6.2c.5,0,.9.1,1.1.4.3.2.4.5.4.9s-.1.7-.4.9c-.3.2-.6.3-1.1.3h-7.4c-.7,0-1.1-.1-1.4-.4s-.4-.8-.4-1.4v-11.6c0-.6.1-1.1.4-1.4.3-.3.6-.5,1.1-.5s.8.2,1.1.5c.3.3.4.8.4,1.4Z"/>
      <path class="cls-6" d="M265.1,120.6h-6.9v3.7h6.3c.5,0,.8.1,1,.3s.3.5.3.8-.1.6-.3.8c-.2.2-.6.3-1,.3h-6.3v4.3h7.1c.5,0,.8.1,1.1.3.2.2.4.5.4.9s-.1.6-.4.9-.6.3-1.1.3h-8.3c-.7,0-1.1-.1-1.4-.4s-.4-.8-.4-1.4v-11.3c0-.4,0-.8.2-1.1.1-.3.3-.5.6-.6.3-.1.6-.2,1.1-.2h8c.5,0,.8.1,1.1.3.2.2.4.5.4.8s-.1.6-.4.9c-.2.2-.6.3-1.1.3Z"/>
      <path class="cls-6" d="M274.6,131.7v-11.8c0-.6.1-1.1.4-1.4s.6-.5,1.1-.5.8.2,1.1.5c.3.3.4.8.4,1.4v11.8c0,.6-.1,1.1-.4,1.4-.3.3-.7.5-1.1.5s-.8-.2-1.1-.5c-.3-.3-.4-.8-.4-1.4Z"/>
      <path class="cls-6" d="M285,119.8l5.9,8.9v-8.9c0-.6.1-1,.4-1.3s.6-.4,1-.4.8.1,1,.4.4.7.4,1.3v11.8c0,1.3-.5,2-1.6,2s-.5,0-.7-.1c-.2,0-.4-.2-.6-.4s-.4-.4-.5-.6c-.2-.2-.3-.5-.5-.7l-5.7-8.8v8.8c0,.6-.1,1-.4,1.3s-.6.4-1,.4-.8-.1-1-.4c-.3-.3-.4-.7-.4-1.3v-11.6c0-.5,0-.9.2-1.2.1-.3.3-.6.6-.8.3-.2.6-.3,1-.3s.5,0,.7.1c.2,0,.4.2.5.4s.3.3.5.6c.2.2.3.5.5.7Z"/>
      <path class="cls-6" d="M299.2,120l3.4,10.1,3.4-10.2c.2-.5.3-.9.4-1.1,0-.2.2-.4.4-.6s.5-.3.8-.3.5,0,.7.2.4.3.5.5c.1.2.2.4.2.7s0,.3,0,.5c0,.2,0,.3-.2.5s-.1.3-.2.5l-3.6,9.8c-.1.4-.3.7-.4,1.1-.1.3-.3.6-.5.9-.2.3-.4.5-.7.6-.3.2-.6.2-1,.2s-.8,0-1-.2c-.3-.2-.5-.4-.7-.6-.2-.3-.3-.6-.5-.9s-.3-.7-.4-1.1l-3.6-9.7c0-.2-.1-.4-.2-.5,0-.2-.1-.4-.2-.6,0-.2,0-.4,0-.5,0-.3.1-.7.4-1s.6-.4,1.1-.4.9.2,1.1.5c.2.3.4.8.7,1.5Z"/>
      <path class="cls-6" d="M317.8,118c1.6,0,2.9.3,4,.9,1.1.6,2,1.5,2.5,2.7.6,1.2.9,2.5.9,4.1s-.2,2.2-.5,3.2-.8,1.8-1.4,2.5-1.4,1.2-2.3,1.6-2,.6-3.1.6-2.2-.2-3.2-.6c-.9-.4-1.7-.9-2.3-1.6s-1.1-1.5-1.4-2.5c-.3-1-.5-2-.5-3.1s.2-2.2.5-3.2.8-1.8,1.4-2.5,1.4-1.2,2.3-1.6c.9-.4,1.9-.5,3.1-.5ZM322.1,125.7c0-1.1-.2-2.1-.5-2.9s-.9-1.4-1.5-1.8-1.4-.6-2.3-.6-1.2.1-1.7.3c-.5.2-1,.6-1.3,1s-.7,1-.9,1.7c-.2.7-.3,1.4-.3,2.3s.1,1.6.3,2.3c.2.7.5,1.3.9,1.7.4.5.8.8,1.4,1,.5.2,1.1.3,1.7.3s1.5-.2,2.1-.6,1.2-1,1.6-1.8.6-1.8.6-3Z"/>
      <path class="cls-6" d="M327.9,131.7v-11.8c0-.6.1-1.1.4-1.4s.6-.5,1.1-.5.8.2,1.1.5c.3.3.4.8.4,1.4v11.8c0,.6-.1,1.1-.4,1.4-.3.3-.7.5-1.1.5s-.8-.2-1.1-.5c-.3-.3-.4-.8-.4-1.4Z"/>
      <path class="cls-6" d="M347.2,128.5c0,.5-.1,1-.4,1.6-.2.6-.6,1.1-1.1,1.6-.5.5-1.2,1-1.9,1.3s-1.7.5-2.7.5-1.5,0-2.2-.2-1.2-.4-1.8-.7c-.5-.3-1-.7-1.5-1.3-.4-.5-.7-1-1-1.6-.3-.6-.5-1.2-.6-1.9s-.2-1.4-.2-2.1c0-1.2.2-2.3.5-3.3.4-1,.9-1.8,1.5-2.5.7-.7,1.4-1.2,2.3-1.6s1.8-.5,2.8-.5,2.3.2,3.3.7,1.7,1.1,2.2,1.8.8,1.4.8,2-.1.7-.4.9-.5.4-.9.4-.7,0-.9-.3c-.2-.2-.4-.5-.7-1-.4-.7-.9-1.3-1.4-1.7s-1.2-.6-2-.6c-1.3,0-2.2.5-3,1.4-.7,1-1.1,2.3-1.1,4.1s.2,2.1.5,2.9.8,1.4,1.4,1.7,1.3.6,2.1.6,1.6-.2,2.2-.7c.6-.4,1.1-1.1,1.4-1.9.1-.4.3-.7.5-1,.2-.2.5-.4.9-.4s.7.1.9.4.4.6.4.9Z"/>
      <path class="cls-6" d="M359.8,120.6h-6.9v3.7h6.3c.5,0,.8.1,1,.3s.3.5.3.8-.1.6-.3.8c-.2.2-.6.3-1,.3h-6.3v4.3h7.1c.5,0,.8.1,1.1.3.2.2.4.5.4.9s-.1.6-.4.9-.6.3-1.1.3h-8.3c-.7,0-1.1-.1-1.4-.4s-.4-.8-.4-1.4v-11.3c0-.4,0-.8.2-1.1.1-.3.3-.5.6-.6.3-.1.6-.2,1.1-.2h8c.5,0,.8.1,1.1.3.2.2.4.5.4.8s-.1.6-.4.9c-.2.2-.6.3-1.1.3Z"/>
      <path class="cls-6" d="M204.7,156.2l-2.4-9.6v10.4c0,.6-.1,1-.4,1.3-.3.3-.6.4-1,.4s-.7-.1-1-.4c-.3-.3-.4-.7-.4-1.3v-11.9c0-.7.2-1.1.5-1.3s.8-.3,1.4-.3h.9c.6,0,1,0,1.2.2.3.1.4.3.6.6s.3.7.4,1.3l2.2,8.2,2.2-8.2c.2-.6.3-1,.4-1.3s.3-.5.6-.6c.3-.1.7-.2,1.2-.2h.9c.6,0,1,.1,1.4.3s.5.7.5,1.3v11.9c0,.6-.1,1-.4,1.3-.3.3-.6.4-1,.4s-.7-.1-1-.4-.4-.7-.4-1.3v-10.4l-2.4,9.6c-.2.6-.3,1.1-.4,1.4,0,.3-.3.6-.5.8s-.6.4-1.1.4-.7,0-.9-.2c-.2-.2-.4-.4-.6-.6s-.2-.5-.3-.8-.2-.6-.2-.9Z"/>
      <path class="cls-6" d="M226.7,156.8l-.7-1.9h-6.1l-.7,1.9c-.3.8-.5,1.3-.7,1.5-.2.3-.5.4-1,.4s-.7-.1-1-.4-.4-.6-.4-1,0-.4.1-.6.2-.5.3-.9l3.8-9.8c.1-.3.2-.6.4-1,.2-.4.3-.7.5-1,.2-.3.4-.5.7-.6.3-.2.6-.2,1.1-.2s.8,0,1.1.2c.3.2.5.4.7.6.2.3.3.5.4.8.1.3.3.7.5,1.2l3.9,9.7c.3.7.5,1.3.5,1.6s-.1.7-.4,1c-.3.3-.6.4-1.1.4s-.4,0-.6-.1-.3-.2-.4-.3c-.1-.1-.2-.4-.4-.7-.1-.3-.2-.6-.3-.8ZM220.7,152.6h4.5l-2.3-6.2-2.2,6.2Z"/>
      <path class="cls-6" d="M236.2,145l5.9,8.9v-8.9c0-.6.1-1,.4-1.3s.6-.4,1-.4.8.1,1,.4.4.7.4,1.3v11.8c0,1.3-.5,2-1.6,2s-.5,0-.7-.1c-.2,0-.4-.2-.6-.4s-.4-.4-.5-.6c-.2-.2-.3-.5-.5-.7l-5.7-8.8v8.8c0,.6-.1,1-.4,1.3s-.6.4-1,.4-.8-.1-1-.4c-.3-.3-.4-.7-.4-1.3v-11.6c0-.5,0-.9.2-1.2.1-.3.3-.6.6-.8.3-.2.6-.3,1-.3s.5,0,.7.1c.2,0,.4.2.5.4s.3.3.5.6c.2.2.3.5.5.7Z"/>
      <path class="cls-6" d="M257.5,156.8l-.7-1.9h-6.1l-.7,1.9c-.3.8-.5,1.3-.7,1.5-.2.3-.5.4-1,.4s-.7-.1-1-.4-.4-.6-.4-1,0-.4.1-.6.2-.5.3-.9l3.8-9.8c.1-.3.2-.6.4-1,.2-.4.3-.7.5-1,.2-.3.4-.5.7-.6.3-.2.6-.2,1.1-.2s.8,0,1.1.2c.3.2.5.4.7.6.2.3.3.5.4.8.1.3.3.7.5,1.2l3.9,9.7c.3.7.5,1.3.5,1.6s-.1.7-.4,1c-.3.3-.6.4-1.1.4s-.4,0-.6-.1-.3-.2-.4-.3c-.1-.1-.2-.4-.4-.7-.1-.3-.2-.6-.3-.8ZM251.5,152.6h4.5l-2.3-6.2-2.2,6.2Z"/>
      <path class="cls-6" d="M276.2,152.4v2.9c0,.4,0,.7-.1.9,0,.2-.2.4-.4.6-.2.2-.5.4-.8.5-.9.5-1.8.9-2.6,1.1s-1.8.3-2.7.3-2.2-.2-3.2-.5-1.8-.9-2.4-1.5-1.2-1.5-1.5-2.5c-.4-1-.5-2-.5-3.2s.2-2.2.5-3.2.9-1.8,1.5-2.5,1.5-1.2,2.5-1.6c1-.4,2.1-.5,3.3-.5s1.9.1,2.7.4c.8.3,1.4.6,1.9,1s.9.8,1.1,1.3.4.9.4,1.2-.1.7-.4,1-.6.4-1,.4-.4,0-.6-.2c-.2-.1-.4-.2-.5-.4-.4-.6-.7-1-1-1.3s-.6-.6-1.1-.8c-.4-.2-1-.3-1.7-.3s-1.3.1-1.9.4-1,.6-1.4,1.1c-.4.5-.7,1-.9,1.7-.2.7-.3,1.4-.3,2.2,0,1.8.4,3.1,1.2,4.1.8,1,1.9,1.4,3.4,1.4s1.4,0,2-.3c.6-.2,1.2-.4,1.9-.8v-2.4h-2.4c-.6,0-1,0-1.3-.3-.3-.2-.4-.5-.4-.9s.1-.6.4-.8.6-.3,1-.3h3.5c.4,0,.8,0,1.1.1s.5.2.7.5.3.6.3,1.2Z"/>
      <path class="cls-6" d="M289,145.8h-6.9v3.7h6.3c.5,0,.8.1,1,.3s.3.5.3.8-.1.6-.3.8c-.2.2-.6.3-1,.3h-6.3v4.3h7.1c.5,0,.8.1,1.1.3.2.2.4.5.4.9s-.1.6-.4.9-.6.3-1.1.3h-8.3c-.7,0-1.1-.1-1.4-.4s-.4-.8-.4-1.4v-11.3c0-.4,0-.8.2-1.1.1-.3.3-.5.6-.6.3-.1.6-.2,1.1-.2h8c.5,0,.8.1,1.1.3.2.2.4.5.4.8s-.1.6-.4.9c-.2.2-.6.3-1.1.3Z"/>
      <path class="cls-6" d="M298.2,156.2l-2.4-9.6v10.4c0,.6-.1,1-.4,1.3-.3.3-.6.4-1,.4s-.7-.1-1-.4c-.3-.3-.4-.7-.4-1.3v-11.9c0-.7.2-1.1.5-1.3s.8-.3,1.4-.3h.9c.6,0,1,0,1.2.2.3.1.4.3.6.6s.3.7.4,1.3l2.2,8.2,2.2-8.2c.2-.6.3-1,.4-1.3s.3-.5.6-.6c.3-.1.7-.2,1.2-.2h.9c.6,0,1,.1,1.4.3s.5.7.5,1.3v11.9c0,.6-.1,1-.4,1.3-.3.3-.6.4-1,.4s-.7-.1-1-.4-.4-.7-.4-1.3v-10.4l-2.4,9.6c-.2.6-.3,1.1-.4,1.4,0,.3-.3.6-.5.8s-.6.4-1.1.4-.7,0-.9-.2c-.2-.2-.4-.4-.6-.6s-.2-.5-.3-.8-.2-.6-.2-.9Z"/>
      <path class="cls-6" d="M320.5,145.8h-6.9v3.7h6.3c.5,0,.8.1,1,.3s.3.5.3.8-.1.6-.3.8c-.2.2-.6.3-1,.3h-6.3v4.3h7.1c.5,0,.8.1,1.1.3.2.2.4.5.4.9s-.1.6-.4.9-.6.3-1.1.3h-8.3c-.7,0-1.1-.1-1.4-.4s-.4-.8-.4-1.4v-11.3c0-.4,0-.8.2-1.1.1-.3.3-.5.6-.6.3-.1.6-.2,1.1-.2h8c.5,0,.8.1,1.1.3.2.2.4.5.4.8s-.1.6-.4.9c-.2.2-.6.3-1.1.3Z"/>
      <path class="cls-6" d="M328.6,145l5.9,8.9v-8.9c0-.6.1-1,.4-1.3s.6-.4,1-.4.8.1,1,.4.4.7.4,1.3v11.8c0,1.3-.5,2-1.6,2s-.5,0-.7-.1c-.2,0-.4-.2-.6-.4s-.4-.4-.5-.6c-.2-.2-.3-.5-.5-.7l-5.7-8.8v8.8c0,.6-.1,1-.4,1.3s-.6.4-1,.4-.8-.1-1-.4c-.3-.3-.4-.7-.4-1.3v-11.6c0-.5,0-.9.2-1.2.1-.3.3-.6.6-.8.3-.2.6-.3,1-.3s.5,0,.7.1c.2,0,.4.2.5.4s.3.3.5.6c.2.2.3.5.5.7Z"/>
      <path class="cls-6" d="M350.3,146h-3.3v10.9c0,.6-.1,1.1-.4,1.4-.3.3-.6.5-1.1.5s-.8-.2-1.1-.5c-.3-.3-.4-.8-.4-1.4v-10.9h-3.3c-.5,0-.9-.1-1.2-.3s-.4-.5-.4-.9.1-.7.4-.9.6-.3,1.1-.3h9.7c.5,0,.9.1,1.2.3.3.2.4.5.4.9s-.1.7-.4.9-.6.3-1.2.3Z"/>
    </g>
    <g>
      <path class="cls-6" d="M200.4,400.3c0,.5-.1,1-.4,1.6-.2.6-.6,1.1-1.1,1.6-.5.5-1.2,1-1.9,1.3s-1.7.5-2.7.5-1.5,0-2.2-.2-1.2-.4-1.8-.7c-.5-.3-1-.7-1.5-1.3-.4-.5-.7-1-1-1.6-.3-.6-.5-1.2-.6-1.9-.1-.7-.2-1.4-.2-2.1,0-1.2.2-2.3.5-3.2.4-1,.9-1.8,1.5-2.5.7-.7,1.4-1.2,2.3-1.6s1.8-.5,2.8-.5,2.3.2,3.3.7,1.7,1.1,2.2,1.8.8,1.4.8,2-.1.7-.4.9c-.2.3-.5.4-.9.4s-.7,0-.9-.3c-.2-.2-.4-.5-.7-1-.4-.7-.9-1.3-1.4-1.7s-1.2-.6-2-.6c-1.3,0-2.2.5-3,1.4-.7,1-1.1,2.3-1.1,4.1s.2,2.1.5,2.9.8,1.4,1.4,1.7,1.3.6,2.1.6,1.6-.2,2.2-.7c.6-.4,1.1-1.1,1.4-1.9.1-.4.3-.7.5-1,.2-.2.5-.4.9-.4s.7.1.9.4c.3.3.4.6.4.9Z"/>
      <path class="cls-6" d="M203.2,398.8v-7.2c0-.6.1-1.1.4-1.4.3-.3.6-.5,1.1-.5s.8.2,1.1.5c.3.3.4.8.4,1.4v7.4c0,.8,0,1.5.3,2.1.2.6.5,1,1,1.3s1.1.5,2,.5,2-.3,2.5-.9c.5-.6.7-1.6.7-2.9v-7.5c0-.6.1-1.1.4-1.4s.6-.5,1.1-.5.8.2,1.1.5c.3.3.4.8.4,1.4v7.2c0,1.2-.1,2.2-.3,2.9-.2.8-.7,1.5-1.3,2.1-.5.5-1.2.9-1.9,1.1s-1.6.3-2.5.3-2.1-.1-3-.4-1.5-.6-2-1.2c-.5-.5-.9-1.2-1.2-2s-.4-1.8-.4-2.9Z"/>
      <path class="cls-6" d="M230.6,400.5c0,.9-.2,1.7-.7,2.5-.5.7-1.2,1.3-2.1,1.7s-2,.6-3.2.6-2.7-.3-3.7-.8c-.7-.4-1.2-.9-1.7-1.6-.4-.7-.6-1.3-.6-2s.1-.7.4-.9c.3-.3.6-.4,1-.4s.6.1.8.3c.2.2.4.5.6.9.2.5.4.9.6,1.2.2.3.5.6.9.8.4.2.9.3,1.6.3s1.6-.2,2.2-.6c.6-.4.8-.9.8-1.6s-.2-.9-.5-1.2-.7-.5-1.2-.7c-.5-.2-1.1-.3-1.9-.5-1.1-.3-2-.5-2.7-.9-.7-.3-1.3-.8-1.7-1.4-.4-.6-.6-1.3-.6-2.2s.2-1.6.7-2.2,1.1-1.1,2-1.5,1.9-.5,3-.5,1.7.1,2.4.3c.7.2,1.2.5,1.7.9.4.4.8.8,1,1.2s.3.8.3,1.2-.1.7-.4,1c-.3.3-.6.4-1,.4s-.6,0-.8-.3c-.2-.2-.4-.5-.6-.9-.3-.6-.6-1-1-1.3-.4-.3-1-.5-1.8-.5s-1.4.2-1.9.5c-.5.3-.7.8-.7,1.2s0,.6.2.8.4.4.7.6c.3.2.6.3.9.4.3,0,.8.2,1.5.4.8.2,1.6.4,2.3.7.7.2,1.3.5,1.8.9.5.3.9.8,1.1,1.3.3.5.4,1.2.4,1.9Z"/>
      <path class="cls-6" d="M242.9,392.5h-3.3v10.9c0,.6-.1,1.1-.4,1.4s-.6.5-1.1.5-.8-.2-1.1-.5c-.3-.3-.4-.8-.4-1.4v-10.9h-3.3c-.5,0-.9-.1-1.2-.3s-.4-.5-.4-.9.1-.7.4-.9c.3-.2.6-.3,1.1-.3h9.7c.5,0,.9.1,1.2.3.3.2.4.5.4.9s-.1.7-.4.9-.6.3-1.2.3Z"/>
      <path class="cls-6" d="M252.6,389.7c1.6,0,2.9.3,4,.9,1.1.6,2,1.5,2.5,2.7.6,1.2.9,2.5.9,4.1s-.2,2.2-.5,3.2-.8,1.8-1.4,2.5-1.4,1.2-2.3,1.6-2,.6-3.1.6-2.2-.2-3.2-.6c-.9-.4-1.7-.9-2.3-1.6-.6-.7-1.1-1.5-1.4-2.5-.3-1-.5-2-.5-3.1s.2-2.2.5-3.2c.3-1,.8-1.8,1.4-2.5.6-.7,1.4-1.2,2.3-1.6.9-.4,1.9-.5,3.1-.5ZM256.9,397.4c0-1.1-.2-2.1-.5-2.9s-.9-1.4-1.5-1.8-1.4-.6-2.3-.6-1.2.1-1.7.3c-.5.2-1,.6-1.3,1s-.7,1-.9,1.7c-.2.7-.3,1.4-.3,2.3s.1,1.6.3,2.3c.2.7.5,1.3.9,1.7.4.5.8.8,1.4,1,.5.2,1.1.3,1.7.3s1.5-.2,2.1-.6,1.2-1,1.6-1.8.6-1.8.6-3Z"/>
      <path class="cls-6" d="M267.7,402.7l-2.4-9.6v10.4c0,.6-.1,1-.4,1.3-.3.3-.6.4-1,.4s-.7-.1-1-.4c-.3-.3-.4-.7-.4-1.3v-11.9c0-.7.2-1.1.5-1.3s.8-.3,1.4-.3h.9c.6,0,1,0,1.2.2.3.1.4.3.6.6.1.3.3.7.4,1.3l2.2,8.2,2.2-8.2c.2-.6.3-1,.4-1.3.1-.3.3-.5.6-.6.3-.1.7-.2,1.2-.2h.9c.6,0,1,.1,1.4.3s.5.7.5,1.3v11.9c0,.6-.1,1-.4,1.3-.3.3-.6.4-1,.4s-.7-.1-1-.4-.4-.7-.4-1.3v-10.4l-2.4,9.6c-.2.6-.3,1.1-.4,1.4,0,.3-.3.6-.5.8s-.6.4-1.1.4-.7,0-.9-.2c-.2-.2-.4-.3-.6-.6-.1-.2-.2-.5-.3-.8s-.2-.6-.2-.9Z"/>
      <path class="cls-6" d="M290,392.3h-6.9v3.7h6.3c.5,0,.8.1,1,.3s.3.5.3.8-.1.6-.3.8c-.2.2-.6.3-1,.3h-6.3v4.3h7.1c.5,0,.8.1,1.1.3.2.2.4.5.4.9s-.1.6-.4.9-.6.3-1.1.3h-8.3c-.7,0-1.1-.1-1.4-.4-.3-.3-.4-.8-.4-1.4v-11.3c0-.4,0-.8.2-1.1.1-.3.3-.5.6-.6.3-.1.6-.2,1.1-.2h8c.5,0,.8.1,1.1.3.2.2.4.5.4.8s-.1.6-.4.9c-.2.2-.6.3-1.1.3Z"/>
      <path class="cls-6" d="M298.2,398.6h-1.1v4.8c0,.6-.1,1.1-.4,1.4s-.6.5-1.1.5-.9-.2-1.1-.5-.4-.8-.4-1.4v-11.6c0-.7.1-1.1.4-1.4.3-.3.8-.4,1.4-.4h5c.7,0,1.3,0,1.8,0,.5,0,.9.2,1.3.4.5.2.9.5,1.3.9s.6.8.8,1.3.3,1,.3,1.6c0,1.1-.3,2-.9,2.7-.6.7-1.6,1.1-2.9,1.4.5.3,1.1.7,1.5,1.3s.9,1.2,1.3,1.8c.4.6.7,1.2.9,1.7.2.5.3.9.3,1.1s0,.4-.2.6c-.1.2-.3.3-.5.5-.2.1-.5.2-.8.2s-.6,0-.9-.2-.4-.4-.6-.6-.4-.6-.7-1.1l-1.2-2c-.4-.7-.8-1.3-1.2-1.7s-.7-.7-1.1-.8-.8-.2-1.3-.2ZM300,392.3h-2.8v4.1h2.7c.7,0,1.3,0,1.8-.2s.9-.3,1.1-.6c.3-.3.4-.7.4-1.3s-.1-.8-.3-1.1c-.2-.3-.5-.6-.9-.7-.4-.2-1.1-.2-2.1-.2Z"/>
      <path class="cls-6" d="M325.9,400.5c0,.9-.2,1.7-.7,2.5-.5.7-1.2,1.3-2.1,1.7s-2,.6-3.2.6-2.7-.3-3.7-.8c-.7-.4-1.2-.9-1.7-1.6-.4-.7-.6-1.3-.6-2s.1-.7.4-.9c.3-.3.6-.4,1-.4s.6.1.8.3c.2.2.4.5.6.9.2.5.4.9.6,1.2.2.3.5.6.9.8.4.2.9.3,1.6.3s1.6-.2,2.2-.6c.6-.4.8-.9.8-1.6s-.2-.9-.5-1.2-.7-.5-1.2-.7c-.5-.2-1.1-.3-1.9-.5-1.1-.3-2-.5-2.7-.9-.7-.3-1.3-.8-1.7-1.4-.4-.6-.6-1.3-.6-2.2s.2-1.6.7-2.2,1.1-1.1,2-1.5,1.9-.5,3-.5,1.7.1,2.4.3c.7.2,1.2.5,1.7.9.4.4.8.8,1,1.2s.3.8.3,1.2-.1.7-.4,1c-.3.3-.6.4-1,.4s-.6,0-.8-.3c-.2-.2-.4-.5-.6-.9-.3-.6-.6-1-1-1.3-.4-.3-1-.5-1.8-.5s-1.4.2-1.9.5c-.5.3-.7.8-.7,1.2s0,.6.2.8.4.4.7.6c.3.2.6.3.9.4.3,0,.8.2,1.5.4.8.2,1.6.4,2.3.7.7.2,1.3.5,1.8.9.5.3.9.8,1.1,1.3.3.5.4,1.2.4,1.9Z"/>
      <path class="cls-6" d="M338.4,392.3h-6.9v3.7h6.3c.5,0,.8.1,1,.3s.3.5.3.8-.1.6-.3.8c-.2.2-.6.3-1,.3h-6.3v4.3h7.1c.5,0,.8.1,1.1.3.2.2.4.5.4.9s-.1.6-.4.9-.6.3-1.1.3h-8.3c-.7,0-1.1-.1-1.4-.4-.3-.3-.4-.8-.4-1.4v-11.3c0-.4,0-.8.2-1.1.1-.3.3-.5.6-.6.3-.1.6-.2,1.1-.2h8c.5,0,.8.1,1.1.3.2.2.4.5.4.8s-.1.6-.4.9c-.2.2-.6.3-1.1.3Z"/>
      <path class="cls-6" d="M346.6,398.6h-1.1v4.8c0,.6-.1,1.1-.4,1.4s-.6.5-1.1.5-.9-.2-1.1-.5-.4-.8-.4-1.4v-11.6c0-.7.1-1.1.4-1.4.3-.3.8-.4,1.4-.4h5c.7,0,1.3,0,1.8,0,.5,0,.9.2,1.3.4.5.2.9.5,1.3.9s.6.8.8,1.3.3,1,.3,1.6c0,1.1-.3,2-.9,2.7-.6.7-1.6,1.1-2.9,1.4.5.3,1.1.7,1.5,1.3s.9,1.2,1.3,1.8c.4.6.7,1.2.9,1.7.2.5.3.9.3,1.1s0,.4-.2.6c-.1.2-.3.3-.5.5-.2.1-.5.2-.8.2s-.6,0-.9-.2-.4-.4-.6-.6-.4-.6-.7-1.1l-1.2-2c-.4-.7-.8-1.3-1.2-1.7s-.7-.7-1.1-.8-.8-.2-1.3-.2ZM348.3,392.3h-2.8v4.1h2.7c.7,0,1.3,0,1.8-.2s.9-.3,1.1-.6c.3-.3.4-.7.4-1.3s-.1-.8-.3-1.1c-.2-.3-.5-.6-.9-.7-.4-.2-1.1-.2-2.1-.2Z"/>
      <path class="cls-6" d="M359.3,391.7l3.4,10.1,3.4-10.2c.2-.5.3-.9.4-1.1,0-.2.2-.4.4-.6s.5-.3.8-.3.5,0,.7.2.4.3.5.5c.1.2.2.4.2.7s0,.3,0,.5c0,.2,0,.3-.2.5s-.1.3-.2.5l-3.6,9.8c-.1.4-.3.7-.4,1.1-.1.3-.3.6-.5.9-.2.3-.4.5-.7.6-.3.2-.6.2-1,.2s-.8,0-1-.2-.5-.4-.7-.6c-.2-.3-.3-.6-.5-.9s-.3-.7-.4-1.1l-3.6-9.7c0-.2-.1-.4-.2-.5,0-.2-.1-.4-.2-.6,0-.2,0-.4,0-.5,0-.3.1-.7.4-1s.6-.4,1.1-.4.9.2,1.1.5c.2.3.4.8.7,1.5Z"/>
      <path class="cls-6" d="M371.6,403.4v-11.8c0-.6.1-1.1.4-1.4s.6-.5,1.1-.5.8.2,1.1.5c.3.3.4.8.4,1.4v11.8c0,.6-.1,1.1-.4,1.4-.3.3-.7.5-1.1.5s-.8-.2-1.1-.5c-.3-.3-.4-.8-.4-1.4Z"/>
      <path class="cls-6" d="M390.9,400.3c0,.5-.1,1-.4,1.6-.2.6-.6,1.1-1.1,1.6-.5.5-1.2,1-1.9,1.3s-1.7.5-2.7.5-1.5,0-2.2-.2-1.2-.4-1.8-.7c-.5-.3-1-.7-1.5-1.3-.4-.5-.7-1-1-1.6-.3-.6-.5-1.2-.6-1.9-.1-.7-.2-1.4-.2-2.1,0-1.2.2-2.3.5-3.2.4-1,.9-1.8,1.5-2.5.7-.7,1.4-1.2,2.3-1.6s1.8-.5,2.8-.5,2.3.2,3.3.7,1.7,1.1,2.2,1.8.8,1.4.8,2-.1.7-.4.9c-.2.3-.5.4-.9.4s-.7,0-.9-.3c-.2-.2-.4-.5-.7-1-.4-.7-.9-1.3-1.4-1.7s-1.2-.6-2-.6c-1.3,0-2.2.5-3,1.4-.7,1-1.1,2.3-1.1,4.1s.2,2.1.5,2.9.8,1.4,1.4,1.7,1.3.6,2.1.6,1.6-.2,2.2-.7c.6-.4,1.1-1.1,1.4-1.9.1-.4.3-.7.5-1,.2-.2.5-.4.9-.4s.7.1.9.4c.3.3.4.6.4.9Z"/>
      <path class="cls-6" d="M403.5,392.3h-6.9v3.7h6.3c.5,0,.8.1,1,.3s.3.5.3.8-.1.6-.3.8c-.2.2-.6.3-1,.3h-6.3v4.3h7.1c.5,0,.8.1,1.1.3.2.2.4.5.4.9s-.1.6-.4.9-.6.3-1.1.3h-8.3c-.7,0-1.1-.1-1.4-.4-.3-.3-.4-.8-.4-1.4v-11.3c0-.4,0-.8.2-1.1.1-.3.3-.5.6-.6.3-.1.6-.2,1.1-.2h8c.5,0,.8.1,1.1.3.2.2.4.5.4.8s-.1.6-.4.9c-.2.2-.6.3-1.1.3Z"/>
    </g>
    <g>
      <path class="cls-6" d="M223.1,607.6h-1.1v4.8c0,.6-.1,1.1-.4,1.4-.3.3-.6.5-1.1.5s-.9-.2-1.1-.5c-.3-.3-.4-.8-.4-1.4v-11.6c0-.7.1-1.1.4-1.4.3-.3.8-.4,1.4-.4h5c.7,0,1.3,0,1.8,0,.5,0,.9.2,1.3.4.5.2.9.5,1.3.9s.6.8.8,1.3c.2.5.3,1,.3,1.6,0,1.1-.3,2-.9,2.7-.6.7-1.6,1.1-2.9,1.4.5.3,1.1.7,1.5,1.3s.9,1.2,1.3,1.8c.4.6.7,1.2.9,1.7.2.5.3.9.3,1.1s0,.4-.2.6c-.1.2-.3.3-.5.5-.2.1-.5.2-.8.2s-.6,0-.9-.2c-.2-.2-.4-.4-.6-.6s-.4-.6-.7-1.1l-1.2-2c-.4-.7-.8-1.3-1.2-1.7s-.7-.7-1.1-.8-.8-.2-1.3-.2ZM224.8,601.3h-2.8v4.1h2.7c.7,0,1.3,0,1.8-.2.5-.1.9-.3,1.1-.6.3-.3.4-.7.4-1.3s-.1-.8-.3-1.1c-.2-.3-.5-.6-.9-.7-.4-.2-1.1-.2-2.1-.2Z"/>
      <path class="cls-6" d="M244,601.3h-6.9v3.7h6.3c.5,0,.8.1,1,.3.2.2.3.5.3.8s-.1.6-.3.8c-.2.2-.6.3-1,.3h-6.3v4.3h7.1c.5,0,.8.1,1.1.3.2.2.4.5.4.9s-.1.6-.4.9c-.2.2-.6.3-1.1.3h-8.3c-.7,0-1.1-.1-1.4-.4-.3-.3-.4-.8-.4-1.4v-11.3c0-.4,0-.8.2-1.1.1-.3.3-.5.6-.6.3-.1.6-.2,1.1-.2h8c.5,0,.8.1,1.1.3.2.2.4.5.4.8s-.1.6-.4.9c-.2.2-.6.3-1.1.3Z"/>
      <path class="cls-6" d="M250,599h4c1,0,1.9,0,2.7.3s1.4.6,2,1.1c1.6,1.3,2.3,3.4,2.3,6.1s0,1.7-.2,2.5-.4,1.4-.7,2c-.3.6-.7,1.1-1.3,1.6-.4.4-.8.7-1.3.9s-1,.4-1.5.5-1.2.1-1.9.1h-4c-.6,0-1,0-1.3-.3-.3-.2-.5-.4-.5-.7,0-.3-.1-.7-.1-1.2v-11c0-.7.1-1.1.4-1.4.3-.3.8-.4,1.4-.4ZM251.2,601.4v10.2h2.3c.5,0,.9,0,1.2,0s.6,0,.9-.2.6-.3.8-.5c1-.9,1.5-2.3,1.5-4.5s-.2-2.6-.7-3.3-1-1.2-1.7-1.4c-.7-.2-1.4-.3-2.4-.3h-2Z"/>
      <path class="cls-6" d="M263.7,607.8v-7.2c0-.6.1-1.1.4-1.4.3-.3.6-.5,1.1-.5s.8.2,1.1.5c.3.3.4.8.4,1.4v7.4c0,.8,0,1.5.3,2.1.2.6.5,1,1,1.3.5.3,1.1.5,2,.5s2-.3,2.5-.9c.5-.6.7-1.6.7-2.9v-7.5c0-.6.1-1.1.4-1.4.3-.3.6-.5,1.1-.5s.8.2,1.1.5c.3.3.4.8.4,1.4v7.2c0,1.2-.1,2.2-.3,2.9-.2.8-.7,1.5-1.3,2.1-.5.5-1.2.9-1.9,1.1-.7.2-1.6.3-2.5.3s-2.1-.1-3-.4c-.8-.2-1.5-.6-2-1.2-.5-.5-.9-1.2-1.2-2-.2-.8-.4-1.8-.4-2.9Z"/>
      <path class="cls-6" d="M292.4,609.3c0,.5-.1,1-.4,1.6-.2.6-.6,1.1-1.1,1.6-.5.5-1.2,1-1.9,1.3s-1.7.5-2.7.5-1.5,0-2.2-.2c-.6-.2-1.2-.4-1.8-.7-.5-.3-1-.7-1.5-1.3-.4-.5-.7-1-1-1.6-.3-.6-.5-1.2-.6-1.9s-.2-1.4-.2-2.1c0-1.2.2-2.3.5-3.2.4-1,.9-1.8,1.5-2.5.7-.7,1.4-1.2,2.3-1.6.9-.4,1.8-.5,2.8-.5s2.3.2,3.3.7,1.7,1.1,2.2,1.8c.5.7.8,1.4.8,2s-.1.7-.4.9c-.2.3-.5.4-.9.4s-.7,0-.9-.3c-.2-.2-.4-.5-.7-1-.4-.7-.9-1.3-1.4-1.7s-1.2-.6-2-.6c-1.3,0-2.2.5-3,1.4-.7,1-1.1,2.3-1.1,4.1s.2,2.1.5,2.9c.3.8.8,1.4,1.4,1.7.6.4,1.3.6,2.1.6s1.6-.2,2.2-.7c.6-.4,1.1-1.1,1.4-1.9.1-.4.3-.7.5-1,.2-.2.5-.4.9-.4s.7.1.9.4c.3.3.4.6.4.9Z"/>
      <path class="cls-6" d="M295.3,612.4v-11.8c0-.6.1-1.1.4-1.4s.6-.5,1.1-.5.8.2,1.1.5c.3.3.4.8.4,1.4v11.8c0,.6-.1,1.1-.4,1.4-.3.3-.7.5-1.1.5s-.8-.2-1.1-.5c-.3-.3-.4-.8-.4-1.4Z"/>
      <path class="cls-6" d="M305.7,600.5l5.9,8.9v-8.9c0-.6.1-1,.4-1.3.2-.3.6-.4,1-.4s.8.1,1,.4c.3.3.4.7.4,1.3v11.8c0,1.3-.5,2-1.6,2s-.5,0-.7-.1c-.2,0-.4-.2-.6-.4-.2-.2-.4-.4-.5-.6-.2-.2-.3-.5-.5-.7l-5.7-8.8v8.8c0,.6-.1,1-.4,1.3s-.6.4-1,.4-.8-.1-1-.4c-.3-.3-.4-.7-.4-1.3v-11.6c0-.5,0-.9.2-1.2.1-.3.3-.6.6-.8.3-.2.6-.3,1-.3s.5,0,.7.1c.2,0,.4.2.5.4.1.2.3.3.5.6.2.2.3.5.5.7Z"/>
      <path class="cls-6" d="M331.4,607.9v2.9c0,.4,0,.7-.1.9,0,.2-.2.4-.4.6-.2.2-.5.4-.8.5-.9.5-1.8.9-2.6,1.1s-1.8.3-2.7.3-2.2-.2-3.2-.5c-1-.4-1.8-.9-2.4-1.5s-1.2-1.5-1.5-2.5c-.4-1-.5-2-.5-3.2s.2-2.2.5-3.2.9-1.8,1.5-2.5c.7-.7,1.5-1.2,2.5-1.6,1-.4,2.1-.5,3.3-.5s1.9.1,2.7.4c.8.3,1.4.6,1.9,1s.9.8,1.1,1.3.4.9.4,1.2-.1.7-.4,1c-.3.3-.6.4-1,.4s-.4,0-.6-.2c-.2-.1-.4-.2-.5-.4-.4-.6-.7-1-1-1.3s-.6-.6-1.1-.8c-.4-.2-1-.3-1.7-.3s-1.3.1-1.9.4c-.6.2-1,.6-1.4,1.1-.4.5-.7,1-.9,1.7-.2.7-.3,1.4-.3,2.2,0,1.8.4,3.1,1.2,4.1.8,1,1.9,1.4,3.4,1.4s1.4,0,2-.3c.6-.2,1.2-.4,1.9-.8v-2.4h-2.4c-.6,0-1,0-1.3-.3-.3-.2-.4-.5-.4-.9s.1-.6.4-.8.6-.3,1-.3h3.5c.4,0,.8,0,1.1.1.3,0,.5.2.7.5s.3.6.3,1.2Z"/>
      <path class="cls-6" d="M199.3,626.5h-6v3.8h5c.5,0,.8.1,1,.3.2.2.3.5.3.8s-.1.6-.3.8-.6.3-1,.3h-5v5c0,.6-.1,1.1-.4,1.4-.3.3-.6.5-1.1.5s-.8-.2-1.1-.5c-.3-.3-.4-.8-.4-1.4v-11.6c0-.4,0-.8.2-1.1.1-.3.3-.5.6-.6.3-.1.6-.2,1.1-.2h7.2c.5,0,.8.1,1.1.3.2.2.4.5.4.8s-.1.6-.4.9c-.2.2-.6.3-1.1.3Z"/>
      <path class="cls-6" d="M207.1,632.8h-1.1v4.8c0,.6-.1,1.1-.4,1.4-.3.3-.6.5-1.1.5s-.9-.2-1.1-.5c-.3-.3-.4-.8-.4-1.4v-11.6c0-.7.1-1.1.4-1.4.3-.3.8-.4,1.4-.4h5c.7,0,1.3,0,1.8,0,.5,0,.9.2,1.3.4.5.2.9.5,1.3.9s.6.8.8,1.3c.2.5.3,1,.3,1.6,0,1.1-.3,2-.9,2.7-.6.7-1.6,1.1-2.9,1.4.5.3,1.1.7,1.5,1.3s.9,1.2,1.3,1.8c.4.6.7,1.2.9,1.7.2.5.3.9.3,1.1s0,.4-.2.6c-.1.2-.3.3-.5.5-.2.1-.5.2-.8.2s-.6,0-.9-.2c-.2-.2-.4-.4-.6-.6s-.4-.6-.7-1.1l-1.2-2c-.4-.7-.8-1.3-1.2-1.7s-.7-.7-1.1-.8-.8-.2-1.3-.2ZM208.8,626.5h-2.8v4.1h2.7c.7,0,1.3,0,1.8-.2.5-.1.9-.3,1.1-.6.3-.3.4-.7.4-1.3s-.1-.8-.3-1.1c-.2-.3-.5-.6-.9-.7-.4-.2-1.1-.2-2.1-.2Z"/>
      <path class="cls-6" d="M228,626.5h-6.9v3.7h6.3c.5,0,.8.1,1,.3.2.2.3.5.3.8s-.1.6-.3.8c-.2.2-.6.3-1,.3h-6.3v4.3h7.1c.5,0,.8.1,1.1.3.2.2.4.5.4.9s-.1.6-.4.9c-.2.2-.6.3-1.1.3h-8.3c-.7,0-1.1-.1-1.4-.4-.3-.3-.4-.8-.4-1.4v-11.3c0-.4,0-.8.2-1.1.1-.3.3-.5.6-.6.3-.1.6-.2,1.1-.2h8c.5,0,.8.1,1.1.3.2.2.4.5.4.8s-.1.6-.4.9c-.2.2-.6.3-1.1.3Z"/>
      <path class="cls-6" d="M232.2,637.6v-11.8c0-.6.1-1.1.4-1.4s.6-.5,1.1-.5.8.2,1.1.5c.3.3.4.8.4,1.4v11.8c0,.6-.1,1.1-.4,1.4-.3.3-.7.5-1.1.5s-.8-.2-1.1-.5c-.3-.3-.4-.8-.4-1.4Z"/>
      <path class="cls-6" d="M252.4,633.1v2.9c0,.4,0,.7-.1.9,0,.2-.2.4-.4.6-.2.2-.5.4-.8.5-.9.5-1.8.9-2.6,1.1s-1.8.3-2.7.3-2.2-.2-3.2-.5c-1-.4-1.8-.9-2.4-1.5s-1.2-1.5-1.5-2.5c-.4-1-.5-2-.5-3.2s.2-2.2.5-3.2.9-1.8,1.5-2.5c.7-.7,1.5-1.2,2.5-1.6,1-.4,2.1-.5,3.3-.5s1.9.1,2.7.4c.8.3,1.4.6,1.9,1s.9.8,1.1,1.3.4.9.4,1.2-.1.7-.4,1c-.3.3-.6.4-1,.4s-.4,0-.6-.2c-.2-.1-.4-.2-.5-.4-.4-.6-.7-1-1-1.3s-.6-.6-1.1-.8c-.4-.2-1-.3-1.7-.3s-1.3.1-1.9.4c-.6.2-1,.6-1.4,1.1-.4.5-.7,1-.9,1.7-.2.7-.3,1.4-.3,2.2,0,1.8.4,3.1,1.2,4.1.8,1,1.9,1.4,3.4,1.4s1.4,0,2-.3c.6-.2,1.2-.4,1.9-.8v-2.4h-2.4c-.6,0-1,0-1.3-.3-.3-.2-.4-.5-.4-.9s.1-.6.4-.8.6-.3,1-.3h3.5c.4,0,.8,0,1.1.1.3,0,.5.2.7.5s.3.6.3,1.2Z"/>
      <path class="cls-6" d="M258.4,625.8v4.3h6.6v-4.3c0-.6.1-1.1.4-1.4.3-.3.6-.5,1.1-.5s.8.2,1.1.5c.3.3.4.8.4,1.4v11.8c0,.6-.1,1.1-.4,1.4s-.7.5-1.1.5-.8-.2-1.1-.5c-.3-.3-.4-.8-.4-1.4v-5.1h-6.6v5.1c0,.6-.1,1.1-.4,1.4s-.7.5-1.1.5-.8-.2-1.1-.5c-.3-.3-.4-.8-.4-1.4v-11.8c0-.6.1-1.1.4-1.4.3-.3.6-.5,1.1-.5s.8.2,1.1.5c.3.3.4.8.4,1.4Z"/>
      <path class="cls-6" d="M281,626.7h-3.3v10.9c0,.6-.1,1.1-.4,1.4-.3.3-.6.5-1.1.5s-.8-.2-1.1-.5c-.3-.3-.4-.8-.4-1.4v-10.9h-3.3c-.5,0-.9-.1-1.2-.3-.3-.2-.4-.5-.4-.9s.1-.7.4-.9c.3-.2.6-.3,1.1-.3h9.7c.5,0,.9.1,1.2.3.3.2.4.5.4.9s-.1.7-.4.9c-.3.2-.6.3-1.2.3Z"/>
      <path class="cls-6" d="M302.5,634.5c0,.5-.1,1-.4,1.6-.2.6-.6,1.1-1.1,1.6-.5.5-1.2,1-1.9,1.3s-1.7.5-2.7.5-1.5,0-2.2-.2c-.6-.2-1.2-.4-1.8-.7-.5-.3-1-.7-1.5-1.3-.4-.5-.7-1-1-1.6-.3-.6-.5-1.2-.6-1.9s-.2-1.4-.2-2.1c0-1.2.2-2.3.5-3.2.4-1,.9-1.8,1.5-2.5.7-.7,1.4-1.2,2.3-1.6.9-.4,1.8-.5,2.8-.5s2.3.2,3.3.7,1.7,1.1,2.2,1.8c.5.7.8,1.4.8,2s-.1.7-.4.9c-.2.3-.5.4-.9.4s-.7,0-.9-.3c-.2-.2-.4-.5-.7-1-.4-.7-.9-1.3-1.4-1.7s-1.2-.6-2-.6c-1.3,0-2.2.5-3,1.4-.7,1-1.1,2.3-1.1,4.1s.2,2.1.5,2.9c.3.8.8,1.4,1.4,1.7.6.4,1.3.6,2.1.6s1.6-.2,2.2-.7c.6-.4,1.1-1.1,1.4-1.9.1-.4.3-.7.5-1,.2-.2.5-.4.9-.4s.7.1.9.4c.3.3.4.6.4.9Z"/>
      <path class="cls-6" d="M311.8,623.9c1.6,0,2.9.3,4,.9,1.1.6,2,1.5,2.5,2.7.6,1.2.9,2.5.9,4.1s-.2,2.2-.5,3.2-.8,1.8-1.4,2.5-1.4,1.2-2.3,1.6-2,.6-3.1.6-2.2-.2-3.2-.6c-.9-.4-1.7-.9-2.3-1.6-.6-.7-1.1-1.5-1.4-2.5-.3-1-.5-2-.5-3.1s.2-2.2.5-3.2c.3-1,.8-1.8,1.4-2.5.6-.7,1.4-1.2,2.3-1.6.9-.4,1.9-.5,3.1-.5ZM316.1,631.6c0-1.1-.2-2.1-.5-2.9s-.9-1.4-1.5-1.8c-.7-.4-1.4-.6-2.3-.6s-1.2.1-1.7.3c-.5.2-1,.6-1.3,1s-.7,1-.9,1.7c-.2.7-.3,1.4-.3,2.3s.1,1.6.3,2.3c.2.7.5,1.3.9,1.7.4.5.8.8,1.4,1,.5.2,1.1.3,1.7.3s1.5-.2,2.1-.6,1.2-1,1.6-1.8.6-1.8.6-3Z"/>
      <path class="cls-6" d="M333.2,634.7c0,.9-.2,1.7-.7,2.5-.5.7-1.2,1.3-2.1,1.7s-2,.6-3.2.6-2.7-.3-3.7-.8c-.7-.4-1.2-.9-1.7-1.6-.4-.7-.6-1.3-.6-2s.1-.7.4-.9c.3-.3.6-.4,1-.4s.6.1.8.3c.2.2.4.5.6.9.2.5.4.9.6,1.2.2.3.5.6.9.8.4.2.9.3,1.6.3s1.6-.2,2.2-.6c.6-.4.8-.9.8-1.6s-.2-.9-.5-1.2c-.3-.3-.7-.5-1.2-.7-.5-.2-1.1-.3-1.9-.5-1.1-.3-2-.5-2.7-.9-.7-.3-1.3-.8-1.7-1.4-.4-.6-.6-1.3-.6-2.2s.2-1.6.7-2.2,1.1-1.1,2-1.5c.9-.3,1.9-.5,3-.5s1.7.1,2.4.3c.7.2,1.2.5,1.7.9.4.4.8.8,1,1.2s.3.8.3,1.2-.1.7-.4,1c-.3.3-.6.4-1,.4s-.6,0-.8-.3c-.2-.2-.4-.5-.6-.9-.3-.6-.6-1-1-1.3-.4-.3-1-.5-1.8-.5s-1.4.2-1.9.5c-.5.3-.7.8-.7,1.2s0,.6.2.8.4.4.7.6.6.3.9.4.8.2,1.5.4c.8.2,1.6.4,2.3.7.7.2,1.3.5,1.8.9.5.3.9.8,1.1,1.3.3.5.4,1.2.4,1.9Z"/>
      <path class="cls-6" d="M345.6,626.7h-3.3v10.9c0,.6-.1,1.1-.4,1.4-.3.3-.6.5-1.1.5s-.8-.2-1.1-.5c-.3-.3-.4-.8-.4-1.4v-10.9h-3.3c-.5,0-.9-.1-1.2-.3-.3-.2-.4-.5-.4-.9s.1-.7.4-.9c.3-.2.6-.3,1.1-.3h9.7c.5,0,.9.1,1.2.3.3.2.4.5.4.9s-.1.7-.4.9c-.3.2-.6.3-1.2.3Z"/>
      <path class="cls-6" d="M360.4,634.7c0,.9-.2,1.7-.7,2.5-.5.7-1.2,1.3-2.1,1.7s-2,.6-3.2.6-2.7-.3-3.7-.8c-.7-.4-1.2-.9-1.7-1.6-.4-.7-.6-1.3-.6-2s.1-.7.4-.9c.3-.3.6-.4,1-.4s.6.1.8.3c.2.2.4.5.6.9.2.5.4.9.6,1.2.2.3.5.6.9.8.4.2.9.3,1.6.3s1.6-.2,2.2-.6c.6-.4.8-.9.8-1.6s-.2-.9-.5-1.2c-.3-.3-.7-.5-1.2-.7-.5-.2-1.1-.3-1.9-.5-1.1-.3-2-.5-2.7-.9-.7-.3-1.3-.8-1.7-1.4-.4-.6-.6-1.3-.6-2.2s.2-1.6.7-2.2,1.1-1.1,2-1.5c.9-.3,1.9-.5,3-.5s1.7.1,2.4.3c.7.2,1.2.5,1.7.9.4.4.8.8,1,1.2s.3.8.3,1.2-.1.7-.4,1c-.3.3-.6.4-1,.4s-.6,0-.8-.3c-.2-.2-.4-.5-.6-.9-.3-.6-.6-1-1-1.3-.4-.3-1-.5-1.8-.5s-1.4.2-1.9.5c-.5.3-.7.8-.7,1.2s0,.6.2.8.4.4.7.6.6.3.9.4.8.2,1.5.4c.8.2,1.6.4,2.3.7.7.2,1.3.5,1.8.9.5.3.9.8,1.1,1.3.3.5.4,1.2.4,1.9Z"/>
    </g>
    <g>
      <path class="cls-6" d="M1052.6,129.3h-6v3.8h5c.5,0,.8.1,1,.3.2.2.3.5.3.8s-.1.6-.3.8-.6.3-1,.3h-5v5c0,.6-.1,1.1-.4,1.4-.3.3-.6.5-1.1.5s-.8-.2-1.1-.5c-.3-.3-.4-.8-.4-1.4v-11.6c0-.4,0-.8.2-1.1.1-.3.3-.5.6-.6.3-.1.6-.2,1.1-.2h7.2c.5,0,.8.1,1.1.3.2.2.4.5.4.8s-.1.6-.4.9c-.2.2-.6.3-1.1.3Z"/>
      <path class="cls-6" d="M1060.4,135.6h-1.1v4.8c0,.6-.1,1.1-.4,1.4s-.6.5-1.1.5-.9-.2-1.1-.5c-.3-.3-.4-.8-.4-1.4v-11.6c0-.7.1-1.1.4-1.4s.8-.4,1.4-.4h5c.7,0,1.3,0,1.8,0,.5,0,.9.2,1.3.4.5.2.9.5,1.3.9s.6.8.8,1.3c.2.5.3,1,.3,1.6,0,1.1-.3,2-.9,2.7-.6.7-1.6,1.1-2.9,1.4.5.3,1.1.7,1.5,1.3s.9,1.2,1.3,1.8c.4.6.7,1.2.9,1.7.2.5.3.9.3,1.1s0,.4-.2.6c-.1.2-.3.3-.5.5-.2.1-.5.2-.8.2s-.6,0-.9-.2c-.2-.2-.4-.4-.6-.6-.2-.2-.4-.6-.7-1.1l-1.2-2c-.4-.7-.8-1.3-1.2-1.7-.3-.4-.7-.7-1.1-.8s-.8-.2-1.3-.2ZM1062.1,129.3h-2.8v4.1h2.7c.7,0,1.3,0,1.8-.2s.9-.3,1.1-.6c.3-.3.4-.7.4-1.3s-.1-.8-.3-1.1c-.2-.3-.5-.6-.9-.7-.4-.2-1.1-.2-2.1-.2Z"/>
      <path class="cls-6" d="M1081.3,129.3h-6.9v3.7h6.3c.5,0,.8.1,1,.3.2.2.3.5.3.8s-.1.6-.3.8c-.2.2-.6.3-1,.3h-6.3v4.3h7.1c.5,0,.8.1,1.1.3.2.2.4.5.4.9s-.1.6-.4.9c-.2.2-.6.3-1.1.3h-8.3c-.7,0-1.1-.1-1.4-.4-.3-.3-.4-.8-.4-1.4v-11.3c0-.4,0-.8.2-1.1.1-.3.3-.5.6-.6.3-.1.6-.2,1.1-.2h8c.5,0,.8.1,1.1.3.2.2.4.5.4.8s-.1.6-.4.9c-.2.2-.6.3-1.1.3Z"/>
      <path class="cls-6" d="M1085.5,140.4v-11.8c0-.6.1-1.1.4-1.4s.6-.5,1.1-.5.8.2,1.1.5c.3.3.4.8.4,1.4v11.8c0,.6-.1,1.1-.4,1.4-.3.3-.7.5-1.1.5s-.8-.2-1.1-.5c-.3-.3-.4-.8-.4-1.4Z"/>
      <path class="cls-6" d="M1105.7,135.9v2.9c0,.4,0,.7-.1.9,0,.2-.2.4-.4.6-.2.2-.5.4-.8.5-.9.5-1.8.9-2.6,1.1s-1.8.3-2.7.3-2.2-.2-3.2-.5-1.8-.9-2.4-1.5c-.7-.7-1.2-1.5-1.5-2.5-.4-1-.5-2-.5-3.2s.2-2.2.5-3.2c.3-1,.9-1.8,1.5-2.5.7-.7,1.5-1.2,2.5-1.6,1-.4,2.1-.5,3.3-.5s1.9.1,2.7.4c.8.3,1.4.6,1.9,1,.5.4.9.8,1.1,1.3s.4.9.4,1.2-.1.7-.4,1c-.3.3-.6.4-1,.4s-.4,0-.6-.2c-.2-.1-.4-.2-.5-.4-.4-.6-.7-1-1-1.3s-.6-.6-1.1-.8c-.4-.2-1-.3-1.7-.3s-1.3.1-1.9.4-1,.6-1.4,1.1c-.4.5-.7,1-.9,1.7-.2.7-.3,1.4-.3,2.2,0,1.8.4,3.1,1.2,4.1.8,1,1.9,1.4,3.4,1.4s1.4,0,2-.3c.6-.2,1.2-.4,1.9-.8v-2.4h-2.4c-.6,0-1,0-1.3-.3-.3-.2-.4-.5-.4-.9s.1-.6.4-.8c.2-.2.6-.3,1-.3h3.5c.4,0,.8,0,1.1.1.3,0,.5.2.7.5.2.3.3.6.3,1.2Z"/>
      <path class="cls-6" d="M1111.7,128.6v4.3h6.6v-4.3c0-.6.1-1.1.4-1.4.3-.3.6-.5,1.1-.5s.8.2,1.1.5c.3.3.4.8.4,1.4v11.8c0,.6-.1,1.1-.4,1.4s-.7.5-1.1.5-.8-.2-1.1-.5c-.3-.3-.4-.8-.4-1.4v-5.1h-6.6v5.1c0,.6-.1,1.1-.4,1.4s-.7.5-1.1.5-.8-.2-1.1-.5c-.3-.3-.4-.8-.4-1.4v-11.8c0-.6.1-1.1.4-1.4.3-.3.6-.5,1.1-.5s.8.2,1.1.5c.3.3.4.8.4,1.4Z"/>
      <path class="cls-6" d="M1134.3,129.5h-3.3v10.9c0,.6-.1,1.1-.4,1.4-.3.3-.6.5-1.1.5s-.8-.2-1.1-.5c-.3-.3-.4-.8-.4-1.4v-10.9h-3.3c-.5,0-.9-.1-1.2-.3-.3-.2-.4-.5-.4-.9s.1-.7.4-.9c.3-.2.6-.3,1.1-.3h9.7c.5,0,.9.1,1.2.3.3.2.4.5.4.9s-.1.7-.4.9-.6.3-1.2.3Z"/>
      <path class="cls-6" d="M1048.7,165.5l-.7-1.9h-6.1l-.7,1.9c-.3.8-.5,1.3-.7,1.5-.2.3-.5.4-1,.4s-.7-.1-1-.4-.4-.6-.4-1,0-.4.1-.6.2-.5.3-.9l3.8-9.8c.1-.3.2-.6.4-1,.2-.4.3-.7.5-1,.2-.3.4-.5.7-.6.3-.2.6-.2,1.1-.2s.8,0,1.1.2c.3.2.5.4.7.6.2.3.3.5.4.8.1.3.3.7.5,1.2l3.9,9.7c.3.7.5,1.3.5,1.6s-.1.7-.4,1c-.3.3-.6.4-1.1.4s-.4,0-.6-.1-.3-.2-.4-.3c-.1-.1-.2-.4-.4-.7-.1-.3-.2-.6-.3-.8ZM1042.7,161.3h4.5l-2.3-6.2-2.2,6.2Z"/>
      <path class="cls-6" d="M1058.2,153.7l5.9,8.9v-8.9c0-.6.1-1,.4-1.3.2-.3.6-.4,1-.4s.8.1,1,.4.4.7.4,1.3v11.8c0,1.3-.5,2-1.6,2s-.5,0-.7-.1c-.2,0-.4-.2-.6-.4-.2-.2-.4-.4-.5-.6-.2-.2-.3-.5-.5-.7l-5.7-8.8v8.8c0,.6-.1,1-.4,1.3-.3.3-.6.4-1,.4s-.8-.1-1-.4c-.3-.3-.4-.7-.4-1.3v-11.6c0-.5,0-.9.2-1.2.1-.3.3-.6.6-.8.3-.2.6-.3,1-.3s.5,0,.7.1c.2,0,.4.2.5.4.1.2.3.3.5.6.2.2.3.5.5.7Z"/>
      <path class="cls-6" d="M1079.5,165.5l-.7-1.9h-6.1l-.7,1.9c-.3.8-.5,1.3-.7,1.5-.2.3-.5.4-1,.4s-.7-.1-1-.4-.4-.6-.4-1,0-.4.1-.6.2-.5.3-.9l3.8-9.8c.1-.3.2-.6.4-1,.2-.4.3-.7.5-1,.2-.3.4-.5.7-.6.3-.2.6-.2,1.1-.2s.8,0,1.1.2c.3.2.5.4.7.6.2.3.3.5.4.8.1.3.3.7.5,1.2l3.9,9.7c.3.7.5,1.3.5,1.6s-.1.7-.4,1c-.3.3-.6.4-1.1.4s-.4,0-.6-.1-.3-.2-.4-.3c-.1-.1-.2-.4-.4-.7-.1-.3-.2-.6-.3-.8ZM1073.5,161.3h4.5l-2.3-6.2-2.2,6.2Z"/>
      <path class="cls-6" d="M1088,153.8v10.9h6.2c.5,0,.9.1,1.1.4.3.2.4.5.4.9s-.1.7-.4.9c-.3.2-.6.3-1.1.3h-7.4c-.7,0-1.1-.1-1.4-.4-.3-.3-.4-.8-.4-1.4v-11.6c0-.6.1-1.1.4-1.4.3-.3.6-.5,1.1-.5s.8.2,1.1.5c.3.3.4.8.4,1.4Z"/>
      <path class="cls-6" d="M1098.4,165.6v-4.8l-3.7-5.7c-.3-.5-.5-.9-.7-1.2-.1-.3-.2-.5-.2-.7,0-.3.1-.6.4-.9.3-.3.6-.4,1-.4s.7.1.9.4c.2.2.5.7,1,1.4l2.8,4.6,2.8-4.6c.2-.3.3-.5.4-.7s.2-.4.4-.5c.1-.2.3-.3.5-.4.2,0,.4-.1.6-.1.4,0,.7.1,1,.4.3.2.4.5.4.9s0,.5-.2.8-.4.6-.7,1.1l-3.8,5.8v4.8c0,.6-.1,1.1-.4,1.4s-.7.5-1.1.5-.8-.2-1.1-.5c-.3-.3-.4-.8-.4-1.4Z"/>
      <path class="cls-6" d="M1119,162.7c0,.9-.2,1.7-.7,2.5-.5.7-1.2,1.3-2.1,1.7s-2,.6-3.2.6-2.7-.3-3.7-.8c-.7-.4-1.2-.9-1.7-1.6-.4-.7-.6-1.3-.6-2s.1-.7.4-.9c.3-.3.6-.4,1-.4s.6.1.8.3c.2.2.4.5.6.9.2.5.4.9.6,1.2.2.3.5.6.9.8.4.2.9.3,1.6.3s1.6-.2,2.2-.6c.6-.4.8-.9.8-1.6s-.2-.9-.5-1.2c-.3-.3-.7-.5-1.2-.7-.5-.2-1.1-.3-1.9-.5-1.1-.3-2-.5-2.7-.9-.7-.3-1.3-.8-1.7-1.4-.4-.6-.6-1.3-.6-2.2s.2-1.6.7-2.2,1.1-1.1,2-1.5,1.9-.5,3-.5,1.7.1,2.4.3c.7.2,1.2.5,1.7.9.4.4.8.8,1,1.2s.3.8.3,1.2-.1.7-.4,1c-.3.3-.6.4-1,.4s-.6,0-.8-.3c-.2-.2-.4-.5-.6-.9-.3-.6-.6-1-1-1.3-.4-.3-1-.5-1.8-.5s-1.4.2-1.9.5c-.5.3-.7.8-.7,1.2s0,.6.2.8.4.4.7.6.6.3.9.4c.3,0,.8.2,1.5.4.8.2,1.6.4,2.3.7.7.2,1.3.5,1.8.9.5.3.9.8,1.1,1.3.3.5.4,1.2.4,1.9Z"/>
      <path class="cls-6" d="M1121.7,165.6v-11.8c0-.6.1-1.1.4-1.4s.6-.5,1.1-.5.8.2,1.1.5c.3.3.4.8.4,1.4v11.8c0,.6-.1,1.1-.4,1.4-.3.3-.7.5-1.1.5s-.8-.2-1.1-.5c-.3-.3-.4-.8-.4-1.4Z"/>
      <path class="cls-6" d="M1139.6,162.7c0,.9-.2,1.7-.7,2.5-.5.7-1.2,1.3-2.1,1.7s-2,.6-3.2.6-2.7-.3-3.7-.8c-.7-.4-1.2-.9-1.7-1.6-.4-.7-.6-1.3-.6-2s.1-.7.4-.9c.3-.3.6-.4,1-.4s.6.1.8.3c.2.2.4.5.6.9.2.5.4.9.6,1.2.2.3.5.6.9.8.4.2.9.3,1.6.3s1.6-.2,2.2-.6c.6-.4.8-.9.8-1.6s-.2-.9-.5-1.2c-.3-.3-.7-.5-1.2-.7-.5-.2-1.1-.3-1.9-.5-1.1-.3-2-.5-2.7-.9-.7-.3-1.3-.8-1.7-1.4-.4-.6-.6-1.3-.6-2.2s.2-1.6.7-2.2,1.1-1.1,2-1.5,1.9-.5,3-.5,1.7.1,2.4.3c.7.2,1.2.5,1.7.9.4.4.8.8,1,1.2s.3.8.3,1.2-.1.7-.4,1c-.3.3-.6.4-1,.4s-.6,0-.8-.3c-.2-.2-.4-.5-.6-.9-.3-.6-.6-1-1-1.3-.4-.3-1-.5-1.8-.5s-1.4.2-1.9.5c-.5.3-.7.8-.7,1.2s0,.6.2.8.4.4.7.6.6.3.9.4c.3,0,.8.2,1.5.4.8.2,1.6.4,2.3.7.7.2,1.3.5,1.8.9.5.3.9.8,1.1,1.3.3.5.4,1.2.4,1.9Z"/>
    </g>
    <g>
      <path class="cls-6" d="M1039,396.4v-11.8c0-.6.1-1.1.4-1.4s.6-.5,1.1-.5.8.2,1.1.5c.3.3.4.8.4,1.4v11.8c0,.6-.1,1.1-.4,1.4-.3.3-.7.5-1.1.5s-.8-.2-1.1-.5c-.3-.3-.4-.8-.4-1.4Z"/>
      <path class="cls-6" d="M1049.5,384.5l5.9,8.9v-8.9c0-.6.1-1,.4-1.3.2-.3.6-.4,1-.4s.8.1,1,.4c.3.3.4.7.4,1.3v11.8c0,1.3-.5,2-1.6,2s-.5,0-.7-.1c-.2,0-.4-.2-.6-.4-.2-.2-.4-.4-.5-.6-.2-.2-.3-.5-.5-.7l-5.7-8.8v8.8c0,.6-.1,1-.4,1.3-.3.3-.6.4-1,.4s-.8-.1-1-.4c-.3-.3-.4-.7-.4-1.3v-11.6c0-.5,0-.9.2-1.2.1-.3.3-.6.6-.8.3-.2.6-.3,1-.3s.5,0,.7.1c.2,0,.4.2.5.4.1.2.3.3.5.6.2.2.3.5.5.7Z"/>
      <path class="cls-6" d="M1063.7,384.7l3.4,10.1,3.4-10.2c.2-.5.3-.9.4-1.1,0-.2.2-.4.4-.6.2-.2.5-.3.8-.3s.5,0,.7.2c.2.1.4.3.5.5.1.2.2.4.2.7s0,.3,0,.5c0,.2,0,.3-.2.5,0,.2-.1.3-.2.5l-3.6,9.8c-.1.4-.3.7-.4,1.1-.1.3-.3.6-.5.9-.2.3-.4.5-.7.6-.3.2-.6.2-1,.2s-.8,0-1-.2c-.3-.2-.5-.4-.7-.6-.2-.3-.3-.6-.5-.9s-.3-.7-.4-1.1l-3.6-9.7c0-.2-.1-.4-.2-.5,0-.2-.1-.4-.2-.6,0-.2,0-.4,0-.5,0-.3.1-.7.4-1s.6-.4,1.1-.4.9.2,1.1.5c.2.3.4.8.7,1.5Z"/>
      <path class="cls-6" d="M1082.2,382.7c1.6,0,2.9.3,4,.9,1.1.6,2,1.5,2.5,2.7.6,1.2.9,2.5.9,4.1s-.2,2.2-.5,3.2-.8,1.8-1.4,2.5-1.4,1.2-2.3,1.6-2,.6-3.1.6-2.2-.2-3.2-.6c-.9-.4-1.7-.9-2.3-1.6-.6-.7-1.1-1.5-1.4-2.5-.3-1-.5-2-.5-3.1s.2-2.2.5-3.2c.3-1,.8-1.8,1.4-2.5.6-.7,1.4-1.2,2.3-1.6.9-.4,1.9-.5,3.1-.5ZM1086.6,390.4c0-1.1-.2-2.1-.5-2.9-.4-.8-.9-1.4-1.5-1.8-.7-.4-1.4-.6-2.3-.6s-1.2.1-1.7.3c-.5.2-1,.6-1.3,1-.4.4-.7,1-.9,1.7-.2.7-.3,1.4-.3,2.3s.1,1.6.3,2.3c.2.7.5,1.3.9,1.7.4.5.8.8,1.4,1,.5.2,1.1.3,1.7.3s1.5-.2,2.1-.6c.7-.4,1.2-1,1.6-1.8.4-.8.6-1.8.6-3Z"/>
      <path class="cls-6" d="M1092.4,396.4v-11.8c0-.6.1-1.1.4-1.4s.6-.5,1.1-.5.8.2,1.1.5c.3.3.4.8.4,1.4v11.8c0,.6-.1,1.1-.4,1.4-.3.3-.7.5-1.1.5s-.8-.2-1.1-.5c-.3-.3-.4-.8-.4-1.4Z"/>
      <path class="cls-6" d="M1111.6,393.3c0,.5-.1,1-.4,1.6-.2.6-.6,1.1-1.1,1.6-.5.5-1.2,1-1.9,1.3s-1.7.5-2.7.5-1.5,0-2.2-.2c-.6-.2-1.2-.4-1.8-.7-.5-.3-1-.7-1.5-1.3-.4-.5-.7-1-1-1.6-.3-.6-.5-1.2-.6-1.9-.1-.7-.2-1.4-.2-2.1,0-1.2.2-2.3.5-3.2.4-1,.9-1.8,1.5-2.5.7-.7,1.4-1.2,2.3-1.6.9-.4,1.8-.5,2.8-.5s2.3.2,3.3.7,1.7,1.1,2.2,1.8c.5.7.8,1.4.8,2s-.1.7-.4.9c-.2.3-.5.4-.9.4s-.7,0-.9-.3c-.2-.2-.4-.5-.7-1-.4-.7-.9-1.3-1.4-1.7-.5-.4-1.2-.6-2-.6-1.3,0-2.2.5-3,1.4-.7,1-1.1,2.3-1.1,4.1s.2,2.1.5,2.9c.3.8.8,1.4,1.4,1.7.6.4,1.3.6,2.1.6s1.6-.2,2.2-.7c.6-.4,1.1-1.1,1.4-1.9.1-.4.3-.7.5-1,.2-.2.5-.4.9-.4s.7.1.9.4c.3.3.4.6.4.9Z"/>
      <path class="cls-6" d="M1124.3,385.3h-6.9v3.7h6.3c.5,0,.8.1,1,.3.2.2.3.5.3.8s-.1.6-.3.8c-.2.2-.6.3-1,.3h-6.3v4.3h7.1c.5,0,.8.1,1.1.3.2.2.4.5.4.9s-.1.6-.4.9c-.2.2-.6.3-1.1.3h-8.3c-.7,0-1.1-.1-1.4-.4-.3-.3-.4-.8-.4-1.4v-11.3c0-.4,0-.8.2-1.1.1-.3.3-.5.6-.6.3-.1.6-.2,1.1-.2h8c.5,0,.8.1,1.1.3.2.2.4.5.4.8s-.1.6-.4.9c-.2.2-.6.3-1.1.3Z"/>
      <path class="cls-6" d="M995.7,416.8h-1.1v4.8c0,.6-.1,1.1-.4,1.4-.3.3-.6.5-1.1.5s-.9-.2-1.1-.5c-.3-.3-.4-.8-.4-1.4v-11.6c0-.7.1-1.1.4-1.4.3-.3.8-.4,1.4-.4h5c.7,0,1.3,0,1.8,0,.5,0,.9.2,1.3.4.5.2.9.5,1.3.9s.6.8.8,1.3c.2.5.3,1,.3,1.6,0,1.1-.3,2-.9,2.7-.6.7-1.6,1.1-2.9,1.4.5.3,1.1.7,1.5,1.3s.9,1.2,1.3,1.8c.4.6.7,1.2.9,1.7.2.5.3.9.3,1.1s0,.4-.2.6c-.1.2-.3.3-.5.5-.2.1-.5.2-.8.2s-.6,0-.9-.2c-.2-.2-.4-.4-.6-.6-.2-.2-.4-.6-.7-1.1l-1.2-2c-.4-.7-.8-1.3-1.2-1.7-.3-.4-.7-.7-1.1-.8s-.8-.2-1.3-.2ZM997.4,410.5h-2.8v4.1h2.7c.7,0,1.3,0,1.8-.2.5-.1.9-.3,1.1-.6.3-.3.4-.7.4-1.3s-.1-.8-.3-1.1c-.2-.3-.5-.6-.9-.7-.4-.2-1.1-.2-2.1-.2Z"/>
      <path class="cls-6" d="M1016.6,410.5h-6.9v3.7h6.3c.5,0,.8.1,1,.3.2.2.3.5.3.8s-.1.6-.3.8c-.2.2-.6.3-1,.3h-6.3v4.3h7.1c.5,0,.8.1,1.1.3.2.2.4.5.4.9s-.1.6-.4.9c-.2.2-.6.3-1.1.3h-8.3c-.7,0-1.1-.1-1.4-.4-.3-.3-.4-.8-.4-1.4v-11.3c0-.4,0-.8.2-1.1.1-.3.3-.5.6-.6.3-.1.6-.2,1.1-.2h8c.5,0,.8.1,1.1.3.2.2.4.5.4.8s-.1.6-.4.9c-.2.2-.6.3-1.1.3Z"/>
      <path class="cls-6" d="M1033.5,418.5c0,.5-.1,1-.4,1.6-.2.6-.6,1.1-1.1,1.6-.5.5-1.2,1-1.9,1.3s-1.7.5-2.7.5-1.5,0-2.2-.2c-.6-.2-1.2-.4-1.8-.7-.5-.3-1-.7-1.5-1.3-.4-.5-.7-1-1-1.6-.3-.6-.5-1.2-.6-1.9-.1-.7-.2-1.4-.2-2.1,0-1.2.2-2.3.5-3.2.4-1,.9-1.8,1.5-2.5.7-.7,1.4-1.2,2.3-1.6.9-.4,1.8-.5,2.8-.5s2.3.2,3.3.7,1.7,1.1,2.2,1.8c.5.7.8,1.4.8,2s-.1.7-.4.9c-.2.3-.5.4-.9.4s-.7,0-.9-.3c-.2-.2-.4-.5-.7-1-.4-.7-.9-1.3-1.4-1.7-.5-.4-1.2-.6-2-.6-1.3,0-2.2.5-3,1.4-.7,1-1.1,2.3-1.1,4.1s.2,2.1.5,2.9c.3.8.8,1.4,1.4,1.7.6.4,1.3.6,2.1.6s1.6-.2,2.2-.7c.6-.4,1.1-1.1,1.4-1.9.1-.4.3-.7.5-1,.2-.2.5-.4.9-.4s.7.1.9.4c.3.3.4.6.4.9Z"/>
      <path class="cls-6" d="M1042.8,407.9c1.6,0,2.9.3,4,.9,1.1.6,2,1.5,2.5,2.7.6,1.2.9,2.5.9,4.1s-.2,2.2-.5,3.2-.8,1.8-1.4,2.5-1.4,1.2-2.3,1.6-2,.6-3.1.6-2.2-.2-3.2-.6c-.9-.4-1.7-.9-2.3-1.6-.6-.7-1.1-1.5-1.4-2.5-.3-1-.5-2-.5-3.1s.2-2.2.5-3.2c.3-1,.8-1.8,1.4-2.5.6-.7,1.4-1.2,2.3-1.6.9-.4,1.9-.5,3.1-.5ZM1047.2,415.6c0-1.1-.2-2.1-.5-2.9-.4-.8-.9-1.4-1.5-1.8-.7-.4-1.4-.6-2.3-.6s-1.2.1-1.7.3c-.5.2-1,.6-1.3,1-.4.4-.7,1-.9,1.7-.2.7-.3,1.4-.3,2.3s.1,1.6.3,2.3c.2.7.5,1.3.9,1.7.4.5.8.8,1.4,1,.5.2,1.1.3,1.7.3s1.5-.2,2.1-.6c.7-.4,1.2-1,1.6-1.8.4-.8.6-1.8.6-3Z"/>
      <path class="cls-6" d="M1056.8,409.7l5.9,8.9v-8.9c0-.6.1-1,.4-1.3.2-.3.6-.4,1-.4s.8.1,1,.4c.3.3.4.7.4,1.3v11.8c0,1.3-.5,2-1.6,2s-.5,0-.7-.1c-.2,0-.4-.2-.6-.4-.2-.2-.4-.4-.5-.6-.2-.2-.3-.5-.5-.7l-5.7-8.8v8.8c0,.6-.1,1-.4,1.3-.3.3-.6.4-1,.4s-.8-.1-1-.4c-.3-.3-.4-.7-.4-1.3v-11.6c0-.5,0-.9.2-1.2.1-.3.3-.6.6-.8.3-.2.6-.3,1-.3s.5,0,.7.1c.2,0,.4.2.5.4.1.2.3.3.5.6.2.2.3.5.5.7Z"/>
      <path class="cls-6" d="M1081.6,418.5c0,.5-.1,1-.4,1.6-.2.6-.6,1.1-1.1,1.6-.5.5-1.2,1-1.9,1.3s-1.7.5-2.7.5-1.5,0-2.2-.2c-.6-.2-1.2-.4-1.8-.7-.5-.3-1-.7-1.5-1.3-.4-.5-.7-1-1-1.6-.3-.6-.5-1.2-.6-1.9-.1-.7-.2-1.4-.2-2.1,0-1.2.2-2.3.5-3.2.4-1,.9-1.8,1.5-2.5.7-.7,1.4-1.2,2.3-1.6.9-.4,1.8-.5,2.8-.5s2.3.2,3.3.7,1.7,1.1,2.2,1.8c.5.7.8,1.4.8,2s-.1.7-.4.9c-.2.3-.5.4-.9.4s-.7,0-.9-.3c-.2-.2-.4-.5-.7-1-.4-.7-.9-1.3-1.4-1.7-.5-.4-1.2-.6-2-.6-1.3,0-2.2.5-3,1.4-.7,1-1.1,2.3-1.1,4.1s.2,2.1.5,2.9c.3.8.8,1.4,1.4,1.7.6.4,1.3.6,2.1.6s1.6-.2,2.2-.7c.6-.4,1.1-1.1,1.4-1.9.1-.4.3-.7.5-1,.2-.2.5-.4.9-.4s.7.1.9.4c.3.3.4.6.4.9Z"/>
      <path class="cls-6" d="M1084.5,421.6v-11.8c0-.6.1-1.1.4-1.4s.6-.5,1.1-.5.8.2,1.1.5c.3.3.4.8.4,1.4v11.8c0,.6-.1,1.1-.4,1.4-.3.3-.7.5-1.1.5s-.8-.2-1.1-.5c-.3-.3-.4-.8-.4-1.4Z"/>
      <path class="cls-6" d="M1093.9,409.8v10.9h6.2c.5,0,.9.1,1.1.4.3.2.4.5.4.9s-.1.7-.4.9c-.3.2-.6.3-1.1.3h-7.4c-.7,0-1.1-.1-1.4-.4-.3-.3-.4-.8-.4-1.4v-11.6c0-.6.1-1.1.4-1.4.3-.3.6-.5,1.1-.5s.8.2,1.1.5c.3.3.4.8.4,1.4Z"/>
      <path class="cls-6" d="M1103.7,421.6v-11.8c0-.6.1-1.1.4-1.4s.6-.5,1.1-.5.8.2,1.1.5c.3.3.4.8.4,1.4v11.8c0,.6-.1,1.1-.4,1.4-.3.3-.7.5-1.1.5s-.8-.2-1.1-.5c-.3-.3-.4-.8-.4-1.4Z"/>
      <path class="cls-6" d="M1119.8,421.5l-.7-1.9h-6.1l-.7,1.9c-.3.8-.5,1.3-.7,1.5-.2.3-.5.4-1,.4s-.7-.1-1-.4-.4-.6-.4-1,0-.4.1-.6c0-.2.2-.5.3-.9l3.8-9.8c.1-.3.2-.6.4-1,.2-.4.3-.7.5-1,.2-.3.4-.5.7-.6.3-.2.6-.2,1.1-.2s.8,0,1.1.2c.3.2.5.4.7.6.2.3.3.5.4.8.1.3.3.7.5,1.2l3.9,9.7c.3.7.5,1.3.5,1.6s-.1.7-.4,1c-.3.3-.6.4-1.1.4s-.4,0-.6-.1c-.2,0-.3-.2-.4-.3-.1-.1-.2-.4-.4-.7-.1-.3-.2-.6-.3-.8ZM1113.8,417.3h4.5l-2.3-6.2-2.2,6.2Z"/>
      <path class="cls-6" d="M1133.2,410.7h-3.3v10.9c0,.6-.1,1.1-.4,1.4-.3.3-.6.5-1.1.5s-.8-.2-1.1-.5c-.3-.3-.4-.8-.4-1.4v-10.9h-3.3c-.5,0-.9-.1-1.2-.3-.3-.2-.4-.5-.4-.9s.1-.7.4-.9c.3-.2.6-.3,1.1-.3h9.7c.5,0,.9.1,1.2.3.3.2.4.5.4.9s-.1.7-.4.9c-.3.2-.6.3-1.2.3Z"/>
      <path class="cls-6" d="M1136.7,421.6v-11.8c0-.6.1-1.1.4-1.4s.6-.5,1.1-.5.8.2,1.1.5c.3.3.4.8.4,1.4v11.8c0,.6-.1,1.1-.4,1.4-.3.3-.7.5-1.1.5s-.8-.2-1.1-.5c-.3-.3-.4-.8-.4-1.4Z"/>
      <path class="cls-6" d="M1149.7,407.9c1.6,0,2.9.3,4,.9,1.1.6,2,1.5,2.5,2.7.6,1.2.9,2.5.9,4.1s-.2,2.2-.5,3.2-.8,1.8-1.4,2.5-1.4,1.2-2.3,1.6-2,.6-3.1.6-2.2-.2-3.2-.6c-.9-.4-1.7-.9-2.3-1.6-.6-.7-1.1-1.5-1.4-2.5-.3-1-.5-2-.5-3.1s.2-2.2.5-3.2c.3-1,.8-1.8,1.4-2.5.6-.7,1.4-1.2,2.3-1.6.9-.4,1.9-.5,3.1-.5ZM1154.1,415.6c0-1.1-.2-2.1-.5-2.9-.4-.8-.9-1.4-1.5-1.8-.7-.4-1.4-.6-2.3-.6s-1.2.1-1.7.3c-.5.2-1,.6-1.3,1-.4.4-.7,1-.9,1.7-.2.7-.3,1.4-.3,2.3s.1,1.6.3,2.3c.2.7.5,1.3.9,1.7.4.5.8.8,1.4,1,.5.2,1.1.3,1.7.3s1.5-.2,2.1-.6c.7-.4,1.2-1,1.6-1.8.4-.8.6-1.8.6-3Z"/>
      <path class="cls-6" d="M1163.7,409.7l5.9,8.9v-8.9c0-.6.1-1,.4-1.3.2-.3.6-.4,1-.4s.8.1,1,.4c.3.3.4.7.4,1.3v11.8c0,1.3-.5,2-1.6,2s-.5,0-.7-.1c-.2,0-.4-.2-.6-.4-.2-.2-.4-.4-.5-.6-.2-.2-.3-.5-.5-.7l-5.7-8.8v8.8c0,.6-.1,1-.4,1.3-.3.3-.6.4-1,.4s-.8-.1-1-.4c-.3-.3-.4-.7-.4-1.3v-11.6c0-.5,0-.9.2-1.2.1-.3.3-.6.6-.8.3-.2.6-.3,1-.3s.5,0,.7.1c.2,0,.4.2.5.4.1.2.3.3.5.6.2.2.3.5.5.7Z"/>
    </g>
    <g>
      <path class="cls-6" d="M1027,627.4v-11.8c0-.6.1-1.1.4-1.4s.6-.5,1.1-.5.8.2,1.1.5c.3.3.4.8.4,1.4v11.8c0,.6-.1,1.1-.4,1.4-.3.3-.7.5-1.1.5s-.8-.2-1.1-.5c-.3-.3-.4-.8-.4-1.4Z"/>
      <path class="cls-6" d="M1046.2,624.3c0,.5-.1,1-.4,1.6-.2.6-.6,1.1-1.1,1.6-.5.5-1.2,1-1.9,1.3s-1.7.5-2.7.5-1.5,0-2.2-.2c-.6-.2-1.2-.4-1.8-.7-.5-.3-1-.7-1.5-1.3-.4-.5-.7-1-1-1.6-.3-.6-.5-1.2-.6-1.9-.1-.7-.2-1.4-.2-2.1,0-1.2.2-2.3.5-3.2.4-1,.9-1.8,1.5-2.5.7-.7,1.4-1.2,2.3-1.6.9-.4,1.8-.5,2.8-.5s2.3.2,3.3.7,1.7,1.1,2.2,1.8c.5.7.8,1.4.8,2s-.1.7-.4.9c-.2.3-.5.4-.9.4s-.7,0-.9-.3c-.2-.2-.4-.5-.7-1-.4-.7-.9-1.3-1.4-1.7-.5-.4-1.2-.6-2-.6-1.3,0-2.2.5-3,1.4-.7,1-1.1,2.3-1.1,4.1s.2,2.1.5,2.9c.3.8.8,1.4,1.4,1.7.6.4,1.3.6,2.1.6s1.6-.2,2.2-.7c.6-.4,1.1-1.1,1.4-1.9.1-.4.3-.7.5-1,.2-.2.5-.4.9-.4s.7.1.9.4c.3.3.4.6.4.9Z"/>
      <path class="cls-6" d="M1055.6,613.7c1.6,0,2.9.3,4,.9,1.1.6,2,1.5,2.5,2.7.6,1.2.9,2.5.9,4.1s-.2,2.2-.5,3.2-.8,1.8-1.4,2.5-1.4,1.2-2.3,1.6-2,.6-3.1.6-2.2-.2-3.2-.6c-.9-.4-1.7-.9-2.3-1.6-.6-.7-1.1-1.5-1.4-2.5-.3-1-.5-2-.5-3.1s.2-2.2.5-3.2c.3-1,.8-1.8,1.4-2.5.6-.7,1.4-1.2,2.3-1.6.9-.4,1.9-.5,3.1-.5ZM1059.9,621.4c0-1.1-.2-2.1-.5-2.9-.4-.8-.9-1.4-1.5-1.8-.7-.4-1.4-.6-2.3-.6s-1.2.1-1.7.3c-.5.2-1,.6-1.3,1-.4.4-.7,1-.9,1.7-.2.7-.3,1.4-.3,2.3s.1,1.6.3,2.3c.2.7.5,1.3.9,1.7.4.5.8.8,1.4,1,.5.2,1.1.3,1.7.3s1.5-.2,2.1-.6c.7-.4,1.2-1,1.6-1.8.4-.8.6-1.8.6-3Z"/>
      <path class="cls-6" d="M1069.6,615.5l5.9,8.9v-8.9c0-.6.1-1,.4-1.3.2-.3.6-.4,1-.4s.8.1,1,.4c.3.3.4.7.4,1.3v11.8c0,1.3-.5,2-1.6,2s-.5,0-.7-.1c-.2,0-.4-.2-.6-.4-.2-.2-.4-.4-.5-.6-.2-.2-.3-.5-.5-.7l-5.7-8.8v8.8c0,.6-.1,1-.4,1.3-.3.3-.6.4-1,.4s-.8-.1-1-.4c-.3-.3-.4-.7-.4-1.3v-11.6c0-.5,0-.9.2-1.2.1-.3.3-.6.6-.8.3-.2.6-.3,1-.3s.5,0,.7.1c.2,0,.4.2.5.4.1.2.3.3.5.6.2.2.3.5.5.7Z"/>
      <path class="cls-6" d="M1093,624.5c0,.9-.2,1.7-.7,2.5-.5.7-1.2,1.3-2.1,1.7s-2,.6-3.2.6-2.7-.3-3.7-.8c-.7-.4-1.2-.9-1.7-1.6-.4-.7-.6-1.3-.6-2s.1-.7.4-.9c.3-.3.6-.4,1-.4s.6.1.8.3c.2.2.4.5.6.9.2.5.4.9.6,1.2.2.3.5.6.9.8.4.2.9.3,1.6.3s1.6-.2,2.2-.6c.6-.4.8-.9.8-1.6s-.2-.9-.5-1.2c-.3-.3-.7-.5-1.2-.7-.5-.2-1.1-.3-1.9-.5-1.1-.3-2-.5-2.7-.9-.7-.3-1.3-.8-1.7-1.4-.4-.6-.6-1.3-.6-2.2s.2-1.6.7-2.2,1.1-1.1,2-1.5c.9-.3,1.9-.5,3-.5s1.7.1,2.4.3c.7.2,1.2.5,1.7.9.4.4.8.8,1,1.2s.3.8.3,1.2-.1.7-.4,1c-.3.3-.6.4-1,.4s-.6,0-.8-.3c-.2-.2-.4-.5-.6-.9-.3-.6-.6-1-1-1.3-.4-.3-1-.5-1.8-.5s-1.4.2-1.9.5c-.5.3-.7.8-.7,1.2s0,.6.2.8.4.4.7.6.6.3.9.4c.3,0,.8.2,1.5.4.8.2,1.6.4,2.3.7.7.2,1.3.5,1.8.9.5.3.9.8,1.1,1.3.3.5.4,1.2.4,1.9Z"/>
      <path class="cls-6" d="M1095.7,627.4v-11.8c0-.6.1-1.1.4-1.4s.6-.5,1.1-.5.8.2,1.1.5c.3.3.4.8.4,1.4v11.8c0,.6-.1,1.1-.4,1.4-.3.3-.7.5-1.1.5s-.8-.2-1.1-.5c-.3-.3-.4-.8-.4-1.4Z"/>
      <path class="cls-6" d="M1115.9,622.9v2.9c0,.4,0,.7-.1.9,0,.2-.2.4-.4.6-.2.2-.5.4-.8.5-.9.5-1.8.9-2.6,1.1s-1.8.3-2.7.3-2.2-.2-3.2-.5c-1-.4-1.8-.9-2.4-1.5-.7-.7-1.2-1.5-1.5-2.5-.4-1-.5-2-.5-3.2s.2-2.2.5-3.2c.3-1,.9-1.8,1.5-2.5.7-.7,1.5-1.2,2.5-1.6,1-.4,2.1-.5,3.3-.5s1.9.1,2.7.4c.8.3,1.4.6,1.9,1,.5.4.9.8,1.1,1.3s.4.9.4,1.2-.1.7-.4,1c-.3.3-.6.4-1,.4s-.4,0-.6-.2c-.2-.1-.4-.2-.5-.4-.4-.6-.7-1-1-1.3s-.6-.6-1.1-.8c-.4-.2-1-.3-1.7-.3s-1.3.1-1.9.4c-.6.2-1,.6-1.4,1.1-.4.5-.7,1-.9,1.7-.2.7-.3,1.4-.3,2.2,0,1.8.4,3.1,1.2,4.1.8,1,1.9,1.4,3.4,1.4s1.4,0,2-.3c.6-.2,1.2-.4,1.9-.8v-2.4h-2.4c-.6,0-1,0-1.3-.3-.3-.2-.4-.5-.4-.9s.1-.6.4-.8c.2-.2.6-.3,1-.3h3.5c.4,0,.8,0,1.1.1.3,0,.5.2.7.5.2.3.3.6.3,1.2Z"/>
      <path class="cls-6" d="M1122.7,615.5l5.9,8.9v-8.9c0-.6.1-1,.4-1.3.2-.3.6-.4,1-.4s.8.1,1,.4c.3.3.4.7.4,1.3v11.8c0,1.3-.5,2-1.6,2s-.5,0-.7-.1c-.2,0-.4-.2-.6-.4-.2-.2-.4-.4-.5-.6-.2-.2-.3-.5-.5-.7l-5.7-8.8v8.8c0,.6-.1,1-.4,1.3-.3.3-.6.4-1,.4s-.8-.1-1-.4c-.3-.3-.4-.7-.4-1.3v-11.6c0-.5,0-.9.2-1.2.1-.3.3-.6.6-.8.3-.2.6-.3,1-.3s.5,0,.7.1c.2,0,.4.2.5.4.1.2.3.3.5.6.2.2.3.5.5.7Z"/>
      <path class="cls-6" d="M1134.9,627.4v-11.8c0-.6.1-1.1.4-1.4s.6-.5,1.1-.5.8.2,1.1.5c.3.3.4.8.4,1.4v11.8c0,.6-.1,1.1-.4,1.4-.3.3-.7.5-1.1.5s-.8-.2-1.1-.5c-.3-.3-.4-.8-.4-1.4Z"/>
      <path class="cls-6" d="M1151.1,616.5h-3.3v10.9c0,.6-.1,1.1-.4,1.4-.3.3-.6.5-1.1.5s-.8-.2-1.1-.5c-.3-.3-.4-.8-.4-1.4v-10.9h-3.3c-.5,0-.9-.1-1.2-.3-.3-.2-.4-.5-.4-.9s.1-.7.4-.9c.3-.2.6-.3,1.1-.3h9.7c.5,0,.9.1,1.2.3.3.2.4.5.4.9s-.1.7-.4.9c-.3.2-.6.3-1.2.3Z"/>
    </g>
  </g>
  <g>
    <rect class="cls-6" x="1215.7" y="612" width="3" height="8.2"/>
    <path class="cls-6" d="M1229.6,612l-1.5,2.4h-4.8c-.2,0-.4.1-.5.3h0c-.6.9-.6,2,0,2.9h0c.2.2.4.4.7.4h6.1l-1.8,2.3h-5.1l-.9-.6c-.6-.4-1.1-.8-1.5-1.4h-.1c-.4-.7-.7-1.4-.7-2.1v-.5c0-.6.2-1.1.6-1.5h0c.4-.5.9-.9,1.5-1.3l1.7-1h6.4Z"/>
    <path class="cls-6" d="M1236.2,612c-3.2,0-5.8,1.9-5.8,4.1s2.6,4.1,5.8,4.1,5.8-1.9,5.8-4.1-2.6-4.1-5.8-4.1ZM1236.4,618.5c-2,0-3.5-1-3.5-2.2s1.6-2.2,3.5-2.2,3.5,1,3.5,2.2-1.6,2.2-3.5,2.2Z"/>
    <polygon class="cls-6" points="1243.3 614.1 1243.3 620.2 1245.7 620.3 1245.8 616.1 1243.3 614.1"/>
    <rect class="cls-6" x="1250.3" y="612" width="2.4" height="8.3"/>
    <polygon class="cls-7" points="1250 619.7 1250 616.5 1245.2 612.3 1243.3 612.4 1243.3 613.8 1250 619.7"/>
    <polygon class="cls-6" points="1264.1 612 1256.1 612 1254.1 613.5 1254.1 616 1256.1 617 1261.7 617 1262.1 617.3 1262.1 618.2 1255.6 618.2 1253.7 620.3 1262.7 620.3 1264.1 618.5 1264.1 616.4 1262.7 615.5 1256.2 615.5 1256.1 614.1 1262.7 614.1 1264.1 612"/>
    <polyline class="cls-6" points="1265.4 620.3 1265.5 612 1268 612 1268 620.3 1265.2 620.3"/>
    <path class="cls-6" d="M1279.3,612h-6.5l-1.8.9c-.4.2-.7.5-1,.9l-.4.5c-.3.4-.4.9-.4,1.5v1c0,.5.2,1,.5,1.4l.4.5c.2.3.5.6.9.7l.8.4c.3.2.7.2,1,.3h6.5c0,0,0-4.7,0-4.7h-5s-1.2,1.5-1.2,1.5h4.4v1.5h-4.3c-.3,0-.6-.1-.8-.3l-.5-.4c-.3-.3-.5-.7-.4-1.1v-.7c0-.5.4-.9.8-1.1l.7-.4c.2-.1.5-.2.7-.2h4l1.5-2.1Z"/>
    <polygon class="cls-6" points="1280.7 620 1282.8 620 1282.8 614.2 1280.7 612.1 1280.7 620"/>
    <polygon class="cls-6" points="1287.9 620 1287.8 612.3 1289.9 612.3 1289.9 620 1287.9 620"/>
    <polygon class="cls-6" points="1292.2 620.1 1292.1 612.4 1294.2 612.4 1294.2 620.1 1292.2 620.1"/>
    <polygon class="cls-6" points="1295.5 613.8 1296.8 612.4 1305.7 612.4 1304.4 614.1 1301.4 614.1 1301.5 620 1299.3 620 1299.1 614.1 1295.2 614.1 1295.5 613.8"/>
    <path class="cls-7" d="M1254.2,596.8c-6-.8-11.9-.5-17.3.6s-10.2,3-14.3,5.7c4.1-2,8.8-3.5,13.7-4.2s10.2-.9,15.6-.2c8,1,15.2,3.5,21.3,7.2s11,8.4,14.2,13.7v-3.3c-2.9-4.9-7.5-9.3-13.2-12.7s-12.6-5.8-20.1-6.7Z"/>
  </g>
  <g>
    <path class="cls-1" d="M75.2,593.5v40h34.3v-40c0-2.4-1.9-4.3-4.3-4.3h-25.7c-2.4,0-4.3,1.9-4.3,4.3Z"/>
    <path class="cls-1" d="M90,656.9l-26.7-27.9c-2-2-.5-5.4,2.3-5.4h53.5c2.8,0,4.3,3.4,2.3,5.4l-26.7,27.9c-1.3,1.3-3.4,1.3-4.7,0Z"/>
    <path class="cls-18" d="M74.8,630.7h.4c3.9,0,7.2-3.2,7.2-7.2v-24.3c0-3.9-3.1-7-6.9-7.1-.2.4-.3.9-.3,1.4v30h-9.6c-2.8,0-4.3,3.4-2.3,5.4l19,19.8c2.8-2.7,2.9-7.3.2-10.1l-7.7-8Z"/>
    <path class="cls-22" d="M94.7,656.9l26.7-27.9c.7-.7.9-1.6.9-2.5-2.8-2-6.8-1.7-9.3.9l-18.9,19.7c-2.7,2.8-2.6,7.3.2,10.1.1-.1.3-.2.4-.3Z"/>
    <path class="cls-12" d="M92.5,632.5c-.6,0-1-.2-1.4-.6-.4-.4-.5-.8-.5-1.4v-1.9c-1.2,0-2.3-.3-3.3-.6-.9-.3-1.7-.6-2.4-1-.6-.3-1-.7-1.1-1.3-.2-.5-.1-1.1,0-1.6.2-.5.5-.9,1-1.1.5-.2,1-.2,1.7.1.5.3,1.2.6,2.1.8.9.3,2,.4,3.3.4s2.5-.2,3.1-.7c.6-.5.9-1.1.9-1.8s-.2-1.1-.6-1.4c-.4-.4-1.2-.7-2.3-.9l-3.5-.8c-3.9-.8-5.8-2.9-5.8-6.2s.6-3.3,1.8-4.5c1.2-1.2,2.8-2,4.9-2.3v-2c0-.5.2-1,.5-1.4.4-.4.8-.6,1.4-.6s1,.2,1.3.6c.4.4.5.8.5,1.4v1.9c.8.1,1.6.3,2.4.6.8.3,1.6.6,2.2,1.1.5.3.8.7.9,1.2.1.5,0,1-.1,1.4-.2.4-.6.8-1,.9-.5.2-1.1.1-1.7-.2-.6-.3-1.2-.5-1.9-.7-.7-.2-1.5-.3-2.5-.3s-2.2.3-2.9.8c-.7.5-1.1,1.2-1.1,2s.2,1,.6,1.4c.4.4,1.1.7,2.2.9l3.5.8c2,.4,3.5,1.2,4.5,2.2,1,1,1.5,2.3,1.5,3.9s-.6,3.3-1.8,4.5c-1.2,1.2-2.8,1.9-4.8,2.3v2c0,.5-.2,1-.5,1.4-.4.4-.8.6-1.3.6Z"/>
    <line class="cls-34" x1="80.2" y1="598.5" x2="80.2" y2="605.7"/>
  </g>
  <g>
    <path class="cls-23" d="M110.7,422.7h-36.7c-4.7,0-9.1-2.7-10.8-7.1-1-2.6-1.1-5.6-.2-8.4l6.7-20.5h45.1l6.8,20.6c.9,2.5.9,5.1.2,7.5-1.4,4.8-6.1,8-11.1,8Z"/>
    <circle class="cls-2" cx="72.2" cy="400.3" r="4"/>
    <ellipse class="cls-2" cx="112.6" cy="400.3" rx="4" ry="4"/>
    <ellipse class="cls-2" cx="92.4" cy="400.5" rx="20.8" ry="24.9"/>
    <path class="cls-23" d="M92.3,370.8c-13.2,0-23.9,10.7-23.9,23.9s0,1,0,1.5c.5,0,1,0,1.5,0,9.3,0,17.4-4.6,22.3-11.7,4.9,7.1,13,11.7,22.3,11.7s1,0,1.5,0c0-.5,0-1,0-1.5,0-13.2-10.7-23.9-23.9-23.9Z"/>
    <path class="cls-34" d="M76.6,382.5c1.4-1.9,3.2-3.5,5.2-4.7"/>
    <path class="cls-18" d="M68.8,390.9c.5.1,1,.2,1.5.2,2.2,0,4.4-1.3,5.3-3.5,2.1-4.9,6.2-8.6,11.2-10.2,2.8-.9,4.4-3.7,3.9-6.5-11.2.7-20.3,9.1-22,20Z"/>
    <path class="cls-22" d="M102.6,414.3c-2.8,3.4-6.5,5.2-10.3,5.2s-5.2,2.1-5.7,4.8c7,2.4,14.8.3,20.4-6.3,1.2-1.5,2.3-3.1,3.1-4.8-2.4-1.6-5.7-1.1-7.5,1.1Z"/>
    <path class="cls-32" d="M116,402.6v6.9c0,5.7-4.6,10.4-10.4,10.4h-12.7"/>
    <path class="cls-3" d="M116.6,405.4h-2.3c-1.3,0-2.3-1-2.3-2.3v-11.5c0-1.3,1-2.3,2.3-2.3h2.3c1.9,0,3.5,1.5,3.5,3.5v9.2c0,1.9-1.5,3.5-3.5,3.5Z"/>
    <circle class="cls-31" cx="92.4" cy="419.3" r="4.6"/>
  </g>
  <g>
    <path class="cls-26" d="M1280.9,372.7h-43.2c-4.6,0-8.4,3.8-8.4,8.4v31.2c0,4.6,3.8,8.4,8.4,8.4h43.2c4.6,0,8.4-3.8,8.4-8.4v-31.2c0-4.6-3.8-8.4-8.4-8.4Z"/>
    <path class="cls-34" d="M1233.5,385.3v-4.2c0-2.3,1.9-4.2,4.2-4.2h4.2"/>
    <path class="cls-22" d="M1289.3,394.3c-3.3,0-6,2.7-6,6v12c0,1.3-1.1,2.4-2.4,2.4h-14.4c-3.3,0-6,2.7-6,6h20.4c4.6,0,8.4-3.8,8.4-8.4v-18h0Z"/>
    <path class="cls-18" d="M1249.7,378.7c3.3,0,6-2.7,6-6h-18c-4.6,0-8.4,3.8-8.4,8.4v18h0c3.3,0,6-2.7,6-6v-12c0-1.3,1.1-2.4,2.4-2.4h12Z"/>
    <path class="cls-8" d="M1242.5,388.3h24c1.3,0,2.4-1.1,2.4-2.4h0c0-1.3-1.1-2.4-2.4-2.4h-24c-1.3,0-2.4,1.1-2.4,2.4h0c0,1.3,1.1,2.4,2.4,2.4Z"/>
    <path class="cls-8" d="M1242.5,399.1h24c1.3,0,2.4-1.1,2.4-2.4h0c0-1.3-1.1-2.4-2.4-2.4h-24c-1.3,0-2.4,1.1-2.4,2.4h0c0,1.3,1.1,2.4,2.4,2.4Z"/>
    <path class="cls-8" d="M1264.1,409.9h12c1.3,0,2.4-1.1,2.4-2.4h0c0-1.3-1.1-2.4-2.4-2.4h-12c-1.3,0-2.4,1.1-2.4,2.4h0c0,1.3,1.1,2.4,2.4,2.4Z"/>
    <circle class="cls-8" cx="1276.1" cy="385.9" r="2.4"/>
    <circle class="cls-8" cx="1276.1" cy="396.7" r="2.4"/>
  </g>
  <g>
    <path class="cls-26" d="M1276.9,114.3h-43.2c-4.6,0-8.4,3.8-8.4,8.4v36c0,4.6,3.8,8.4,8.4,8.4h43.2c4.6,0,8.4-3.8,8.4-8.4v-36c0-4.6-3.8-8.4-8.4-8.4Z"/>
    <path class="cls-24" d="M1276.9,114.3h-43.2c-4.6,0-8.4,3.8-8.4,8.4v3.6h60v-3.6c0-4.6-3.8-8.4-8.4-8.4Z"/>
    <path class="cls-22" d="M1285.3,158.7v-22.8h0c-3.3,0-6,2.7-6,6v16.8c0,1.3-1.1,2.4-2.4,2.4h-15.6c-3.3,0-6,2.7-6,6h21.6c4.6,0,8.4-3.8,8.4-8.4Z"/>
    <circle class="cls-27" cx="1273.3" cy="120.3" r="2.4"/>
    <circle class="cls-27" cx="1264.9" cy="120.3" r="2.4"/>
    <path class="cls-27" d="M1256.5,122.7h-12c-1.3,0-2.4-1.1-2.4-2.4h0c0-1.3,1.1-2.4,2.4-2.4h12c1.3,0,2.4,1.1,2.4,2.4h0c0,1.3-1.1,2.4-2.4,2.4Z"/>
    <path class="cls-18" d="M1249.3,120.3c3.3,0,6-2.7,6-6h-21.6c-4.6,0-8.4,3.8-8.4,8.4v20.4c3.3,0,6-2.7,6-6v-15.1c0-.9.7-1.7,1.7-1.7h16.3Z"/>
    <path class="cls-28" d="M1229.5,128c-1,0-1.8-.8-1.8-1.8v-4.2c0-3,2.4-5.4,5.4-5.4h4.2c1,0,1.8.8,1.8,1.8s-.8,1.8-1.8,1.8h-4.2c-1,0-1.8.8-1.8,1.8v4.2c0,1-.8,1.8-1.8,1.8Z"/>
    <circle class="cls-9" cx="1236.7" cy="152.1" r="4.2"/>
    <circle class="cls-9" cx="1248.7" cy="141.3" r="4.2"/>
    <circle class="cls-9" cx="1273.9" cy="140.1" r="4.2"/>
    <circle class="cls-9" cx="1260.7" cy="152.1" r="4.2"/>
    <path class="cls-9" d="M1260.7,155.1h0c-.5,0-1-.2-1.3-.6l-10.7-11.8-10.6,10.6c-.7.7-1.8.7-2.5,0s-.7-1.8,0-2.5l11.9-11.9c.3-.3.8-.5,1.3-.5.5,0,1,.2,1.3.6l10.7,11.8,11.9-11.9c.7-.7,1.8-.7,2.5,0,.7.7.7,1.8,0,2.5l-13.2,13.2c-.3.3-.8.5-1.3.5Z"/>
  </g>
  <g>
    <path class="cls-21" d="M111,175.5h-42.1v-60c0-3.2,2.6-5.7,5.7-5.7h40c3.2,0,5.7,2.6,5.7,5.7v50.7c0,5.1-4.2,9.3-9.3,9.3Z"/>
    <path class="cls-4" d="M104.6,167.8v-5.1c0-2.4-1.9-4.3-4.3-4.3h-35.7c-2.4,0-4.3,1.9-4.3,4.3v5c0,4.3,3.5,7.9,7.9,7.9h44.4v-9.2l-8,1.4Z"/>
    <circle class="cls-26" cx="112.5" cy="167.7" r="7.9"/>
    <path class="cls-22" d="M113.2,137v24.3c0,3.9,3.2,7.1,7.1,7.1,0-.2,0-.5,0-.7s0-.5,0-.7c0-.2,0-.5,0-.7v-36.4c-3.9,0-7.1,3.2-7.1,7.1Z"/>
    <path class="cls-18" d="M68.9,115.5v28.6c3.9,0,7.1-3.2,7.1-7.1v-20h7.1c3.9,0,7.1-3.2,7.1-7.1h-15.7c-3.2,0-5.7,2.6-5.7,5.7Z"/>
    <path class="cls-8" d="M110.3,124.1h-20c-1.6,0-2.9-1.3-2.9-2.9h0c0-1.6,1.3-2.9,2.9-2.9h20c1.6,0,2.9,1.3,2.9,2.9h0c0,1.6-1.3,2.9-2.9,2.9Z"/>
    <path class="cls-8" d="M110.3,137h-20c-1.6,0-2.9-1.3-2.9-2.9h0c0-1.6,1.3-2.9,2.9-2.9h20c1.6,0,2.9,1.3,2.9,2.9h0c0,1.6-1.3,2.9-2.9,2.9Z"/>
    <path class="cls-8" d="M110.3,149.8h-20c-1.6,0-2.9-1.3-2.9-2.9h0c0-1.6,1.3-2.9,2.9-2.9h20c1.6,0,2.9,1.3,2.9,2.9h0c0,1.6-1.3,2.9-2.9,2.9Z"/>
    <circle class="cls-8" cx="78.9" cy="121.2" r="2.9"/>
    <circle class="cls-8" cx="78.9" cy="134.1" r="2.9"/>
    <circle class="cls-8" cx="78.9" cy="147" r="2.9"/>
    <path class="cls-34" d="M73.9,120.5v-2.9c0-1.6,1.3-2.9,2.9-2.9h1.4"/>
  </g>
</svg>